<?xml version="1.0" encoding="us-ascii" standalone="no"?><svg xmlns="http://www.w3.org/2000/svg" xmlns:xlink="http://www.w3.org/1999/xlink" contentStyleType="text/css" height="1106px" preserveAspectRatio="none" style="width:808px;height:1106px;background:#FFFFFF;" version="1.1" viewBox="0 0 808 1106" width="808px" zoomAndPan="magnify"><defs/><g><!--class Item--><g id="elem_Item"><rect codeLine="3" fill="#F1F1F1" height="206.4844" id="Item" rx="2.5" ry="2.5" style="stroke:#181818;stroke-width:0.5;" width="199" x="328.5" y="893"/><ellipse cx="410.75" cy="909" fill="#ADD1B2" rx="11" ry="11" style="stroke:#181818;stroke-width:1.0;"/><path d="M413.5156,904.875 Q413.6719,904.6563 413.8594,904.5469 Q414.0469,904.4375 414.2656,904.4375 Q414.6406,904.4375 414.875,904.7031 Q415.1094,904.9531 415.1094,905.5625 L415.1094,907.0156 Q415.1094,907.625 414.875,907.8906 Q414.6406,908.1563 414.2656,908.1563 Q413.9219,908.1563 413.7188,907.9531 Q413.5156,907.7656 413.4063,907.25 Q413.3594,906.8906 413.1719,906.7031 Q412.8438,906.3281 412.2344,906.1094 Q411.625,905.8906 411,905.8906 Q410.2344,905.8906 409.5938,906.2188 Q408.9688,906.5469 408.4688,907.2969 Q407.9844,908.0469 407.9844,909.0781 L407.9844,910.1719 Q407.9844,911.4063 408.875,912.2344 Q409.7656,913.0469 411.3594,913.0469 Q412.2969,913.0469 412.9531,912.7969 Q413.3438,912.6406 413.7656,912.2031 Q414.0313,911.9375 414.1719,911.8594 Q414.3281,911.7813 414.5313,911.7813 Q414.8594,911.7813 415.1094,912.0469 Q415.375,912.2969 415.375,912.6406 Q415.375,912.9844 415.0313,913.3906 Q414.5313,913.9688 413.7344,914.2969 Q412.6563,914.75 411.3594,914.75 Q409.8438,914.75 408.6406,914.125 Q407.6563,913.625 406.9688,912.5625 Q406.2813,911.4844 406.2813,910.2031 L406.2813,909.0469 Q406.2813,907.7188 406.8906,906.5781 Q407.5156,905.4219 408.6094,904.8125 Q409.7031,904.1875 410.9375,904.1875 Q411.6719,904.1875 412.3125,904.3594 Q412.9688,904.5156 413.5156,904.875 Z " fill="#000000"/><text fill="#000000" font-family="sans-serif" font-size="14" lengthAdjust="spacing" textLength="26" x="431.25" y="914.7285">Item</text><line style="stroke:#181818;stroke-width:0.5;" x1="329.5" x2="526.5" y1="925" y2="925"/><text fill="#000000" font-family="sans-serif" font-size="14" lengthAdjust="spacing" textLength="123" x="334.5" y="943.5332">+ItemId: string &#171;pk&#187;</text><text fill="#000000" font-family="sans-serif" font-size="14" lengthAdjust="spacing" textLength="148" x="334.5" y="961.1426">+ItemDescription: string</text><text fill="#000000" font-family="sans-serif" font-size="14" lengthAdjust="spacing" textLength="138" x="334.5" y="978.752">+UniteMesure: double</text><text fill="#000000" font-family="sans-serif" font-size="14" lengthAdjust="spacing" textLength="109" x="334.5" y="996.3613">+ItemType: string</text><line style="stroke:#181818;stroke-width:0.5;" x1="329.5" x2="526.5" y1="1003.4375" y2="1003.4375"/><text fill="#000000" font-family="sans-serif" font-size="14" lengthAdjust="spacing" textLength="162" x="334.5" y="1021.9707">+addItem(item: Item): void</text><text fill="#000000" font-family="sans-serif" font-size="14" lengthAdjust="spacing" textLength="187" x="334.5" y="1039.5801">+removeItem(itemID: int): void</text><text fill="#000000" font-family="sans-serif" font-size="14" lengthAdjust="spacing" textLength="182" x="334.5" y="1057.1895">+updateItem(item: Item): void</text><text fill="#000000" font-family="sans-serif" font-size="14" lengthAdjust="spacing" textLength="160" x="334.5" y="1074.7988">+getItem(itemID: int): Item</text><text fill="#000000" font-family="sans-serif" font-size="14" lengthAdjust="spacing" textLength="158" x="334.5" y="1092.4082">+getAllItems(): List&lt;Item&gt;</text></g><!--class Inventory--><g id="elem_Inventory"><rect codeLine="15" fill="#F1F1F1" height="259.3125" id="Inventory" rx="2.5" ry="2.5" style="stroke:#181818;stroke-width:0.5;" width="199" x="328.5" y="556"/><ellipse cx="394.75" cy="572" fill="#ADD1B2" rx="11" ry="11" style="stroke:#181818;stroke-width:1.0;"/><path d="M397.5156,567.875 Q397.6719,567.6563 397.8594,567.5469 Q398.0469,567.4375 398.2656,567.4375 Q398.6406,567.4375 398.875,567.7031 Q399.1094,567.9531 399.1094,568.5625 L399.1094,570.0156 Q399.1094,570.625 398.875,570.8906 Q398.6406,571.1563 398.2656,571.1563 Q397.9219,571.1563 397.7188,570.9531 Q397.5156,570.7656 397.4063,570.25 Q397.3594,569.8906 397.1719,569.7031 Q396.8438,569.3281 396.2344,569.1094 Q395.625,568.8906 395,568.8906 Q394.2344,568.8906 393.5938,569.2188 Q392.9688,569.5469 392.4688,570.2969 Q391.9844,571.0469 391.9844,572.0781 L391.9844,573.1719 Q391.9844,574.4063 392.875,575.2344 Q393.7656,576.0469 395.3594,576.0469 Q396.2969,576.0469 396.9531,575.7969 Q397.3438,575.6406 397.7656,575.2031 Q398.0313,574.9375 398.1719,574.8594 Q398.3281,574.7813 398.5313,574.7813 Q398.8594,574.7813 399.1094,575.0469 Q399.375,575.2969 399.375,575.6406 Q399.375,575.9844 399.0313,576.3906 Q398.5313,576.9688 397.7344,577.2969 Q396.6563,577.75 395.3594,577.75 Q393.8438,577.75 392.6406,577.125 Q391.6563,576.625 390.9688,575.5625 Q390.2813,574.4844 390.2813,573.2031 L390.2813,572.0469 Q390.2813,570.7188 390.8906,569.5781 Q391.5156,568.4219 392.6094,567.8125 Q393.7031,567.1875 394.9375,567.1875 Q395.6719,567.1875 396.3125,567.3594 Q396.9688,567.5156 397.5156,567.875 Z " fill="#000000"/><text fill="#000000" font-family="sans-serif" font-size="14" lengthAdjust="spacing" textLength="58" x="415.25" y="577.7285">Inventory</text><line style="stroke:#181818;stroke-width:0.5;" x1="329.5" x2="526.5" y1="588" y2="588"/><text fill="#000000" font-family="sans-serif" font-size="14" lengthAdjust="spacing" textLength="125" x="334.5" y="606.5332">+ItemID: string &#171;pk&#187;</text><text fill="#000000" font-family="sans-serif" font-size="14" lengthAdjust="spacing" textLength="84" x="334.5" y="624.1426">+Quantity: int</text><text fill="#000000" font-family="sans-serif" font-size="14" lengthAdjust="spacing" textLength="112" x="334.5" y="641.752">+UnitCost: double</text><text fill="#000000" font-family="sans-serif" font-size="14" lengthAdjust="spacing" textLength="120" x="334.5" y="659.3613">+TotalCost: double</text><text fill="#000000" font-family="sans-serif" font-size="14" lengthAdjust="spacing" textLength="120" x="334.5" y="676.9707">+warehouse: string</text><text fill="#000000" font-family="sans-serif" font-size="14" lengthAdjust="spacing" textLength="109" x="334.5" y="694.5801">+itemType: string</text><text fill="#000000" font-family="sans-serif" font-size="14" lengthAdjust="spacing" textLength="132" x="334.5" y="712.1895">+itemMeasure: string</text><line style="stroke:#181818;stroke-width:0.5;" x1="329.5" x2="526.5" y1="719.2656" y2="719.2656"/><text fill="#000000" font-family="sans-serif" font-size="14" lengthAdjust="spacing" textLength="162" x="334.5" y="737.7988">+addItem(item: Item): void</text><text fill="#000000" font-family="sans-serif" font-size="14" lengthAdjust="spacing" textLength="187" x="334.5" y="755.4082">+removeItem(itemID: int): void</text><text fill="#000000" font-family="sans-serif" font-size="14" lengthAdjust="spacing" textLength="182" x="334.5" y="773.0176">+updateItem(item: Item): void</text><text fill="#000000" font-family="sans-serif" font-size="14" lengthAdjust="spacing" textLength="160" x="334.5" y="790.627">+getItem(itemID: int): Item</text><text fill="#000000" font-family="sans-serif" font-size="14" lengthAdjust="spacing" textLength="158" x="334.5" y="808.2363">+getAllItems(): List&lt;Item&gt;</text></g><!--class StockTransactions--><g id="elem_StockTransactions"><rect codeLine="29" fill="#F1F1F1" height="224.0938" id="StockTransactions" rx="2.5" ry="2.5" style="stroke:#181818;stroke-width:0.5;" width="170" x="631" y="573.5"/><ellipse cx="655.45" cy="589.5" fill="#ADD1B2" rx="11" ry="11" style="stroke:#181818;stroke-width:1.0;"/><path d="M658.2156,585.375 Q658.3719,585.1563 658.5594,585.0469 Q658.7469,584.9375 658.9656,584.9375 Q659.3406,584.9375 659.575,585.2031 Q659.8094,585.4531 659.8094,586.0625 L659.8094,587.5156 Q659.8094,588.125 659.575,588.3906 Q659.3406,588.6563 658.9656,588.6563 Q658.6219,588.6563 658.4188,588.4531 Q658.2156,588.2656 658.1063,587.75 Q658.0594,587.3906 657.8719,587.2031 Q657.5438,586.8281 656.9344,586.6094 Q656.325,586.3906 655.7,586.3906 Q654.9344,586.3906 654.2938,586.7188 Q653.6688,587.0469 653.1688,587.7969 Q652.6844,588.5469 652.6844,589.5781 L652.6844,590.6719 Q652.6844,591.9063 653.575,592.7344 Q654.4656,593.5469 656.0594,593.5469 Q656.9969,593.5469 657.6531,593.2969 Q658.0438,593.1406 658.4656,592.7031 Q658.7313,592.4375 658.8719,592.3594 Q659.0281,592.2813 659.2313,592.2813 Q659.5594,592.2813 659.8094,592.5469 Q660.075,592.7969 660.075,593.1406 Q660.075,593.4844 659.7313,593.8906 Q659.2313,594.4688 658.4344,594.7969 Q657.3563,595.25 656.0594,595.25 Q654.5438,595.25 653.3406,594.625 Q652.3563,594.125 651.6688,593.0625 Q650.9813,591.9844 650.9813,590.7031 L650.9813,589.5469 Q650.9813,588.2188 651.5906,587.0781 Q652.2156,585.9219 653.3094,585.3125 Q654.4031,584.6875 655.6375,584.6875 Q656.3719,584.6875 657.0125,584.8594 Q657.6688,585.0156 658.2156,585.375 Z " fill="#000000"/><text fill="#000000" font-family="sans-serif" font-size="14" lengthAdjust="spacing" textLength="117" x="671.55" y="595.2285">StockTransactions</text><line style="stroke:#181818;stroke-width:0.5;" x1="632" x2="800" y1="605.5" y2="605.5"/><text fill="#000000" font-family="sans-serif" font-size="14" lengthAdjust="spacing" textLength="154" x="637" y="624.0332">+TransactionID: int &#171;pk&#187;</text><text fill="#000000" font-family="sans-serif" font-size="14" lengthAdjust="spacing" textLength="70" x="637" y="641.6426">+ItemID: int</text><text fill="#000000" font-family="sans-serif" font-size="14" lengthAdjust="spacing" textLength="158" x="637" y="659.252">+TransactionType: string</text><text fill="#000000" font-family="sans-serif" font-size="14" lengthAdjust="spacing" textLength="84" x="637" y="676.8613">+Quantity: int</text><text fill="#000000" font-family="sans-serif" font-size="14" lengthAdjust="spacing" textLength="88" x="637" y="694.4707">+Cost: double</text><text fill="#000000" font-family="sans-serif" font-size="14" lengthAdjust="spacing" textLength="145" x="637" y="712.0801">+Transaction: datetime</text><text fill="#000000" font-family="sans-serif" font-size="14" lengthAdjust="spacing" textLength="73" x="637" y="729.6895">+UserID: int</text><text fill="#000000" font-family="sans-serif" font-size="14" lengthAdjust="spacing" textLength="79" x="637" y="747.2988">+Rmk: string</text><line style="stroke:#181818;stroke-width:0.5;" x1="632" x2="800" y1="754.375" y2="754.375"/><text fill="#000000" font-family="sans-serif" font-size="14" lengthAdjust="spacing" textLength="117" x="637" y="772.9082">+addTransaction()</text><text fill="#000000" font-family="sans-serif" font-size="14" lengthAdjust="spacing" textLength="132" x="637" y="790.5176">+deleteTransaction()</text></g><!--class SupplierMaster--><g id="elem_SupplierMaster"><rect codeLine="42" fill="#F1F1F1" height="206.4844" id="SupplierMaster" rx="2.5" ry="2.5" style="stroke:#181818;stroke-width:0.5;" width="254" x="7" y="582.5"/><ellipse cx="82.25" cy="598.5" fill="#ADD1B2" rx="11" ry="11" style="stroke:#181818;stroke-width:1.0;"/><path d="M85.0156,594.375 Q85.1719,594.1563 85.3594,594.0469 Q85.5469,593.9375 85.7656,593.9375 Q86.1406,593.9375 86.375,594.2031 Q86.6094,594.4531 86.6094,595.0625 L86.6094,596.5156 Q86.6094,597.125 86.375,597.3906 Q86.1406,597.6563 85.7656,597.6563 Q85.4219,597.6563 85.2188,597.4531 Q85.0156,597.2656 84.9063,596.75 Q84.8594,596.3906 84.6719,596.2031 Q84.3438,595.8281 83.7344,595.6094 Q83.125,595.3906 82.5,595.3906 Q81.7344,595.3906 81.0938,595.7188 Q80.4688,596.0469 79.9688,596.7969 Q79.4844,597.5469 79.4844,598.5781 L79.4844,599.6719 Q79.4844,600.9063 80.375,601.7344 Q81.2656,602.5469 82.8594,602.5469 Q83.7969,602.5469 84.4531,602.2969 Q84.8438,602.1406 85.2656,601.7031 Q85.5313,601.4375 85.6719,601.3594 Q85.8281,601.2813 86.0313,601.2813 Q86.3594,601.2813 86.6094,601.5469 Q86.875,601.7969 86.875,602.1406 Q86.875,602.4844 86.5313,602.8906 Q86.0313,603.4688 85.2344,603.7969 Q84.1563,604.25 82.8594,604.25 Q81.3438,604.25 80.1406,603.625 Q79.1563,603.125 78.4688,602.0625 Q77.7813,600.9844 77.7813,599.7031 L77.7813,598.5469 Q77.7813,597.2188 78.3906,596.0781 Q79.0156,594.9219 80.1094,594.3125 Q81.2031,593.6875 82.4375,593.6875 Q83.1719,593.6875 83.8125,593.8594 Q84.4688,594.0156 85.0156,594.375 Z " fill="#000000"/><text fill="#000000" font-family="sans-serif" font-size="14" lengthAdjust="spacing" textLength="95" x="102.75" y="604.2285">SupplierMaster</text><line style="stroke:#181818;stroke-width:0.5;" x1="8" x2="260" y1="614.5" y2="614.5"/><text fill="#000000" font-family="sans-serif" font-size="14" lengthAdjust="spacing" textLength="138" x="13" y="633.0332">+supplier_id: int &#171;PK&#187;</text><text fill="#000000" font-family="sans-serif" font-size="14" lengthAdjust="spacing" textLength="144" x="13" y="650.6426">+supplier_name: string</text><text fill="#000000" font-family="sans-serif" font-size="14" lengthAdjust="spacing" textLength="160" x="13" y="668.252">+supplier_address: string</text><text fill="#000000" font-family="sans-serif" font-size="14" lengthAdjust="spacing" textLength="155" x="13" y="685.8613">+supplier_contact: string</text><text fill="#000000" font-family="sans-serif" font-size="14" lengthAdjust="spacing" textLength="142" x="13" y="703.4707">+supplier_email: string</text><line style="stroke:#181818;stroke-width:0.5;" x1="8" x2="260" y1="710.5469" y2="710.5469"/><text fill="#000000" font-family="sans-serif" font-size="14" lengthAdjust="spacing" textLength="92" x="13" y="729.0801">+create(): void</text><text fill="#000000" font-family="sans-serif" font-size="14" lengthAdjust="spacing" textLength="242" x="13" y="746.6895">+read(supplier_id: int): SupplierMaster</text><text fill="#000000" font-family="sans-serif" font-size="14" lengthAdjust="spacing" textLength="96" x="13" y="764.2988">+update(): void</text><text fill="#000000" font-family="sans-serif" font-size="14" lengthAdjust="spacing" textLength="91" x="13" y="781.9082">+delete(): void</text></g><!--class PurchaseOrderHeader--><g id="elem_PurchaseOrderHeader"><rect codeLine="53" fill="#F1F1F1" height="400.1875" id="PurchaseOrderHeader" rx="2.5" ry="2.5" style="stroke:#181818;stroke-width:0.5;" width="208" x="30" y="42.5"/><ellipse cx="59.85" cy="58.5" fill="#ADD1B2" rx="11" ry="11" style="stroke:#181818;stroke-width:1.0;"/><path d="M62.6156,54.375 Q62.7719,54.1563 62.9594,54.0469 Q63.1469,53.9375 63.3656,53.9375 Q63.7406,53.9375 63.975,54.2031 Q64.2094,54.4531 64.2094,55.0625 L64.2094,56.5156 Q64.2094,57.125 63.975,57.3906 Q63.7406,57.6563 63.3656,57.6563 Q63.0219,57.6563 62.8188,57.4531 Q62.6156,57.2656 62.5063,56.75 Q62.4594,56.3906 62.2719,56.2031 Q61.9438,55.8281 61.3344,55.6094 Q60.725,55.3906 60.1,55.3906 Q59.3344,55.3906 58.6938,55.7188 Q58.0688,56.0469 57.5688,56.7969 Q57.0844,57.5469 57.0844,58.5781 L57.0844,59.6719 Q57.0844,60.9063 57.975,61.7344 Q58.8656,62.5469 60.4594,62.5469 Q61.3969,62.5469 62.0531,62.2969 Q62.4438,62.1406 62.8656,61.7031 Q63.1313,61.4375 63.2719,61.3594 Q63.4281,61.2813 63.6313,61.2813 Q63.9594,61.2813 64.2094,61.5469 Q64.475,61.7969 64.475,62.1406 Q64.475,62.4844 64.1313,62.8906 Q63.6313,63.4688 62.8344,63.7969 Q61.7563,64.25 60.4594,64.25 Q58.9438,64.25 57.7406,63.625 Q56.7563,63.125 56.0688,62.0625 Q55.3813,60.9844 55.3813,59.7031 L55.3813,58.5469 Q55.3813,57.2188 55.9906,56.0781 Q56.6156,54.9219 57.7094,54.3125 Q58.8031,53.6875 60.0375,53.6875 Q60.7719,53.6875 61.4125,53.8594 Q62.0688,54.0156 62.6156,54.375 Z " fill="#000000"/><text fill="#000000" font-family="sans-serif" font-size="14" lengthAdjust="spacing" textLength="143" x="77.15" y="64.2285">PurchaseOrderHeader</text><line style="stroke:#181818;stroke-width:0.5;" x1="31" x2="237" y1="74.5" y2="74.5"/><text fill="#000000" font-family="sans-serif" font-size="14" lengthAdjust="spacing" textLength="124" x="36" y="93.0332">+OrderNo : int &#171;pk&#187;</text><text fill="#000000" font-family="sans-serif" font-size="14" lengthAdjust="spacing" textLength="124" x="36" y="110.6426">+OrderType : string</text><text fill="#000000" font-family="sans-serif" font-size="14" lengthAdjust="spacing" textLength="95" x="36" y="128.252">+Company : int</text><text fill="#000000" font-family="sans-serif" font-size="14" lengthAdjust="spacing" textLength="104" x="36" y="145.8613">+supplier_id : int</text><text fill="#000000" font-family="sans-serif" font-size="14" lengthAdjust="spacing" textLength="147" x="36" y="163.4707">+RequestedDate : date</text><text fill="#000000" font-family="sans-serif" font-size="14" lengthAdjust="spacing" textLength="115" x="36" y="181.0801">+OrderDate : date</text><text fill="#000000" font-family="sans-serif" font-size="14" lengthAdjust="spacing" textLength="171" x="36" y="198.6895">+ScheduledPickDate : date</text><text fill="#000000" font-family="sans-serif" font-size="14" lengthAdjust="spacing" textLength="145" x="36" y="216.2988">+ActualShipDate : date</text><text fill="#000000" font-family="sans-serif" font-size="14" lengthAdjust="spacing" textLength="122" x="36" y="233.9082">+CancelDate : date</text><text fill="#000000" font-family="sans-serif" font-size="14" lengthAdjust="spacing" textLength="145" x="36" y="251.5176">+Date_Received : date</text><text fill="#000000" font-family="sans-serif" font-size="14" lengthAdjust="spacing" textLength="164" x="36" y="269.127">+PriceEffectiveDate : date</text><text fill="#000000" font-family="sans-serif" font-size="14" lengthAdjust="spacing" textLength="196" x="36" y="286.7363">+PromisedShipmentDate : date</text><text fill="#000000" font-family="sans-serif" font-size="14" lengthAdjust="spacing" textLength="104" x="36" y="304.3457">+Remark : string</text><text fill="#000000" font-family="sans-serif" font-size="14" lengthAdjust="spacing" textLength="186" x="36" y="321.9551">+OrderGrossAmount : double</text><text fill="#000000" font-family="sans-serif" font-size="14" lengthAdjust="spacing" textLength="148" x="36" y="339.5645">+CurrencyMode : string</text><text fill="#000000" font-family="sans-serif" font-size="14" lengthAdjust="spacing" textLength="195" x="36" y="357.1738">+ForeignOpenAmount : double</text><text fill="#000000" font-family="sans-serif" font-size="14" lengthAdjust="spacing" textLength="93" x="36" y="374.7832">+status : string</text><line style="stroke:#181818;stroke-width:0.5;" x1="31" x2="237" y1="381.8594" y2="381.8594"/><text fill="#000000" font-family="sans-serif" font-size="14" lengthAdjust="spacing" textLength="96" x="36" y="400.3926">+create() : void</text><text fill="#000000" font-family="sans-serif" font-size="14" lengthAdjust="spacing" textLength="100" x="36" y="418.002">+update() : void</text><text fill="#000000" font-family="sans-serif" font-size="14" lengthAdjust="spacing" textLength="95" x="36" y="435.6113">+delete() : void</text></g><!--class PurchaseOrderDetail--><g id="elem_PurchaseOrderDetail"><rect codeLine="76" fill="#F1F1F1" height="470.625" id="PurchaseOrderDetail" rx="2.5" ry="2.5" style="stroke:#181818;stroke-width:0.5;" width="208" x="324" y="7"/><ellipse cx="358.35" cy="23" fill="#ADD1B2" rx="11" ry="11" style="stroke:#181818;stroke-width:1.0;"/><path d="M361.1156,18.875 Q361.2719,18.6563 361.4594,18.5469 Q361.6469,18.4375 361.8656,18.4375 Q362.2406,18.4375 362.475,18.7031 Q362.7094,18.9531 362.7094,19.5625 L362.7094,21.0156 Q362.7094,21.625 362.475,21.8906 Q362.2406,22.1563 361.8656,22.1563 Q361.5219,22.1563 361.3188,21.9531 Q361.1156,21.7656 361.0063,21.25 Q360.9594,20.8906 360.7719,20.7031 Q360.4438,20.3281 359.8344,20.1094 Q359.225,19.8906 358.6,19.8906 Q357.8344,19.8906 357.1938,20.2188 Q356.5688,20.5469 356.0688,21.2969 Q355.5844,22.0469 355.5844,23.0781 L355.5844,24.1719 Q355.5844,25.4063 356.475,26.2344 Q357.3656,27.0469 358.9594,27.0469 Q359.8969,27.0469 360.5531,26.7969 Q360.9438,26.6406 361.3656,26.2031 Q361.6313,25.9375 361.7719,25.8594 Q361.9281,25.7813 362.1313,25.7813 Q362.4594,25.7813 362.7094,26.0469 Q362.975,26.2969 362.975,26.6406 Q362.975,26.9844 362.6313,27.3906 Q362.1313,27.9688 361.3344,28.2969 Q360.2563,28.75 358.9594,28.75 Q357.4438,28.75 356.2406,28.125 Q355.2563,27.625 354.5688,26.5625 Q353.8813,25.4844 353.8813,24.2031 L353.8813,23.0469 Q353.8813,21.7188 354.4906,20.5781 Q355.1156,19.4219 356.2094,18.8125 Q357.3031,18.1875 358.5375,18.1875 Q359.2719,18.1875 359.9125,18.3594 Q360.5688,18.5156 361.1156,18.875 Z " fill="#000000"/><text fill="#000000" font-family="sans-serif" font-size="14" lengthAdjust="spacing" textLength="133" x="376.65" y="28.7285">PurchaseOrderDetail</text><line style="stroke:#181818;stroke-width:0.5;" x1="325" x2="531" y1="39" y2="39"/><text fill="#000000" font-family="sans-serif" font-size="14" lengthAdjust="spacing" textLength="124" x="330" y="57.5332">+OrderNo : int &#171;pk&#187;</text><text fill="#000000" font-family="sans-serif" font-size="14" lengthAdjust="spacing" textLength="159" x="330" y="75.1426">+OrderType : string &#171;pk&#187;</text><text fill="#000000" font-family="sans-serif" font-size="14" lengthAdjust="spacing" textLength="95" x="330" y="92.752">+Company : int</text><text fill="#000000" font-family="sans-serif" font-size="14" lengthAdjust="spacing" textLength="79" x="330" y="110.3613">+LineNo : int</text><text fill="#000000" font-family="sans-serif" font-size="14" lengthAdjust="spacing" textLength="74" x="330" y="127.9707">+ItemID : int</text><text fill="#000000" font-family="sans-serif" font-size="14" lengthAdjust="spacing" textLength="104" x="330" y="145.5801">+supplier_id : int</text><text fill="#000000" font-family="sans-serif" font-size="14" lengthAdjust="spacing" textLength="147" x="330" y="163.1895">+RequestedDate : date</text><text fill="#000000" font-family="sans-serif" font-size="14" lengthAdjust="spacing" textLength="145" x="330" y="180.7988">+Date_Received : date</text><text fill="#000000" font-family="sans-serif" font-size="14" lengthAdjust="spacing" textLength="115" x="330" y="198.4082">+OrderDate : date</text><text fill="#000000" font-family="sans-serif" font-size="14" lengthAdjust="spacing" textLength="171" x="330" y="216.0176">+ScheduledPickDate : date</text><text fill="#000000" font-family="sans-serif" font-size="14" lengthAdjust="spacing" textLength="145" x="330" y="233.627">+ActualShipDate : date</text><text fill="#000000" font-family="sans-serif" font-size="14" lengthAdjust="spacing" textLength="122" x="330" y="251.2363">+CancelDate : date</text><text fill="#000000" font-family="sans-serif" font-size="14" lengthAdjust="spacing" textLength="196" x="330" y="268.8457">+PromisedShipmentDate : date</text><text fill="#000000" font-family="sans-serif" font-size="14" lengthAdjust="spacing" textLength="104" x="330" y="286.4551">+Remark : string</text><text fill="#000000" font-family="sans-serif" font-size="14" lengthAdjust="spacing" textLength="88" x="330" y="304.0645">+Quantity : int</text><text fill="#000000" font-family="sans-serif" font-size="14" lengthAdjust="spacing" textLength="81" x="330" y="321.6738">+Unit : String</text><text fill="#000000" font-family="sans-serif" font-size="14" lengthAdjust="spacing" textLength="100" x="330" y="339.2832">+UnitCost : float</text><text fill="#000000" font-family="sans-serif" font-size="14" lengthAdjust="spacing" textLength="186" x="330" y="356.8926">+OrderGrossAmount : double</text><text fill="#000000" font-family="sans-serif" font-size="14" lengthAdjust="spacing" textLength="148" x="330" y="374.502">+CurrencyMode : string</text><text fill="#000000" font-family="sans-serif" font-size="14" lengthAdjust="spacing" textLength="160" x="330" y="392.1113">+ForeignAmount : double</text><text fill="#000000" font-family="sans-serif" font-size="14" lengthAdjust="spacing" textLength="93" x="330" y="409.7207">+status : string</text><line style="stroke:#181818;stroke-width:0.5;" x1="325" x2="531" y1="416.7969" y2="416.7969"/><text fill="#000000" font-family="sans-serif" font-size="14" lengthAdjust="spacing" textLength="96" x="330" y="435.3301">+create() : void</text><text fill="#000000" font-family="sans-serif" font-size="14" lengthAdjust="spacing" textLength="100" x="330" y="452.9395">+update() : void</text><text fill="#000000" font-family="sans-serif" font-size="14" lengthAdjust="spacing" textLength="95" x="330" y="470.5488">+delete() : void</text></g><!--reverse link Inventory to Item--><g id="link_Inventory_Item"><path codeLine="104" d="M428,828.25 C428,850.05 428,872.19 428,892.91 " fill="none" id="Inventory-backto-Item" style="stroke:#181818;stroke-width:1.0;"/><polygon fill="#181818" points="428,815.1,424,821.1,428,827.1,432,821.1,428,815.1" style="stroke:#181818;stroke-width:1.0;"/><text fill="#000000" font-family="sans-serif" font-size="13" lengthAdjust="spacing" textLength="29" x="429" y="859.4951">store</text><text fill="#000000" font-family="sans-serif" font-size="13" lengthAdjust="spacing" textLength="18" x="409.4516" y="836.9813">1,1</text><text fill="#000000" font-family="sans-serif" font-size="13" lengthAdjust="spacing" textLength="18" x="409.3391" y="882.2421">1,1</text></g><!--link Inventory to StockTransactions--><g id="link_Inventory_StockTransactions"><path codeLine="105" d="M527.52,685.5 C556.7,685.5 588.59,685.5 617.7,685.5 " fill="none" id="Inventory-to-StockTransactions" style="stroke:#181818;stroke-width:1.0;"/><polygon fill="none" points="630.86,685.5,624.86,681.5,618.86,685.5,624.86,689.5,630.86,685.5" style="stroke:#181818;stroke-width:1.0;"/><text fill="#000000" font-family="sans-serif" font-size="13" lengthAdjust="spacing" textLength="67" x="545.75" y="678.9951">Transaction</text><text fill="#000000" font-family="sans-serif" font-size="13" lengthAdjust="spacing" textLength="18" x="535.6363" y="699.5841">1,1</text><text fill="#000000" font-family="sans-serif" font-size="13" lengthAdjust="spacing" textLength="16" x="602.9812" y="699.6683">1,*</text></g><!--link PurchaseOrderHeader to PurchaseOrderDetail--><g id="link_PurchaseOrderHeader_PurchaseOrderDetail"><path codeLine="106" d="M238.07,242.5 C261.48,242.5 286.49,242.5 310.41,242.5 " fill="none" id="PurchaseOrderHeader-to-PurchaseOrderDetail" style="stroke:#181818;stroke-width:1.0;"/><polygon fill="#181818" points="323.58,242.5,317.58,238.5,311.58,242.5,317.58,246.5,323.58,242.5" style="stroke:#181818;stroke-width:1.0;"/><text fill="#000000" font-family="sans-serif" font-size="13" lengthAdjust="spacing" textLength="49" x="256.5" y="235.9951">contains</text><text fill="#000000" font-family="sans-serif" font-size="13" lengthAdjust="spacing" textLength="18" x="246.1609" y="256.5634">1,1</text><text fill="#000000" font-family="sans-serif" font-size="13" lengthAdjust="spacing" textLength="16" x="295.8924" y="256.557">1,*</text></g><!--link PurchaseOrderHeader to SupplierMaster--><g id="link_PurchaseOrderHeader_SupplierMaster"><path codeLine="107" d="M134,442.71 C134,483.45 134,525.16 134,562.22 " fill="none" id="PurchaseOrderHeader-to-SupplierMaster" style="stroke:#181818;stroke-width:1.0;"/><polygon fill="none" points="141,562.29,134,582.29,127,562.29,141,562.29" style="stroke:#181818;stroke-width:1.0;"/><text fill="#000000" font-family="sans-serif" font-size="13" lengthAdjust="spacing" textLength="62" x="135" y="522.4951">supplier_id</text></g><!--reverse link PurchaseOrderDetail to Inventory--><g id="link_PurchaseOrderDetail_Inventory"><path codeLine="108" d="M428,491.28 C428,513.44 428,535.22 428,555.72 " fill="none" id="PurchaseOrderDetail-backto-Inventory" style="stroke:#181818;stroke-width:1.0;"/><polygon fill="none" points="428,478.2,424,484.2,428,490.2,432,484.2,428,478.2" style="stroke:#181818;stroke-width:1.0;"/><text fill="#000000" font-family="sans-serif" font-size="13" lengthAdjust="spacing" textLength="62" x="429" y="522.4951">warehouse</text><text fill="#000000" font-family="sans-serif" font-size="13" lengthAdjust="spacing" textLength="16" x="407.7031" y="498.9407">1,*</text><text fill="#000000" font-family="sans-serif" font-size="13" lengthAdjust="spacing" textLength="18" x="405.3641" y="545.2508">1,1</text></g><!--SRC=[rLR9Rjim4BthAuYSdBG6cgjW10ZiBaRZnhMJSy2GOvkGHAfSNBZBltUedPAIGre4g4_oUpF3uUFJK2OHCgUQPYIdBA5xsDfJ2aG3irJkKuXC4y1IQiorjLeyEWjBfkHM_03oBYe8ihIG_Om8_jxunoMFYS5OkIUpMPvSNRNK0WpJ8hT2oJgc9E-biB02upJ4X2ltYEitMNUd7C9mGZdtp0IpihXeu3mcHoLunMl8r16QaEKY9aBQCCRbd5fujimUx4WD3xK1rsdg0JD1vaOOE_F_hgBVKQsEF8AqIfz8fL6HxwkDY4I-EYgjiATYhGhpuioLiQ4ov4vPcexWtwc6WtAchvaObzB3Aw2bzF-ToAN6MwjOSgUfD9HvSvb2QvIeXQhAhThjEPHA1z4zdORdyeRqb0_I4STTMv6LpBq1tLreaoL1SHIwapmvBq0EALW8ySPKMvVdgG2zeiQ2hfrbAlH1y7gpwy-rjHfIqgntqWs5ZMWmvWaMttkBhJp1GaP56d9C0yem2OuR8JxfDueHuOxAsD8yONufIuFL3bWxpGxKmAtce3_X6gqgfC2-AD8pG4FvmoOzxyzLbbDv8jttiDDrW6_WcmFicY-mMrAUVRV-4Dwo0t2N0byBbWpfQsOTJRS7aG-vEPKCqY7kaOSDC117u26rreB1-zqE9pkImzIrLfammFs26SwgOSG63rSdVOsApNtK2k-6J3cKjZU8vavhaEoqKdoWxmUbGUpbRGvoFDbOQftffzME8YD3fe_MJY6DLSQyiW2BldsPLq9-p38tGa9TBPZ-VskiPuxxzJptKkFKmvJqRpa4jjt0-kP3V9SgQl-TyLxHT57x1N1s-VRoZ5nCfzMJzq9ia89eU8Nvc0joHjGqXPqjK_1lKotktZZHcAch0XTLWRh2oAoCIJ7S1IuRzUwMsQ-fop5vDAlZtESwKDDszKx_pPSA8T4V]--></g></svg>