<?xml version="1.0" encoding="us-ascii" standalone="no"?><svg xmlns="http://www.w3.org/2000/svg" xmlns:xlink="http://www.w3.org/1999/xlink" contentStyleType="text/css" height="806px" preserveAspectRatio="none" style="width:716px;height:806px;background:#FFFFFF;" version="1.1" viewBox="0 0 716 806" width="716px" zoomAndPan="magnify"><defs/><g><!--class ProductionHeader--><g id="elem_ProductionHeader"><rect codeLine="5" fill="#F1F1F1" height="206.4844" id="ProductionHeader" rx="2.5" ry="2.5" style="stroke:#181818;stroke-width:0.5;" width="189" x="12" y="353"/><ellipse cx="46.35" cy="369" fill="#ADD1B2" rx="11" ry="11" style="stroke:#181818;stroke-width:1.0;"/><path d="M49.1156,364.875 Q49.2719,364.6563 49.4594,364.5469 Q49.6469,364.4375 49.8656,364.4375 Q50.2406,364.4375 50.475,364.7031 Q50.7094,364.9531 50.7094,365.5625 L50.7094,367.0156 Q50.7094,367.625 50.475,367.8906 Q50.2406,368.1563 49.8656,368.1563 Q49.5219,368.1563 49.3188,367.9531 Q49.1156,367.7656 49.0063,367.25 Q48.9594,366.8906 48.7719,366.7031 Q48.4438,366.3281 47.8344,366.1094 Q47.225,365.8906 46.6,365.8906 Q45.8344,365.8906 45.1938,366.2188 Q44.5688,366.5469 44.0688,367.2969 Q43.5844,368.0469 43.5844,369.0781 L43.5844,370.1719 Q43.5844,371.4063 44.475,372.2344 Q45.3656,373.0469 46.9594,373.0469 Q47.8969,373.0469 48.5531,372.7969 Q48.9438,372.6406 49.3656,372.2031 Q49.6313,371.9375 49.7719,371.8594 Q49.9281,371.7813 50.1313,371.7813 Q50.4594,371.7813 50.7094,372.0469 Q50.975,372.2969 50.975,372.6406 Q50.975,372.9844 50.6313,373.3906 Q50.1313,373.9688 49.3344,374.2969 Q48.2563,374.75 46.9594,374.75 Q45.4438,374.75 44.2406,374.125 Q43.2563,373.625 42.5688,372.5625 Q41.8813,371.4844 41.8813,370.2031 L41.8813,369.0469 Q41.8813,367.7188 42.4906,366.5781 Q43.1156,365.4219 44.2094,364.8125 Q45.3031,364.1875 46.5375,364.1875 Q47.2719,364.1875 47.9125,364.3594 Q48.5688,364.5156 49.1156,364.875 Z " fill="#000000"/><text fill="#000000" font-family="sans-serif" font-size="14" lengthAdjust="spacing" textLength="114" x="64.65" y="374.7285">ProductionHeader</text><line style="stroke:#181818;stroke-width:0.5;" x1="13" x2="200" y1="385" y2="385"/><text fill="#000000" font-family="sans-serif" font-size="14" lengthAdjust="spacing" textLength="108" x="18" y="403.5332">+Lot_Id: int &#171;PK&#187;</text><text fill="#000000" font-family="sans-serif" font-size="14" lengthAdjust="spacing" textLength="107" x="18" y="421.1426">+Lot_number: int</text><text fill="#000000" font-family="sans-serif" font-size="14" lengthAdjust="spacing" textLength="138" x="18" y="438.752">+ProducedItem: string</text><text fill="#000000" font-family="sans-serif" font-size="14" lengthAdjust="spacing" textLength="177" x="18" y="456.3613">+Estimated_Amount: double</text><text fill="#000000" font-family="sans-serif" font-size="14" lengthAdjust="spacing" textLength="104" x="18" y="473.9707">+StartDate: date</text><text fill="#000000" font-family="sans-serif" font-size="14" lengthAdjust="spacing" textLength="169" x="18" y="491.5801">+Estimated_EndDate: date</text><text fill="#000000" font-family="sans-serif" font-size="14" lengthAdjust="spacing" textLength="108" x="18" y="509.1895">+Surface: double</text><text fill="#000000" font-family="sans-serif" font-size="14" lengthAdjust="spacing" textLength="139" x="18" y="526.7988">+CurrentStatus: string</text><text fill="#000000" font-family="sans-serif" font-size="14" lengthAdjust="spacing" textLength="122" x="18" y="544.4082">+FinalStatus: string</text><line style="stroke:#181818;stroke-width:0.5;" x1="13" x2="200" y1="551.4844" y2="551.4844"/></g><!--class ProductionDetail--><g id="elem_ProductionDetail"><rect codeLine="16" fill="#F1F1F1" height="224.0938" id="ProductionDetail" rx="2.5" ry="2.5" style="stroke:#181818;stroke-width:0.5;" width="189" x="287" y="344"/><ellipse cx="325.85" cy="360" fill="#ADD1B2" rx="11" ry="11" style="stroke:#181818;stroke-width:1.0;"/><path d="M328.6156,355.875 Q328.7719,355.6563 328.9594,355.5469 Q329.1469,355.4375 329.3656,355.4375 Q329.7406,355.4375 329.975,355.7031 Q330.2094,355.9531 330.2094,356.5625 L330.2094,358.0156 Q330.2094,358.625 329.975,358.8906 Q329.7406,359.1563 329.3656,359.1563 Q329.0219,359.1563 328.8188,358.9531 Q328.6156,358.7656 328.5063,358.25 Q328.4594,357.8906 328.2719,357.7031 Q327.9438,357.3281 327.3344,357.1094 Q326.725,356.8906 326.1,356.8906 Q325.3344,356.8906 324.6938,357.2188 Q324.0688,357.5469 323.5688,358.2969 Q323.0844,359.0469 323.0844,360.0781 L323.0844,361.1719 Q323.0844,362.4063 323.975,363.2344 Q324.8656,364.0469 326.4594,364.0469 Q327.3969,364.0469 328.0531,363.7969 Q328.4438,363.6406 328.8656,363.2031 Q329.1313,362.9375 329.2719,362.8594 Q329.4281,362.7813 329.6313,362.7813 Q329.9594,362.7813 330.2094,363.0469 Q330.475,363.2969 330.475,363.6406 Q330.475,363.9844 330.1313,364.3906 Q329.6313,364.9688 328.8344,365.2969 Q327.7563,365.75 326.4594,365.75 Q324.9438,365.75 323.7406,365.125 Q322.7563,364.625 322.0688,363.5625 Q321.3813,362.4844 321.3813,361.2031 L321.3813,360.0469 Q321.3813,358.7188 321.9906,357.5781 Q322.6156,356.4219 323.7094,355.8125 Q324.8031,355.1875 326.0375,355.1875 Q326.7719,355.1875 327.4125,355.3594 Q328.0688,355.5156 328.6156,355.875 Z " fill="#000000"/><text fill="#000000" font-family="sans-serif" font-size="14" lengthAdjust="spacing" textLength="104" x="345.15" y="365.7285">ProductionDetail</text><line style="stroke:#181818;stroke-width:0.5;" x1="288" x2="475" y1="376" y2="376"/><text fill="#000000" font-family="sans-serif" font-size="14" lengthAdjust="spacing" textLength="108" x="293" y="394.5332">+Lot_Id: int &#171;PK&#187;</text><text fill="#000000" font-family="sans-serif" font-size="14" lengthAdjust="spacing" textLength="113" x="293" y="412.1426">+LineNo: int &#171;PK&#187;</text><text fill="#000000" font-family="sans-serif" font-size="14" lengthAdjust="spacing" textLength="88" x="293" y="429.752">+Lot_number:</text><text fill="#000000" font-family="sans-serif" font-size="14" lengthAdjust="spacing" textLength="70" x="293" y="447.3613">+ItemID: int</text><text fill="#000000" font-family="sans-serif" font-size="14" lengthAdjust="spacing" textLength="154" x="293" y="464.9707">+Estimated_Quantity: int</text><text fill="#000000" font-family="sans-serif" font-size="14" lengthAdjust="spacing" textLength="121" x="293" y="482.5801">+Real_Quantity: int</text><text fill="#000000" font-family="sans-serif" font-size="14" lengthAdjust="spacing" textLength="177" x="293" y="500.1895">+Estimated_Amount: double</text><text fill="#000000" font-family="sans-serif" font-size="14" lengthAdjust="spacing" textLength="144" x="293" y="517.7988">+Real_Amount: double</text><text fill="#000000" font-family="sans-serif" font-size="14" lengthAdjust="spacing" textLength="112" x="293" y="535.4082">+Start_Date: date</text><text fill="#000000" font-family="sans-serif" font-size="14" lengthAdjust="spacing" textLength="107" x="293" y="553.0176">+End_Date: date</text><line style="stroke:#181818;stroke-width:0.5;" x1="288" x2="475" y1="560.0938" y2="560.0938"/></g><!--class ProductionStatus--><g id="elem_ProductionStatus"><rect codeLine="28" fill="#F1F1F1" height="153.6563" id="ProductionStatus" rx="2.5" ry="2.5" style="stroke:#181818;stroke-width:0.5;" width="140" x="36.5" y="646"/><ellipse cx="51.5" cy="662" fill="#ADD1B2" rx="11" ry="11" style="stroke:#181818;stroke-width:1.0;"/><path d="M54.2656,657.875 Q54.4219,657.6563 54.6094,657.5469 Q54.7969,657.4375 55.0156,657.4375 Q55.3906,657.4375 55.625,657.7031 Q55.8594,657.9531 55.8594,658.5625 L55.8594,660.0156 Q55.8594,660.625 55.625,660.8906 Q55.3906,661.1563 55.0156,661.1563 Q54.6719,661.1563 54.4688,660.9531 Q54.2656,660.7656 54.1563,660.25 Q54.1094,659.8906 53.9219,659.7031 Q53.5938,659.3281 52.9844,659.1094 Q52.375,658.8906 51.75,658.8906 Q50.9844,658.8906 50.3438,659.2188 Q49.7188,659.5469 49.2188,660.2969 Q48.7344,661.0469 48.7344,662.0781 L48.7344,663.1719 Q48.7344,664.4063 49.625,665.2344 Q50.5156,666.0469 52.1094,666.0469 Q53.0469,666.0469 53.7031,665.7969 Q54.0938,665.6406 54.5156,665.2031 Q54.7813,664.9375 54.9219,664.8594 Q55.0781,664.7813 55.2813,664.7813 Q55.6094,664.7813 55.8594,665.0469 Q56.125,665.2969 56.125,665.6406 Q56.125,665.9844 55.7813,666.3906 Q55.2813,666.9688 54.4844,667.2969 Q53.4063,667.75 52.1094,667.75 Q50.5938,667.75 49.3906,667.125 Q48.4063,666.625 47.7188,665.5625 Q47.0313,664.4844 47.0313,663.2031 L47.0313,662.0469 Q47.0313,660.7188 47.6406,659.5781 Q48.2656,658.4219 49.3594,657.8125 Q50.4531,657.1875 51.6875,657.1875 Q52.4219,657.1875 53.0625,657.3594 Q53.7188,657.5156 54.2656,657.875 Z " fill="#000000"/><text fill="#000000" font-family="sans-serif" font-size="14" lengthAdjust="spacing" textLength="108" x="65.5" y="667.7285">ProductionStatus</text><line style="stroke:#181818;stroke-width:0.5;" x1="37.5" x2="175.5" y1="678" y2="678"/><text fill="#000000" font-family="sans-serif" font-size="14" lengthAdjust="spacing" textLength="108" x="42.5" y="696.5332">+Lot_Id: int &#171;PK&#187;</text><text fill="#000000" font-family="sans-serif" font-size="14" lengthAdjust="spacing" textLength="113" x="42.5" y="714.1426">+LineNo: int &#171;PK&#187;</text><text fill="#000000" font-family="sans-serif" font-size="14" lengthAdjust="spacing" textLength="107" x="42.5" y="731.752">+Lot_number: int</text><text fill="#000000" font-family="sans-serif" font-size="14" lengthAdjust="spacing" textLength="91" x="42.5" y="749.3613">+Status: string</text><text fill="#000000" font-family="sans-serif" font-size="14" lengthAdjust="spacing" textLength="112" x="42.5" y="766.9707">+Start_Date: date</text><text fill="#000000" font-family="sans-serif" font-size="14" lengthAdjust="spacing" textLength="107" x="42.5" y="784.5801">+End_Date: date</text><line style="stroke:#181818;stroke-width:0.5;" x1="37.5" x2="175.5" y1="791.6563" y2="791.6563"/></g><!--class ItemPDetail--><g id="elem_ItemPDetail"><rect codeLine="36" fill="#F1F1F1" height="206.4844" id="ItemPDetail" rx="2.5" ry="2.5" style="stroke:#181818;stroke-width:0.5;" width="199" x="7" y="33.5"/><ellipse cx="66.75" cy="49.5" fill="#ADD1B2" rx="11" ry="11" style="stroke:#181818;stroke-width:1.0;"/><path d="M69.5156,45.375 Q69.6719,45.1563 69.8594,45.0469 Q70.0469,44.9375 70.2656,44.9375 Q70.6406,44.9375 70.875,45.2031 Q71.1094,45.4531 71.1094,46.0625 L71.1094,47.5156 Q71.1094,48.125 70.875,48.3906 Q70.6406,48.6563 70.2656,48.6563 Q69.9219,48.6563 69.7188,48.4531 Q69.5156,48.2656 69.4063,47.75 Q69.3594,47.3906 69.1719,47.2031 Q68.8438,46.8281 68.2344,46.6094 Q67.625,46.3906 67,46.3906 Q66.2344,46.3906 65.5938,46.7188 Q64.9688,47.0469 64.4688,47.7969 Q63.9844,48.5469 63.9844,49.5781 L63.9844,50.6719 Q63.9844,51.9063 64.875,52.7344 Q65.7656,53.5469 67.3594,53.5469 Q68.2969,53.5469 68.9531,53.2969 Q69.3438,53.1406 69.7656,52.7031 Q70.0313,52.4375 70.1719,52.3594 Q70.3281,52.2813 70.5313,52.2813 Q70.8594,52.2813 71.1094,52.5469 Q71.375,52.7969 71.375,53.1406 Q71.375,53.4844 71.0313,53.8906 Q70.5313,54.4688 69.7344,54.7969 Q68.6563,55.25 67.3594,55.25 Q65.8438,55.25 64.6406,54.625 Q63.6563,54.125 62.9688,53.0625 Q62.2813,51.9844 62.2813,50.7031 L62.2813,49.5469 Q62.2813,48.2188 62.8906,47.0781 Q63.5156,45.9219 64.6094,45.3125 Q65.7031,44.6875 66.9375,44.6875 Q67.6719,44.6875 68.3125,44.8594 Q68.9688,45.0156 69.5156,45.375 Z " fill="#000000"/><text fill="#000000" font-family="sans-serif" font-size="14" lengthAdjust="spacing" textLength="71" x="87.25" y="55.2285">ItemPDetail</text><line style="stroke:#181818;stroke-width:0.5;" x1="8" x2="205" y1="65.5" y2="65.5"/><text fill="#000000" font-family="sans-serif" font-size="14" lengthAdjust="spacing" textLength="108" x="13" y="84.0332">+Lot_Id: int &#171;PK&#187;</text><text fill="#000000" font-family="sans-serif" font-size="14" lengthAdjust="spacing" textLength="113" x="13" y="101.6426">+LineNo: int &#171;PK&#187;</text><text fill="#000000" font-family="sans-serif" font-size="14" lengthAdjust="spacing" textLength="142" x="13" y="119.252">+ProducedItem : string</text><text fill="#000000" font-family="sans-serif" font-size="14" lengthAdjust="spacing" textLength="149" x="13" y="136.8613">+ComposedItem : string</text><text fill="#000000" font-family="sans-serif" font-size="14" lengthAdjust="spacing" textLength="134" x="13" y="154.4707">+UniteMesure : string</text><line style="stroke:#181818;stroke-width:0.5;" x1="8" x2="205" y1="161.5469" y2="161.5469"/><text fill="#000000" font-family="sans-serif" font-size="14" lengthAdjust="spacing" textLength="162" x="13" y="180.0801">+addItem(item: Item): void</text><text fill="#000000" font-family="sans-serif" font-size="14" lengthAdjust="spacing" textLength="187" x="13" y="197.6895">+removeItem(itemID: int): void</text><text fill="#000000" font-family="sans-serif" font-size="14" lengthAdjust="spacing" textLength="182" x="13" y="215.2988">+updateItem(item: Item): void</text><text fill="#000000" font-family="sans-serif" font-size="14" lengthAdjust="spacing" textLength="160" x="13" y="232.9082">+getItem(itemID: int): Item</text></g><!--class IndirectProductionExp--><g id="elem_IndirectProductionExp"><rect codeLine="47" fill="#F1F1F1" height="259.3125" id="IndirectProductionExp" rx="2.5" ry="2.5" style="stroke:#181818;stroke-width:0.5;" width="182" x="397.5" y="7"/><ellipse cx="418.35" cy="23" fill="#ADD1B2" rx="11" ry="11" style="stroke:#181818;stroke-width:1.0;"/><path d="M421.1156,18.875 Q421.2719,18.6563 421.4594,18.5469 Q421.6469,18.4375 421.8656,18.4375 Q422.2406,18.4375 422.475,18.7031 Q422.7094,18.9531 422.7094,19.5625 L422.7094,21.0156 Q422.7094,21.625 422.475,21.8906 Q422.2406,22.1563 421.8656,22.1563 Q421.5219,22.1563 421.3188,21.9531 Q421.1156,21.7656 421.0063,21.25 Q420.9594,20.8906 420.7719,20.7031 Q420.4438,20.3281 419.8344,20.1094 Q419.225,19.8906 418.6,19.8906 Q417.8344,19.8906 417.1938,20.2188 Q416.5688,20.5469 416.0688,21.2969 Q415.5844,22.0469 415.5844,23.0781 L415.5844,24.1719 Q415.5844,25.4063 416.475,26.2344 Q417.3656,27.0469 418.9594,27.0469 Q419.8969,27.0469 420.5531,26.7969 Q420.9438,26.6406 421.3656,26.2031 Q421.6313,25.9375 421.7719,25.8594 Q421.9281,25.7813 422.1313,25.7813 Q422.4594,25.7813 422.7094,26.0469 Q422.975,26.2969 422.975,26.6406 Q422.975,26.9844 422.6313,27.3906 Q422.1313,27.9688 421.3344,28.2969 Q420.2563,28.75 418.9594,28.75 Q417.4438,28.75 416.2406,28.125 Q415.2563,27.625 414.5688,26.5625 Q413.8813,25.4844 413.8813,24.2031 L413.8813,23.0469 Q413.8813,21.7188 414.4906,20.5781 Q415.1156,19.4219 416.2094,18.8125 Q417.3031,18.1875 418.5375,18.1875 Q419.2719,18.1875 419.9125,18.3594 Q420.5688,18.5156 421.1156,18.875 Z " fill="#000000"/><text fill="#000000" font-family="sans-serif" font-size="14" lengthAdjust="spacing" textLength="137" x="433.65" y="28.7285">IndirectProductionExp</text><line style="stroke:#181818;stroke-width:0.5;" x1="398.5" x2="578.5" y1="39" y2="39"/><text fill="#000000" font-family="sans-serif" font-size="14" lengthAdjust="spacing" textLength="108" x="403.5" y="57.5332">+Lot_Id: int &#171;PK&#187;</text><text fill="#000000" font-family="sans-serif" font-size="14" lengthAdjust="spacing" textLength="113" x="403.5" y="75.1426">+LineNo: int &#171;PK&#187;</text><text fill="#000000" font-family="sans-serif" font-size="14" lengthAdjust="spacing" textLength="107" x="403.5" y="92.752">+Lot_number: int</text><text fill="#000000" font-family="sans-serif" font-size="14" lengthAdjust="spacing" textLength="99" x="403.5" y="110.3613">+IdImmo : string</text><text fill="#000000" font-family="sans-serif" font-size="14" lengthAdjust="spacing" textLength="126" x="403.5" y="127.9707">+Description : string</text><text fill="#000000" font-family="sans-serif" font-size="14" lengthAdjust="spacing" textLength="152" x="403.5" y="145.5801">+UniteDeMesure : string</text><text fill="#000000" font-family="sans-serif" font-size="14" lengthAdjust="spacing" textLength="116" x="403.5" y="163.1895">+UnitCost : double</text><text fill="#000000" font-family="sans-serif" font-size="14" lengthAdjust="spacing" textLength="88" x="403.5" y="180.7988">+Quantity : int</text><text fill="#000000" font-family="sans-serif" font-size="14" lengthAdjust="spacing" textLength="111" x="403.5" y="198.4082">+Amount : double</text><line style="stroke:#181818;stroke-width:0.5;" x1="398.5" x2="578.5" y1="205.4844" y2="205.4844"/><text fill="#000000" font-family="sans-serif" font-size="14" lengthAdjust="spacing" textLength="103" x="403.5" y="224.0176">+addLine(): void</text><text fill="#000000" font-family="sans-serif" font-size="14" lengthAdjust="spacing" textLength="170" x="403.5" y="241.627">+removeLine(LineNo): void</text><text fill="#000000" font-family="sans-serif" font-size="14" lengthAdjust="spacing" textLength="167" x="403.5" y="259.2363">+updateLine(LineNo): void</text></g><!--class Immo--><g id="elem_Immo"><rect codeLine="64" fill="#F1F1F1" height="224.0938" id="Immo" rx="2.5" ry="2.5" style="stroke:#181818;stroke-width:0.5;" width="198" x="511.5" y="344"/><ellipse cx="589.75" cy="360" fill="#ADD1B2" rx="11" ry="11" style="stroke:#181818;stroke-width:1.0;"/><path d="M592.5156,355.875 Q592.6719,355.6563 592.8594,355.5469 Q593.0469,355.4375 593.2656,355.4375 Q593.6406,355.4375 593.875,355.7031 Q594.1094,355.9531 594.1094,356.5625 L594.1094,358.0156 Q594.1094,358.625 593.875,358.8906 Q593.6406,359.1563 593.2656,359.1563 Q592.9219,359.1563 592.7188,358.9531 Q592.5156,358.7656 592.4063,358.25 Q592.3594,357.8906 592.1719,357.7031 Q591.8438,357.3281 591.2344,357.1094 Q590.625,356.8906 590,356.8906 Q589.2344,356.8906 588.5938,357.2188 Q587.9688,357.5469 587.4688,358.2969 Q586.9844,359.0469 586.9844,360.0781 L586.9844,361.1719 Q586.9844,362.4063 587.875,363.2344 Q588.7656,364.0469 590.3594,364.0469 Q591.2969,364.0469 591.9531,363.7969 Q592.3438,363.6406 592.7656,363.2031 Q593.0313,362.9375 593.1719,362.8594 Q593.3281,362.7813 593.5313,362.7813 Q593.8594,362.7813 594.1094,363.0469 Q594.375,363.2969 594.375,363.6406 Q594.375,363.9844 594.0313,364.3906 Q593.5313,364.9688 592.7344,365.2969 Q591.6563,365.75 590.3594,365.75 Q588.8438,365.75 587.6406,365.125 Q586.6563,364.625 585.9688,363.5625 Q585.2813,362.4844 585.2813,361.2031 L585.2813,360.0469 Q585.2813,358.7188 585.8906,357.5781 Q586.5156,356.4219 587.6094,355.8125 Q588.7031,355.1875 589.9375,355.1875 Q590.6719,355.1875 591.3125,355.3594 Q591.9688,355.5156 592.5156,355.875 Z " fill="#000000"/><text fill="#000000" font-family="sans-serif" font-size="14" lengthAdjust="spacing" textLength="33" x="610.25" y="365.7285">Immo</text><line style="stroke:#181818;stroke-width:0.5;" x1="512.5" x2="708.5" y1="376" y2="376"/><text fill="#000000" font-family="sans-serif" font-size="14" lengthAdjust="spacing" textLength="134" x="517.5" y="394.5332">+IdImmo : string &#171;pk&#187;</text><text fill="#000000" font-family="sans-serif" font-size="14" lengthAdjust="spacing" textLength="122" x="517.5" y="412.1426">+Description: string</text><text fill="#000000" font-family="sans-serif" font-size="14" lengthAdjust="spacing" textLength="186" x="517.5" y="429.752">+DateOfCommissioning: Date</text><text fill="#000000" font-family="sans-serif" font-size="14" lengthAdjust="spacing" textLength="139" x="517.5" y="447.3613">+CostAccount: double</text><text fill="#000000" font-family="sans-serif" font-size="14" lengthAdjust="spacing" textLength="156" x="517.5" y="464.9707">+DepreciationPeriod : int</text><text fill="#000000" font-family="sans-serif" font-size="14" lengthAdjust="spacing" textLength="159" x="517.5" y="482.5801">+AmountPerHour: double</text><text fill="#000000" font-family="sans-serif" font-size="14" lengthAdjust="spacing" textLength="99" x="517.5" y="500.1895">+Usage :double</text><line style="stroke:#181818;stroke-width:0.5;" x1="512.5" x2="708.5" y1="507.2656" y2="507.2656"/><text fill="#000000" font-family="sans-serif" font-size="14" lengthAdjust="spacing" textLength="109" x="517.5" y="525.7988">+addImmo(): void</text><text fill="#000000" font-family="sans-serif" font-size="14" lengthAdjust="spacing" textLength="176" x="517.5" y="543.4082">+removeImmo(IdImmo): void</text><text fill="#000000" font-family="sans-serif" font-size="14" lengthAdjust="spacing" textLength="173" x="517.5" y="561.0176">+updateImmo(IdImmo): void</text></g><!--reverse link IndirectProductionExp to Immo--><g id="link_IndirectProductionExp_Immo"><path codeLine="76" d="M542.62,278.34 C551.07,300.32 559.69,322.77 567.84,343.97 " fill="none" id="IndirectProductionExp-backto-Immo" style="stroke:#181818;stroke-width:1.0;"/><polygon fill="none" points="537.95,266.18,536.371,273.2161,542.2586,277.3798,543.8376,270.3437,537.95,266.18" style="stroke:#181818;stroke-width:1.0;"/><text fill="#000000" font-family="sans-serif" font-size="13" lengthAdjust="spacing" textLength="18" x="522.2885" y="287.6359">1,1</text><text fill="#000000" font-family="sans-serif" font-size="13" lengthAdjust="spacing" textLength="18" x="546.2077" y="333.0346">1,1</text></g><!--reverse link IndirectProductionExp to ProductionHeader--><g id="link_IndirectProductionExp_ProductionHeader"><path codeLine="77" d="M387.25,221.65 C329.55,269.61 257.71,329.32 201.14,376.34 " fill="none" id="IndirectProductionExp-backto-ProductionHeader" style="stroke:#181818;stroke-width:1.0;"/><polygon fill="none" points="397.49,213.15,390.3196,213.9152,388.2681,220.8283,395.4385,220.0631,397.49,213.15" style="stroke:#181818;stroke-width:1.0;"/><text fill="#000000" font-family="sans-serif" font-size="13" lengthAdjust="spacing" textLength="16" x="373.6001" y="216.1172">1,*</text><text fill="#000000" font-family="sans-serif" font-size="13" lengthAdjust="spacing" textLength="18" x="209.0749" y="367.1186">1,1</text></g><!--link ProductionHeader to ProductionDetail--><g id="link_ProductionHeader_ProductionDetail"><path codeLine="78" d="M201.14,456 C224.47,456 249.64,456 273.55,456 " fill="none" id="ProductionHeader-to-ProductionDetail" style="stroke:#181818;stroke-width:1.0;"/><polygon fill="#181818" points="286.69,456,280.69,452,274.69,456,280.69,460,286.69,456" style="stroke:#181818;stroke-width:1.0;"/><text fill="#000000" font-family="sans-serif" font-size="13" lengthAdjust="spacing" textLength="49" x="219.5" y="449.4951">contains</text><text fill="#000000" font-family="sans-serif" font-size="13" lengthAdjust="spacing" textLength="18" x="208.8979" y="470.0777">1,1</text><text fill="#000000" font-family="sans-serif" font-size="13" lengthAdjust="spacing" textLength="16" x="258.993" y="470.0921">1,*</text></g><!--link ProductionHeader to ProductionStatus--><g id="link_ProductionHeader_ProductionStatus"><path codeLine="79" d="M106.5,559.08 C106.5,587.95 106.5,618.85 106.5,645.9 " fill="none" id="ProductionHeader-ProductionStatus" style="stroke:#181818;stroke-width:1.0;"/><text fill="#000000" font-family="sans-serif" font-size="13" lengthAdjust="spacing" textLength="62" x="107.5" y="612.4951">Belongs to</text><text fill="#000000" font-family="sans-serif" font-size="13" lengthAdjust="spacing" textLength="18" x="83.6578" y="581.0746">1,1</text><text fill="#000000" font-family="sans-serif" font-size="13" lengthAdjust="spacing" textLength="16" x="89.7125" y="635.0523">1,*</text></g><!--reverse link ItemPDetail to ProductionHeader--><g id="link_ItemPDetail_ProductionHeader"><path codeLine="80" d="M106.5,253.06 C106.5,285.77 106.5,321.13 106.5,352.98 " fill="none" id="ItemPDetail-backto-ProductionHeader" style="stroke:#181818;stroke-width:1.0;"/><polygon fill="none" points="106.5,239.71,102.5,245.71,106.5,251.71,110.5,245.71,106.5,239.71" style="stroke:#181818;stroke-width:1.0;"/><text fill="#000000" font-family="sans-serif" font-size="13" lengthAdjust="spacing" textLength="29" x="107.5" y="310.4951">store</text><text fill="#000000" font-family="sans-serif" font-size="13" lengthAdjust="spacing" textLength="18" x="87.8391" y="261.3672">1,1</text><text fill="#000000" font-family="sans-serif" font-size="13" lengthAdjust="spacing" textLength="18" x="87.8109" y="341.9701">1,1</text></g><!--SRC=[hPLTQzim58Rl_IiElUgw1TPRKmffd56phsoXrq6nJeA8BHdfgAmh-U-Jh3InBJLZexa8vhpdyz6nR7P2jaop1bfMxTWMb_HK8sYiYCbjZPavEbGrCsPAfCNQ4fQLaaln6-5ZbcMT10kjkAr8A7cFZAE6vmpSx_qNHQkIvo0amStDulFjxSakRRD6tMd1698WBmcR78oh9hT1cHiI3IFagscZhAGSkB9hrsAdBebfAfpipEv_73ANV2mkhTwm2eTfPbPhbEIoaJN3-f-4PFL8s4UZ5qXCr7yTNKZyfiuZ2HRFeIo2vtYe7vP94lJKm_SJMPsoduVNHRrATHLXbRnlYo44Icy1uJX0waJ-gJiFSX5Evp_xwgyc33kPgQPL9YazI47u5OtLE5A0yIxWKdIxxX_VvV2e13_e6XlrY4UNmneCVMphfpoRPekKoE5D9pYI2__Eduvm_gjzo-ChUTaqQWIWG5DfqVfoAMX56flNPieG35VrPUcXLpMizCZHO_UzNwPWTqAOBCKv8U_T_PVD0aKtudDoNWUetRq0weqzuk4gVD-uNMg4CKvrGWx5SR7zqDEgYj_I0bjtU8BvZ0lKGl4OWhFVAwk7WG_6tVYGZ-durfDqEY6Cbjp2MDvdoTM2Y-iFrnUW9fF3auzvtVMgxph-p6JHvUiZu0Ak9ZLkQ09T7CI1ERXlc0kG9ekkhb1qOjjpuNTOAxarGAxrq-qIpHO56b9kg_y0]--></g></svg>