<?xml version="1.0" encoding="us-ascii" standalone="no"?><svg xmlns="http://www.w3.org/2000/svg" xmlns:xlink="http://www.w3.org/1999/xlink" contentStyleType="text/css" height="462px" preserveAspectRatio="none" style="width:735px;height:462px;background:#FFFFFF;" version="1.1" viewBox="0 0 735 462" width="735px" zoomAndPan="magnify"><defs/><g><text fill="#000000" font-family="sans-serif" font-size="14" font-weight="bold" lengthAdjust="spacing" textLength="154" x="292.5" y="29.5332">Adding Immobilisation</text><rect fill="#FFFFFF" height="240.1094" style="stroke:#181818;stroke-width:1.0;" width="10" x="31" y="131.2188"/><rect fill="#FFFFFF" height="91.0547" style="stroke:#181818;stroke-width:1.0;" width="10" x="217" y="153.5703"/><rect fill="#FFFFFF" height="30.3516" style="stroke:#181818;stroke-width:1.0;" width="10" x="374.5" y="244.625"/><rect fill="#FFFFFF" height="44" style="stroke:#181818;stroke-width:1.0;" width="10" x="536.5" y="274.9766"/><rect fill="#FFFFFF" height="82.3516" style="stroke:#181818;stroke-width:1.0;" width="10" x="654" y="288.9766"/><line style="stroke:#181818;stroke-width:0.5;stroke-dasharray:5.0,5.0;" x1="36" x2="36" y1="121.2188" y2="380.3281"/><line style="stroke:#181818;stroke-width:0.5;stroke-dasharray:5.0,5.0;" x1="221.5" x2="221.5" y1="121.2188" y2="380.3281"/><line style="stroke:#181818;stroke-width:0.5;stroke-dasharray:5.0,5.0;" x1="379.5" x2="379.5" y1="121.2188" y2="380.3281"/><line style="stroke:#181818;stroke-width:0.5;stroke-dasharray:5.0,5.0;" x1="541.5" x2="541.5" y1="121.2188" y2="380.3281"/><line style="stroke:#181818;stroke-width:0.5;stroke-dasharray:5.0,5.0;" x1="658.5" x2="658.5" y1="121.2188" y2="380.3281"/><text fill="#000000" font-family="sans-serif" font-size="14" lengthAdjust="spacing" textLength="56" x="5" y="118.1426">Manager</text><ellipse cx="36" cy="52.1094" fill="#E2E2F0" rx="8" ry="8" style="stroke:#181818;stroke-width:0.5;"/><path d="M36,60.1094 L36,87.1094 M23,68.1094 L49,68.1094 M36,87.1094 L23,102.1094 M36,87.1094 L49,102.1094 " fill="none" style="stroke:#181818;stroke-width:0.5;"/><text fill="#000000" font-family="sans-serif" font-size="14" lengthAdjust="spacing" textLength="56" x="5" y="393.8613">Manager</text><ellipse cx="36" cy="405.4375" fill="#E2E2F0" rx="8" ry="8" style="stroke:#181818;stroke-width:0.5;"/><path d="M36,413.4375 L36,440.4375 M23,421.4375 L49,421.4375 M36,440.4375 L23,455.4375 M36,440.4375 L49,455.4375 " fill="none" style="stroke:#181818;stroke-width:0.5;"/><rect fill="#E2E2F0" height="31.6094" rx="2.5" ry="2.5" style="stroke:#181818;stroke-width:0.5;" width="131" x="156.5" y="88.6094"/><text fill="#000000" font-family="sans-serif" font-size="14" lengthAdjust="spacing" textLength="117" x="163.5" y="110.1426">ImmobilisationView</text><rect fill="#E2E2F0" height="31.6094" rx="2.5" ry="2.5" style="stroke:#181818;stroke-width:0.5;" width="131" x="156.5" y="379.3281"/><text fill="#000000" font-family="sans-serif" font-size="14" lengthAdjust="spacing" textLength="117" x="163.5" y="400.8613">ImmobilisationView</text><rect fill="#E2E2F0" height="31.6094" rx="2.5" ry="2.5" style="stroke:#181818;stroke-width:0.5;" width="164" x="297.5" y="88.6094"/><text fill="#000000" font-family="sans-serif" font-size="14" lengthAdjust="spacing" textLength="150" x="304.5" y="110.1426">ImmobilisationController</text><rect fill="#E2E2F0" height="31.6094" rx="2.5" ry="2.5" style="stroke:#181818;stroke-width:0.5;" width="164" x="297.5" y="379.3281"/><text fill="#000000" font-family="sans-serif" font-size="14" lengthAdjust="spacing" textLength="150" x="304.5" y="400.8613">ImmobilisationController</text><rect fill="#E2E2F0" height="31.6094" rx="2.5" ry="2.5" style="stroke:#181818;stroke-width:0.5;" width="140" x="471.5" y="88.6094"/><text fill="#000000" font-family="sans-serif" font-size="14" lengthAdjust="spacing" textLength="126" x="478.5" y="110.1426">ImmobilisationModel</text><rect fill="#E2E2F0" height="31.6094" rx="2.5" ry="2.5" style="stroke:#181818;stroke-width:0.5;" width="140" x="471.5" y="379.3281"/><text fill="#000000" font-family="sans-serif" font-size="14" lengthAdjust="spacing" textLength="126" x="478.5" y="400.8613">ImmobilisationModel</text><rect fill="#E2E2F0" height="31.6094" rx="2.5" ry="2.5" style="stroke:#181818;stroke-width:0.5;" width="75" x="621.5" y="88.6094"/><text fill="#000000" font-family="sans-serif" font-size="14" lengthAdjust="spacing" textLength="61" x="628.5" y="110.1426">Database</text><rect fill="#E2E2F0" height="31.6094" rx="2.5" ry="2.5" style="stroke:#181818;stroke-width:0.5;" width="75" x="621.5" y="379.3281"/><text fill="#000000" font-family="sans-serif" font-size="14" lengthAdjust="spacing" textLength="61" x="628.5" y="400.8613">Database</text><rect fill="#FFFFFF" height="240.1094" style="stroke:#181818;stroke-width:1.0;" width="10" x="31" y="131.2188"/><rect fill="#FFFFFF" height="91.0547" style="stroke:#181818;stroke-width:1.0;" width="10" x="217" y="153.5703"/><rect fill="#FFFFFF" height="30.3516" style="stroke:#181818;stroke-width:1.0;" width="10" x="374.5" y="244.625"/><rect fill="#FFFFFF" height="44" style="stroke:#181818;stroke-width:1.0;" width="10" x="536.5" y="274.9766"/><rect fill="#FFFFFF" height="82.3516" style="stroke:#181818;stroke-width:1.0;" width="10" x="654" y="288.9766"/><polygon fill="#181818" points="205,149.5703,215,153.5703,205,157.5703,209,153.5703" style="stroke:#181818;stroke-width:1.0;"/><line style="stroke:#181818;stroke-width:1.0;" x1="41" x2="211" y1="153.5703" y2="153.5703"/><text fill="#000000" font-family="sans-serif" font-size="13" lengthAdjust="spacing" textLength="157" x="48" y="148.7139">Add Immobilisation request</text><polygon fill="#181818" points="52,179.9219,42,183.9219,52,187.9219,48,183.9219" style="stroke:#181818;stroke-width:1.0;"/><line style="stroke:#181818;stroke-width:1.0;stroke-dasharray:2.0,2.0;" x1="46" x2="216" y1="183.9219" y2="183.9219"/><text fill="#000000" font-family="sans-serif" font-size="13" lengthAdjust="spacing" textLength="93" x="58" y="179.0654">Show Add Form</text><polygon fill="#181818" points="205,210.2734,215,214.2734,205,218.2734,209,214.2734" style="stroke:#181818;stroke-width:1.0;"/><line style="stroke:#181818;stroke-width:1.0;" x1="41" x2="211" y1="214.2734" y2="214.2734"/><text fill="#000000" font-family="sans-serif" font-size="13" lengthAdjust="spacing" textLength="73" x="48" y="209.417">Fill the Form</text><polygon fill="#181818" points="362.5,240.625,372.5,244.625,362.5,248.625,366.5,244.625" style="stroke:#181818;stroke-width:1.0;"/><line style="stroke:#181818;stroke-width:1.0;" x1="222" x2="368.5" y1="244.625" y2="244.625"/><text fill="#000000" font-family="sans-serif" font-size="13" lengthAdjust="spacing" textLength="59" x="229" y="239.7686">Send data</text><polygon fill="#181818" points="524.5,270.9766,534.5,274.9766,524.5,278.9766,528.5,274.9766" style="stroke:#181818;stroke-width:1.0;"/><line style="stroke:#181818;stroke-width:1.0;" x1="379.5" x2="530.5" y1="274.9766" y2="274.9766"/><text fill="#000000" font-family="sans-serif" font-size="13" lengthAdjust="spacing" textLength="59" x="386.5" y="270.1201">Send data</text><polygon fill="#181818" points="642,284.9766,652,288.9766,642,292.9766,646,288.9766" style="stroke:#181818;stroke-width:1.0;"/><line style="stroke:#181818;stroke-width:1.0;" x1="546.5" x2="648" y1="288.9766" y2="288.9766"/><line style="stroke:#181818;stroke-width:1.0;" x1="664" x2="706" y1="349.3281" y2="349.3281"/><line style="stroke:#181818;stroke-width:1.0;" x1="706" x2="706" y1="349.3281" y2="362.3281"/><line style="stroke:#181818;stroke-width:1.0;" x1="665" x2="706" y1="362.3281" y2="362.3281"/><polygon fill="#181818" points="675,358.3281,665,362.3281,675,366.3281,671,362.3281" style="stroke:#181818;stroke-width:1.0;"/><text fill="#000000" font-family="sans-serif" font-size="13" lengthAdjust="spacing" textLength="57" x="671" y="344.4717">Save data</text><!--SRC=[ZOvD2eCm44RtESLSe1TmKIWjGXUk2jsFpQ03CQ5ngjTl_AcA6kagP6Q-zpvXCGGNhTaMSAygbxFX6eMT1QNm9Sv3XXOByjsF6nIQ1kCBf_Cg-cHgauwwHdfwVwYM6RNDgUq8Ji4moX9ubAxjsQdprN47I21bOq1A6gxtsElWrLdnpfW03JAo6ZGAAar7fIExcQMYaas1p6ao_xaN_CX53rDxWk2z1NYEDStXQH9L3i3VtPBILSQ6XifV]--></g></svg>