<?xml version="1.0" encoding="us-ascii" standalone="no"?><svg xmlns="http://www.w3.org/2000/svg" xmlns:xlink="http://www.w3.org/1999/xlink" contentStyleType="text/css" height="1038px" preserveAspectRatio="none" style="width:802px;height:1038px;background:#FFFFFF;" version="1.1" viewBox="0 0 802 1038" width="802px" zoomAndPan="magnify"><defs/><g><text fill="#000000" font-family="sans-serif" font-size="14" font-weight="bold" lengthAdjust="spacing" textLength="102" x="349" y="29.5332">Authentication</text><rect fill="#FFFFFF" height="816.625" style="stroke:#181818;stroke-width:1.0;" width="10" x="17.5" y="131.2188"/><rect fill="#FFFFFF" height="30.3516" style="stroke:#181818;stroke-width:1.0;" width="10" x="188.5" y="153.5703"/><rect fill="#FFFFFF" height="60.3516" style="stroke:#181818;stroke-width:1.0;" width="10" x="188.5" y="455.6797"/><rect fill="#FFFFFF" height="60.3516" style="stroke:#181818;stroke-width:1.0;" width="10" x="188.5" y="546.3828"/><rect fill="#FFFFFF" height="60.3516" style="stroke:#181818;stroke-width:1.0;" width="10" x="188.5" y="878.4922"/><rect fill="#FFFFFF" height="60.3516" style="stroke:#181818;stroke-width:1.0;" width="10" x="379.5" y="183.9219"/><rect fill="#FFFFFF" height="90.3516" style="stroke:#181818;stroke-width:1.0;" width="10" x="379.5" y="395.3281"/><rect fill="#FFFFFF" height="90.3516" style="stroke:#181818;stroke-width:1.0;" width="10" x="379.5" y="576.7344"/><rect fill="#FFFFFF" height="90.3516" style="stroke:#181818;stroke-width:1.0;" width="10" x="379.5" y="818.1406"/><rect fill="#FFFFFF" height="90.3516" style="stroke:#181818;stroke-width:1.0;" width="10" x="557.5" y="214.2734"/><rect fill="#FFFFFF" height="90.3516" style="stroke:#181818;stroke-width:1.0;" width="10" x="557.5" y="334.9766"/><rect fill="#FFFFFF" height="90.3516" style="stroke:#181818;stroke-width:1.0;" width="10" x="557.5" y="637.0859"/><rect fill="#FFFFFF" height="90.3516" style="stroke:#181818;stroke-width:1.0;" width="10" x="557.5" y="757.7891"/><rect fill="#FFFFFF" height="90.3516" style="stroke:#181818;stroke-width:1.0;" width="10" x="753.5" y="274.625"/><rect fill="#FFFFFF" height="90.3516" style="stroke:#181818;stroke-width:1.0;" width="10" x="753.5" y="697.4375"/><line style="stroke:#181818;stroke-width:0.5;stroke-dasharray:5.0,5.0;" x1="22" x2="22" y1="121.2188" y2="956.8438"/><line style="stroke:#181818;stroke-width:0.5;stroke-dasharray:5.0,5.0;" x1="193" x2="193" y1="121.2188" y2="956.8438"/><line style="stroke:#181818;stroke-width:0.5;stroke-dasharray:5.0,5.0;" x1="384.5" x2="384.5" y1="121.2188" y2="956.8438"/><line style="stroke:#181818;stroke-width:0.5;stroke-dasharray:5.0,5.0;" x1="562.5" x2="562.5" y1="121.2188" y2="956.8438"/><line style="stroke:#181818;stroke-width:0.5;stroke-dasharray:5.0,5.0;" x1="758" x2="758" y1="121.2188" y2="956.8438"/><text fill="#000000" font-family="sans-serif" font-size="14" lengthAdjust="spacing" textLength="29" x="5" y="118.1426">User</text><ellipse cx="22.5" cy="52.1094" fill="#E2E2F0" rx="8" ry="8" style="stroke:#181818;stroke-width:0.5;"/><path d="M22.5,60.1094 L22.5,87.1094 M9.5,68.1094 L35.5,68.1094 M22.5,87.1094 L9.5,102.1094 M22.5,87.1094 L35.5,102.1094 " fill="none" style="stroke:#181818;stroke-width:0.5;"/><text fill="#000000" font-family="sans-serif" font-size="14" lengthAdjust="spacing" textLength="29" x="5" y="970.377">User</text><ellipse cx="22.5" cy="981.9531" fill="#E2E2F0" rx="8" ry="8" style="stroke:#181818;stroke-width:0.5;"/><path d="M22.5,989.9531 L22.5,1016.9531 M9.5,997.9531 L35.5,997.9531 M22.5,1016.9531 L9.5,1031.9531 M22.5,1016.9531 L35.5,1031.9531 " fill="none" style="stroke:#181818;stroke-width:0.5;"/><rect fill="#E2E2F0" height="31.6094" rx="2.5" ry="2.5" style="stroke:#181818;stroke-width:0.5;" width="133" x="127" y="88.6094"/><text fill="#000000" font-family="sans-serif" font-size="14" lengthAdjust="spacing" textLength="119" x="134" y="110.1426">AuthenticationView</text><rect fill="#E2E2F0" height="31.6094" rx="2.5" ry="2.5" style="stroke:#181818;stroke-width:0.5;" width="133" x="127" y="955.8438"/><text fill="#000000" font-family="sans-serif" font-size="14" lengthAdjust="spacing" textLength="119" x="134" y="977.377">AuthenticationView</text><rect fill="#E2E2F0" height="31.6094" rx="2.5" ry="2.5" style="stroke:#181818;stroke-width:0.5;" width="166" x="301.5" y="88.6094"/><text fill="#000000" font-family="sans-serif" font-size="14" lengthAdjust="spacing" textLength="152" x="308.5" y="110.1426">AuthenticationController</text><rect fill="#E2E2F0" height="31.6094" rx="2.5" ry="2.5" style="stroke:#181818;stroke-width:0.5;" width="166" x="301.5" y="955.8438"/><text fill="#000000" font-family="sans-serif" font-size="14" lengthAdjust="spacing" textLength="152" x="308.5" y="977.377">AuthenticationController</text><rect fill="#E2E2F0" height="31.6094" rx="2.5" ry="2.5" style="stroke:#181818;stroke-width:0.5;" width="142" x="491.5" y="88.6094"/><text fill="#000000" font-family="sans-serif" font-size="14" lengthAdjust="spacing" textLength="128" x="498.5" y="110.1426">AuthenticationModel</text><rect fill="#E2E2F0" height="31.6094" rx="2.5" ry="2.5" style="stroke:#181818;stroke-width:0.5;" width="142" x="491.5" y="955.8438"/><text fill="#000000" font-family="sans-serif" font-size="14" lengthAdjust="spacing" textLength="128" x="498.5" y="977.377">AuthenticationModel</text><rect fill="#E2E2F0" height="31.6094" rx="2.5" ry="2.5" style="stroke:#181818;stroke-width:0.5;" width="75" x="721" y="88.6094"/><text fill="#000000" font-family="sans-serif" font-size="14" lengthAdjust="spacing" textLength="61" x="728" y="110.1426">Database</text><rect fill="#E2E2F0" height="31.6094" rx="2.5" ry="2.5" style="stroke:#181818;stroke-width:0.5;" width="75" x="721" y="955.8438"/><text fill="#000000" font-family="sans-serif" font-size="14" lengthAdjust="spacing" textLength="61" x="728" y="977.377">Database</text><rect fill="#FFFFFF" height="816.625" style="stroke:#181818;stroke-width:1.0;" width="10" x="17.5" y="131.2188"/><rect fill="#FFFFFF" height="30.3516" style="stroke:#181818;stroke-width:1.0;" width="10" x="188.5" y="153.5703"/><rect fill="#FFFFFF" height="60.3516" style="stroke:#181818;stroke-width:1.0;" width="10" x="188.5" y="455.6797"/><rect fill="#FFFFFF" height="60.3516" style="stroke:#181818;stroke-width:1.0;" width="10" x="188.5" y="546.3828"/><rect fill="#FFFFFF" height="60.3516" style="stroke:#181818;stroke-width:1.0;" width="10" x="188.5" y="878.4922"/><rect fill="#FFFFFF" height="60.3516" style="stroke:#181818;stroke-width:1.0;" width="10" x="379.5" y="183.9219"/><rect fill="#FFFFFF" height="90.3516" style="stroke:#181818;stroke-width:1.0;" width="10" x="379.5" y="395.3281"/><rect fill="#FFFFFF" height="90.3516" style="stroke:#181818;stroke-width:1.0;" width="10" x="379.5" y="576.7344"/><rect fill="#FFFFFF" height="90.3516" style="stroke:#181818;stroke-width:1.0;" width="10" x="379.5" y="818.1406"/><rect fill="#FFFFFF" height="90.3516" style="stroke:#181818;stroke-width:1.0;" width="10" x="557.5" y="214.2734"/><rect fill="#FFFFFF" height="90.3516" style="stroke:#181818;stroke-width:1.0;" width="10" x="557.5" y="334.9766"/><rect fill="#FFFFFF" height="90.3516" style="stroke:#181818;stroke-width:1.0;" width="10" x="557.5" y="637.0859"/><rect fill="#FFFFFF" height="90.3516" style="stroke:#181818;stroke-width:1.0;" width="10" x="557.5" y="757.7891"/><rect fill="#FFFFFF" height="90.3516" style="stroke:#181818;stroke-width:1.0;" width="10" x="753.5" y="274.625"/><rect fill="#FFFFFF" height="90.3516" style="stroke:#181818;stroke-width:1.0;" width="10" x="753.5" y="697.4375"/><polygon fill="#181818" points="176.5,149.5703,186.5,153.5703,176.5,157.5703,180.5,153.5703" style="stroke:#181818;stroke-width:1.0;"/><line style="stroke:#181818;stroke-width:1.0;" x1="27.5" x2="182.5" y1="153.5703" y2="153.5703"/><text fill="#000000" font-family="sans-serif" font-size="13" font-weight="bold" lengthAdjust="spacing" textLength="7" x="34.5" y="148.7139">1</text><text fill="#000000" font-family="sans-serif" font-size="13" lengthAdjust="spacing" textLength="78" x="45.5" y="148.7139">Login request</text><polygon fill="#181818" points="367.5,179.9219,377.5,183.9219,367.5,187.9219,371.5,183.9219" style="stroke:#181818;stroke-width:1.0;"/><line style="stroke:#181818;stroke-width:1.0;" x1="193.5" x2="373.5" y1="183.9219" y2="183.9219"/><text fill="#000000" font-family="sans-serif" font-size="13" font-weight="bold" lengthAdjust="spacing" textLength="7" x="200.5" y="179.0654">2</text><text fill="#000000" font-family="sans-serif" font-size="13" lengthAdjust="spacing" textLength="151" x="211.5" y="179.0654">Request for authentication</text><polygon fill="#181818" points="545.5,210.2734,555.5,214.2734,545.5,218.2734,549.5,214.2734" style="stroke:#181818;stroke-width:1.0;"/><line style="stroke:#181818;stroke-width:1.0;" x1="389.5" x2="551.5" y1="214.2734" y2="214.2734"/><text fill="#000000" font-family="sans-serif" font-size="13" font-weight="bold" lengthAdjust="spacing" textLength="7" x="396.5" y="209.417">3</text><text fill="#000000" font-family="sans-serif" font-size="13" lengthAdjust="spacing" textLength="124" x="407.5" y="209.417">Request for user data</text><polygon fill="#181818" points="741.5,270.625,751.5,274.625,741.5,278.625,745.5,274.625" style="stroke:#181818;stroke-width:1.0;"/><line style="stroke:#181818;stroke-width:1.0;" x1="567.5" x2="747.5" y1="274.625" y2="274.625"/><text fill="#000000" font-family="sans-serif" font-size="13" font-weight="bold" lengthAdjust="spacing" textLength="7" x="574.5" y="269.7686">4</text><text fill="#000000" font-family="sans-serif" font-size="13" lengthAdjust="spacing" textLength="111" x="585.5" y="269.7686">Query for user data</text><polygon fill="#181818" points="578.5,330.9766,568.5,334.9766,578.5,338.9766,574.5,334.9766" style="stroke:#181818;stroke-width:1.0;"/><line style="stroke:#181818;stroke-width:1.0;" x1="572.5" x2="752.5" y1="334.9766" y2="334.9766"/><text fill="#000000" font-family="sans-serif" font-size="13" font-weight="bold" lengthAdjust="spacing" textLength="7" x="584.5" y="330.1201">5</text><text fill="#000000" font-family="sans-serif" font-size="13" lengthAdjust="spacing" textLength="56" x="595.5" y="330.1201">User data</text><polygon fill="#181818" points="400.5,391.3281,390.5,395.3281,400.5,399.3281,396.5,395.3281" style="stroke:#181818;stroke-width:1.0;"/><line style="stroke:#181818;stroke-width:1.0;" x1="394.5" x2="556.5" y1="395.3281" y2="395.3281"/><text fill="#000000" font-family="sans-serif" font-size="13" font-weight="bold" lengthAdjust="spacing" textLength="7" x="406.5" y="390.4717">6</text><text fill="#000000" font-family="sans-serif" font-size="13" lengthAdjust="spacing" textLength="56" x="417.5" y="390.4717">User data</text><polygon fill="#181818" points="209.5,451.6797,199.5,455.6797,209.5,459.6797,205.5,455.6797" style="stroke:#181818;stroke-width:1.0;"/><line style="stroke:#181818;stroke-width:1.0;" x1="203.5" x2="378.5" y1="455.6797" y2="455.6797"/><text fill="#000000" font-family="sans-serif" font-size="13" font-weight="bold" lengthAdjust="spacing" textLength="7" x="215.5" y="450.8232">7</text><text fill="#000000" font-family="sans-serif" font-size="13" lengthAdjust="spacing" textLength="56" x="226.5" y="450.8232">User data</text><polygon fill="#181818" points="38.5,512.0313,28.5,516.0313,38.5,520.0313,34.5,516.0313" style="stroke:#181818;stroke-width:1.0;"/><line style="stroke:#181818;stroke-width:1.0;" x1="32.5" x2="192.5" y1="516.0313" y2="516.0313"/><text fill="#000000" font-family="sans-serif" font-size="13" font-weight="bold" lengthAdjust="spacing" textLength="7" x="44.5" y="511.1748">8</text><text fill="#000000" font-family="sans-serif" font-size="13" lengthAdjust="spacing" textLength="60" x="55.5" y="511.1748">Login form</text><polygon fill="#181818" points="176.5,542.3828,186.5,546.3828,176.5,550.3828,180.5,546.3828" style="stroke:#181818;stroke-width:1.0;"/><line style="stroke:#181818;stroke-width:1.0;" x1="27.5" x2="182.5" y1="546.3828" y2="546.3828"/><text fill="#000000" font-family="sans-serif" font-size="13" font-weight="bold" lengthAdjust="spacing" textLength="7" x="34.5" y="541.5264">9</text><text fill="#000000" font-family="sans-serif" font-size="13" lengthAdjust="spacing" textLength="101" x="45.5" y="541.5264">Submit login form</text><polygon fill="#181818" points="367.5,572.7344,377.5,576.7344,367.5,580.7344,371.5,576.7344" style="stroke:#181818;stroke-width:1.0;"/><line style="stroke:#181818;stroke-width:1.0;" x1="198.5" x2="373.5" y1="576.7344" y2="576.7344"/><text fill="#000000" font-family="sans-serif" font-size="13" font-weight="bold" lengthAdjust="spacing" textLength="14" x="205.5" y="571.8779">10</text><text fill="#000000" font-family="sans-serif" font-size="13" lengthAdjust="spacing" textLength="130" x="223.5" y="571.8779">Authentication request</text><polygon fill="#181818" points="545.5,633.0859,555.5,637.0859,545.5,641.0859,549.5,637.0859" style="stroke:#181818;stroke-width:1.0;"/><line style="stroke:#181818;stroke-width:1.0;" x1="389.5" x2="551.5" y1="637.0859" y2="637.0859"/><text fill="#000000" font-family="sans-serif" font-size="13" font-weight="bold" lengthAdjust="spacing" textLength="14" x="396.5" y="632.2295">11</text><text fill="#000000" font-family="sans-serif" font-size="13" lengthAdjust="spacing" textLength="131" x="414.5" y="632.2295">Authenticate user data</text><polygon fill="#181818" points="741.5,693.4375,751.5,697.4375,741.5,701.4375,745.5,697.4375" style="stroke:#181818;stroke-width:1.0;"/><line style="stroke:#181818;stroke-width:1.0;" x1="567.5" x2="747.5" y1="697.4375" y2="697.4375"/><text fill="#000000" font-family="sans-serif" font-size="13" font-weight="bold" lengthAdjust="spacing" textLength="14" x="574.5" y="692.5811">12</text><text fill="#000000" font-family="sans-serif" font-size="13" lengthAdjust="spacing" textLength="149" x="592.5" y="692.5811">Query for user credentials</text><polygon fill="#181818" points="578.5,753.7891,568.5,757.7891,578.5,761.7891,574.5,757.7891" style="stroke:#181818;stroke-width:1.0;"/><line style="stroke:#181818;stroke-width:1.0;" x1="572.5" x2="752.5" y1="757.7891" y2="757.7891"/><text fill="#000000" font-family="sans-serif" font-size="13" font-weight="bold" lengthAdjust="spacing" textLength="14" x="584.5" y="752.9326">13</text><text fill="#000000" font-family="sans-serif" font-size="13" lengthAdjust="spacing" textLength="94" x="602.5" y="752.9326">User credentials</text><polygon fill="#181818" points="400.5,814.1406,390.5,818.1406,400.5,822.1406,396.5,818.1406" style="stroke:#181818;stroke-width:1.0;"/><line style="stroke:#181818;stroke-width:1.0;" x1="394.5" x2="556.5" y1="818.1406" y2="818.1406"/><text fill="#000000" font-family="sans-serif" font-size="13" font-weight="bold" lengthAdjust="spacing" textLength="14" x="406.5" y="813.2842">14</text><text fill="#000000" font-family="sans-serif" font-size="13" lengthAdjust="spacing" textLength="94" x="424.5" y="813.2842">User credentials</text><polygon fill="#181818" points="209.5,874.4922,199.5,878.4922,209.5,882.4922,205.5,878.4922" style="stroke:#181818;stroke-width:1.0;"/><line style="stroke:#181818;stroke-width:1.0;" x1="203.5" x2="378.5" y1="878.4922" y2="878.4922"/><text fill="#000000" font-family="sans-serif" font-size="13" font-weight="bold" lengthAdjust="spacing" textLength="14" x="215.5" y="873.6357">15</text><text fill="#000000" font-family="sans-serif" font-size="13" lengthAdjust="spacing" textLength="119" x="233.5" y="873.6357">Authentication result</text><polygon fill="#181818" points="38.5,934.8438,28.5,938.8438,38.5,942.8438,34.5,938.8438" style="stroke:#181818;stroke-width:1.0;"/><line style="stroke:#181818;stroke-width:1.0;" x1="32.5" x2="192.5" y1="938.8438" y2="938.8438"/><text fill="#000000" font-family="sans-serif" font-size="13" font-weight="bold" lengthAdjust="spacing" textLength="14" x="44.5" y="933.9873">16</text><text fill="#000000" font-family="sans-serif" font-size="13" lengthAdjust="spacing" textLength="119" x="62.5" y="933.9873">Authentication result</text><!--SRC=[nLEnJiGm3Dtx5Vu11jOEI0X6603TxMvh85AQYCG1yVSqhKglf6vwqbKiLHhRxpt7VgnO4zm6VYV3gaPMrXGOs9hGLkJWki2QhOE39nUFwXEPXh_uWQkRFyL7HLybFDWtPS3HHo3FKrsQMgHNAUQTDUoirkHAU1umuRKJXNFP3QqH2R49kv02gQ17sv2UQmdnDHfab8Zw6bcZgAElYnBkE_0AFPNm5CXzIwnZcamrA1dpnEuEPtVqIorq84yrotNoF9c-jaznMDKiTRyzvyzjNEM8FngY6rcRMTCrLxs4gbKCUiAwfBFcaPnvjmnaGSO6LvrSqd_QgdRKn7pKFdKNNCPUYnpxkcm3vNvcItRC1ysx6c-PSNLbVm00]--></g></svg>