<?xml version="1.0" encoding="us-ascii" standalone="no"?><svg xmlns="http://www.w3.org/2000/svg" xmlns:xlink="http://www.w3.org/1999/xlink" contentStyleType="text/css" height="509px" preserveAspectRatio="none" style="width:995px;height:509px;background:#FFFFFF;" version="1.1" viewBox="0 0 995 509" width="995px" zoomAndPan="magnify"><defs/><g><text fill="#000000" font-family="sans-serif" font-size="14" font-weight="bold" lengthAdjust="spacing" textLength="162" x="418.75" y="29.5332">Create Purchase Order</text><rect fill="#FFFFFF" height="286.8125" style="stroke:#181818;stroke-width:1.0;" width="10" x="31" y="131.2188"/><rect fill="#FFFFFF" height="91.0547" style="stroke:#181818;stroke-width:1.0;" width="10" x="226" y="153.5703"/><rect fill="#FFFFFF" height="60.7031" style="stroke:#181818;stroke-width:1.0;" width="10" x="392.5" y="244.625"/><rect fill="#FFFFFF" height="30.3516" style="stroke:#181818;stroke-width:1.0;" width="10" x="568" y="274.9766"/><rect fill="#FFFFFF" height="60.3516" style="stroke:#181818;stroke-width:1.0;" width="10" x="731.5" y="305.3281"/><rect fill="#FFFFFF" height="82.3516" style="stroke:#181818;stroke-width:1.0;" width="10" x="914.5" y="335.6797"/><line style="stroke:#181818;stroke-width:0.5;stroke-dasharray:5.0,5.0;" x1="36" x2="36" y1="121.2188" y2="427.0313"/><line style="stroke:#181818;stroke-width:0.5;stroke-dasharray:5.0,5.0;" x1="231" x2="231" y1="121.2188" y2="427.0313"/><line style="stroke:#181818;stroke-width:0.5;stroke-dasharray:5.0,5.0;" x1="397" x2="397" y1="121.2188" y2="427.0313"/><line style="stroke:#181818;stroke-width:0.5;stroke-dasharray:5.0,5.0;" x1="573" x2="573" y1="121.2188" y2="427.0313"/><line style="stroke:#181818;stroke-width:0.5;stroke-dasharray:5.0,5.0;" x1="736" x2="736" y1="121.2188" y2="427.0313"/><line style="stroke:#181818;stroke-width:0.5;stroke-dasharray:5.0,5.0;" x1="919" x2="919" y1="121.2188" y2="427.0313"/><text fill="#000000" font-family="sans-serif" font-size="14" lengthAdjust="spacing" textLength="56" x="5" y="118.1426">Manager</text><ellipse cx="36" cy="52.1094" fill="#E2E2F0" rx="8" ry="8" style="stroke:#181818;stroke-width:0.5;"/><path d="M36,60.1094 L36,87.1094 M23,68.1094 L49,68.1094 M36,87.1094 L23,102.1094 M36,87.1094 L49,102.1094 " fill="none" style="stroke:#181818;stroke-width:0.5;"/><text fill="#000000" font-family="sans-serif" font-size="14" lengthAdjust="spacing" textLength="56" x="5" y="440.5645">Manager</text><ellipse cx="36" cy="452.1406" fill="#E2E2F0" rx="8" ry="8" style="stroke:#181818;stroke-width:0.5;"/><path d="M36,460.1406 L36,487.1406 M23,468.1406 L49,468.1406 M36,487.1406 L23,502.1406 M36,487.1406 L49,502.1406 " fill="none" style="stroke:#181818;stroke-width:0.5;"/><rect fill="#E2E2F0" height="31.6094" rx="2.5" ry="2.5" style="stroke:#181818;stroke-width:0.5;" width="140" x="161" y="88.6094"/><text fill="#000000" font-family="sans-serif" font-size="14" lengthAdjust="spacing" textLength="126" x="168" y="110.1426">PurchaseOrderView</text><rect fill="#E2E2F0" height="31.6094" rx="2.5" ry="2.5" style="stroke:#181818;stroke-width:0.5;" width="140" x="161" y="426.0313"/><text fill="#000000" font-family="sans-serif" font-size="14" lengthAdjust="spacing" textLength="126" x="168" y="447.5645">PurchaseOrderView</text><rect fill="#E2E2F0" height="31.6094" rx="2.5" ry="2.5" style="stroke:#181818;stroke-width:0.5;" width="173" x="311" y="88.6094"/><text fill="#000000" font-family="sans-serif" font-size="14" lengthAdjust="spacing" textLength="159" x="318" y="110.1426">PurchaseOrderController</text><rect fill="#E2E2F0" height="31.6094" rx="2.5" ry="2.5" style="stroke:#181818;stroke-width:0.5;" width="173" x="311" y="426.0313"/><text fill="#000000" font-family="sans-serif" font-size="14" lengthAdjust="spacing" textLength="159" x="318" y="447.5645">PurchaseOrderController</text><rect fill="#E2E2F0" height="31.6094" rx="2.5" ry="2.5" style="stroke:#181818;stroke-width:0.5;" width="158" x="494" y="88.6094"/><text fill="#000000" font-family="sans-serif" font-size="14" lengthAdjust="spacing" textLength="144" x="501" y="110.1426">PurchaseOrderService</text><rect fill="#E2E2F0" height="31.6094" rx="2.5" ry="2.5" style="stroke:#181818;stroke-width:0.5;" width="158" x="494" y="426.0313"/><text fill="#000000" font-family="sans-serif" font-size="14" lengthAdjust="spacing" textLength="144" x="501" y="447.5645">PurchaseOrderService</text><rect fill="#E2E2F0" height="31.6094" rx="2.5" ry="2.5" style="stroke:#181818;stroke-width:0.5;" width="149" x="662" y="88.6094"/><text fill="#000000" font-family="sans-serif" font-size="14" lengthAdjust="spacing" textLength="135" x="669" y="110.1426">PurchaseOrderModel</text><rect fill="#E2E2F0" height="31.6094" rx="2.5" ry="2.5" style="stroke:#181818;stroke-width:0.5;" width="149" x="662" y="426.0313"/><text fill="#000000" font-family="sans-serif" font-size="14" lengthAdjust="spacing" textLength="135" x="669" y="447.5645">PurchaseOrderModel</text><rect fill="#E2E2F0" height="31.6094" rx="2.5" ry="2.5" style="stroke:#181818;stroke-width:0.5;" width="75" x="882" y="88.6094"/><text fill="#000000" font-family="sans-serif" font-size="14" lengthAdjust="spacing" textLength="61" x="889" y="110.1426">Database</text><rect fill="#E2E2F0" height="31.6094" rx="2.5" ry="2.5" style="stroke:#181818;stroke-width:0.5;" width="75" x="882" y="426.0313"/><text fill="#000000" font-family="sans-serif" font-size="14" lengthAdjust="spacing" textLength="61" x="889" y="447.5645">Database</text><rect fill="#FFFFFF" height="286.8125" style="stroke:#181818;stroke-width:1.0;" width="10" x="31" y="131.2188"/><rect fill="#FFFFFF" height="91.0547" style="stroke:#181818;stroke-width:1.0;" width="10" x="226" y="153.5703"/><rect fill="#FFFFFF" height="60.7031" style="stroke:#181818;stroke-width:1.0;" width="10" x="392.5" y="244.625"/><rect fill="#FFFFFF" height="30.3516" style="stroke:#181818;stroke-width:1.0;" width="10" x="568" y="274.9766"/><rect fill="#FFFFFF" height="60.3516" style="stroke:#181818;stroke-width:1.0;" width="10" x="731.5" y="305.3281"/><rect fill="#FFFFFF" height="82.3516" style="stroke:#181818;stroke-width:1.0;" width="10" x="914.5" y="335.6797"/><polygon fill="#181818" points="214,149.5703,224,153.5703,214,157.5703,218,153.5703" style="stroke:#181818;stroke-width:1.0;"/><line style="stroke:#181818;stroke-width:1.0;" x1="41" x2="220" y1="153.5703" y2="153.5703"/><text fill="#000000" font-family="sans-serif" font-size="13" lengthAdjust="spacing" textLength="133" x="48" y="148.7139">Create Purchase Order</text><polygon fill="#181818" points="52,179.9219,42,183.9219,52,187.9219,48,183.9219" style="stroke:#181818;stroke-width:1.0;"/><line style="stroke:#181818;stroke-width:1.0;stroke-dasharray:2.0,2.0;" x1="46" x2="225" y1="183.9219" y2="183.9219"/><text fill="#000000" font-family="sans-serif" font-size="13" lengthAdjust="spacing" textLength="161" x="58" y="179.0654">Show Purchase Order Form</text><polygon fill="#181818" points="214,210.2734,224,214.2734,214,218.2734,218,214.2734" style="stroke:#181818;stroke-width:1.0;"/><line style="stroke:#181818;stroke-width:1.0;" x1="41" x2="220" y1="214.2734" y2="214.2734"/><text fill="#000000" font-family="sans-serif" font-size="13" lengthAdjust="spacing" textLength="73" x="48" y="209.417">Fill the Form</text><polygon fill="#181818" points="380.5,240.625,390.5,244.625,380.5,248.625,384.5,244.625" style="stroke:#181818;stroke-width:1.0;"/><line style="stroke:#181818;stroke-width:1.0;" x1="231" x2="386.5" y1="244.625" y2="244.625"/><text fill="#000000" font-family="sans-serif" font-size="13" lengthAdjust="spacing" textLength="59" x="238" y="239.7686">Send data</text><polygon fill="#181818" points="556,270.9766,566,274.9766,556,278.9766,560,274.9766" style="stroke:#181818;stroke-width:1.0;"/><line style="stroke:#181818;stroke-width:1.0;" x1="402.5" x2="562" y1="274.9766" y2="274.9766"/><text fill="#000000" font-family="sans-serif" font-size="13" lengthAdjust="spacing" textLength="133" x="409.5" y="270.1201">Create Purchase Order</text><polygon fill="#181818" points="719.5,301.3281,729.5,305.3281,719.5,309.3281,723.5,305.3281" style="stroke:#181818;stroke-width:1.0;"/><line style="stroke:#181818;stroke-width:1.0;" x1="573" x2="725.5" y1="305.3281" y2="305.3281"/><text fill="#000000" font-family="sans-serif" font-size="13" lengthAdjust="spacing" textLength="123" x="580" y="300.4717">Save Purchase Order</text><polygon fill="#181818" points="902.5,331.6797,912.5,335.6797,902.5,339.6797,906.5,335.6797" style="stroke:#181818;stroke-width:1.0;"/><line style="stroke:#181818;stroke-width:1.0;" x1="741.5" x2="908.5" y1="335.6797" y2="335.6797"/><text fill="#000000" font-family="sans-serif" font-size="13" lengthAdjust="spacing" textLength="154" x="748.5" y="330.8232">Save Purchase Order Data</text><line style="stroke:#181818;stroke-width:1.0;" x1="924.5" x2="966.5" y1="396.0313" y2="396.0313"/><line style="stroke:#181818;stroke-width:1.0;" x1="966.5" x2="966.5" y1="396.0313" y2="409.0313"/><line style="stroke:#181818;stroke-width:1.0;" x1="925.5" x2="966.5" y1="409.0313" y2="409.0313"/><polygon fill="#181818" points="935.5,405.0313,925.5,409.0313,935.5,413.0313,931.5,409.0313" style="stroke:#181818;stroke-width:1.0;"/><text fill="#000000" font-family="sans-serif" font-size="13" lengthAdjust="spacing" textLength="57" x="931.5" y="391.1748">Save data</text><!--SRC=[bL5B3eCW4DrpYhb0B-2Y6njtfarCkf_Af99GIQPKhrz4qKQWJLU4D-ytO9NL12KJMeBBYziEdmHdbiH2O6iDGuqztjtLtTGmqGAmd70uhaell2eQYupdQX8fH8J0mJal8GKqdHbtRb0PVloeKIcjmNOqSnCPErLfUij6Qnz9lGI95eMaByNJeyr8PF0eko4UL4l_lTqY4YamIgYD9EqMmo5opwqO_7FpZptJ19yfOcWgTtAFUtDeifAVRgQ1csqo1mLQmjv_vHi0]--></g></svg>