<?xml version="1.0" encoding="us-ascii" standalone="no"?><svg xmlns="http://www.w3.org/2000/svg" xmlns:xlink="http://www.w3.org/1999/xlink" contentStyleType="text/css" height="451px" preserveAspectRatio="none" style="width:745px;height:451px;background:#FFFFFF;" version="1.1" viewBox="0 0 745 451" width="745px" zoomAndPan="magnify"><defs/><g><text fill="#000000" font-family="sans-serif" font-size="14" font-weight="bold" lengthAdjust="spacing" textLength="174" x="284.75" y="29.5332">Cancel Production Order</text><rect fill="#FFFFFF" height="304.5156" style="stroke:#181818;stroke-width:1.0;" width="10" x="31" y="131.2188"/><rect fill="#FFFFFF" height="273.1641" style="stroke:#181818;stroke-width:1.0;" width="10" x="207" y="153.5703"/><rect fill="#FFFFFF" height="151.7578" style="stroke:#181818;stroke-width:1.0;" width="10" x="398" y="244.625"/><rect fill="#FFFFFF" height="91.0547" style="stroke:#181818;stroke-width:1.0;" width="10" x="540" y="274.9766"/><rect fill="#FFFFFF" height="30.3516" style="stroke:#181818;stroke-width:1.0;" width="10" x="697" y="305.3281"/><line style="stroke:#181818;stroke-width:0.5;stroke-dasharray:5.0,5.0;" x1="36" x2="36" y1="121.2188" y2="444.7344"/><line style="stroke:#181818;stroke-width:0.5;stroke-dasharray:5.0,5.0;" x1="211.5" x2="211.5" y1="121.2188" y2="444.7344"/><line style="stroke:#181818;stroke-width:0.5;stroke-dasharray:5.0,5.0;" x1="403" x2="403" y1="121.2188" y2="444.7344"/><line style="stroke:#181818;stroke-width:0.5;stroke-dasharray:5.0,5.0;" x1="545" x2="545" y1="121.2188" y2="444.7344"/><line style="stroke:#181818;stroke-width:0.5;stroke-dasharray:5.0,5.0;" x1="701.5" x2="701.5" y1="121.2188" y2="444.7344"/><text fill="#000000" font-family="sans-serif" font-size="14" lengthAdjust="spacing" textLength="56" x="5" y="118.1426">Manager</text><ellipse cx="36" cy="52.1094" fill="#E2E2F0" rx="8" ry="8" style="stroke:#181818;stroke-width:0.5;"/><path d="M36,60.1094 L36,87.1094 M23,68.1094 L49,68.1094 M36,87.1094 L23,102.1094 M36,87.1094 L49,102.1094 " fill="none" style="stroke:#181818;stroke-width:0.5;"/><rect fill="#E2E2F0" height="31.6094" rx="2.5" ry="2.5" style="stroke:#181818;stroke-width:0.5;" width="111" x="156.5" y="88.6094"/><text fill="#000000" font-family="sans-serif" font-size="14" lengthAdjust="spacing" textLength="97" x="163.5" y="110.1426">ProductionView</text><rect fill="#E2E2F0" height="31.6094" rx="2.5" ry="2.5" style="stroke:#181818;stroke-width:0.5;" width="144" x="331" y="88.6094"/><text fill="#000000" font-family="sans-serif" font-size="14" lengthAdjust="spacing" textLength="130" x="338" y="110.1426">ProductionController</text><rect fill="#E2E2F0" height="31.6094" rx="2.5" ry="2.5" style="stroke:#181818;stroke-width:0.5;" width="120" x="485" y="88.6094"/><text fill="#000000" font-family="sans-serif" font-size="14" lengthAdjust="spacing" textLength="106" x="492" y="110.1426">ProductionModel</text><rect fill="#E2E2F0" height="31.6094" rx="2.5" ry="2.5" style="stroke:#181818;stroke-width:0.5;" width="75" x="664.5" y="88.6094"/><text fill="#000000" font-family="sans-serif" font-size="14" lengthAdjust="spacing" textLength="61" x="671.5" y="110.1426">Database</text><rect fill="#FFFFFF" height="304.5156" style="stroke:#181818;stroke-width:1.0;" width="10" x="31" y="131.2188"/><rect fill="#FFFFFF" height="273.1641" style="stroke:#181818;stroke-width:1.0;" width="10" x="207" y="153.5703"/><rect fill="#FFFFFF" height="151.7578" style="stroke:#181818;stroke-width:1.0;" width="10" x="398" y="244.625"/><rect fill="#FFFFFF" height="91.0547" style="stroke:#181818;stroke-width:1.0;" width="10" x="540" y="274.9766"/><rect fill="#FFFFFF" height="30.3516" style="stroke:#181818;stroke-width:1.0;" width="10" x="697" y="305.3281"/><polygon fill="#181818" points="195,149.5703,205,153.5703,195,157.5703,199,153.5703" style="stroke:#181818;stroke-width:1.0;"/><line style="stroke:#181818;stroke-width:1.0;" x1="41" x2="201" y1="153.5703" y2="153.5703"/><text fill="#000000" font-family="sans-serif" font-size="13" lengthAdjust="spacing" textLength="135" x="48" y="148.7139">Authentication Request</text><polygon fill="#181818" points="52,179.9219,42,183.9219,52,187.9219,48,183.9219" style="stroke:#181818;stroke-width:1.0;"/><line style="stroke:#181818;stroke-width:1.0;stroke-dasharray:2.0,2.0;" x1="46" x2="206" y1="183.9219" y2="183.9219"/><text fill="#000000" font-family="sans-serif" font-size="13" lengthAdjust="spacing" textLength="142" x="58" y="179.0654">Authentication Accepted</text><polygon fill="#181818" points="195,210.2734,205,214.2734,195,218.2734,199,214.2734" style="stroke:#181818;stroke-width:1.0;"/><line style="stroke:#181818;stroke-width:1.0;" x1="41" x2="201" y1="214.2734" y2="214.2734"/><text fill="#000000" font-family="sans-serif" font-size="13" lengthAdjust="spacing" textLength="76" x="48" y="209.417">Cancel Order</text><polygon fill="#181818" points="386,240.625,396,244.625,386,248.625,390,244.625" style="stroke:#181818;stroke-width:1.0;"/><line style="stroke:#181818;stroke-width:1.0;" x1="217" x2="392" y1="244.625" y2="244.625"/><text fill="#000000" font-family="sans-serif" font-size="13" lengthAdjust="spacing" textLength="162" x="224" y="239.7686">Send Cancel Order Request</text><polygon fill="#181818" points="528,270.9766,538,274.9766,528,278.9766,532,274.9766" style="stroke:#181818;stroke-width:1.0;"/><line style="stroke:#181818;stroke-width:1.0;" x1="408" x2="534" y1="274.9766" y2="274.9766"/><text fill="#000000" font-family="sans-serif" font-size="13" lengthAdjust="spacing" textLength="76" x="415" y="270.1201">Cancel Order</text><polygon fill="#181818" points="685,301.3281,695,305.3281,685,309.3281,689,305.3281" style="stroke:#181818;stroke-width:1.0;"/><line style="stroke:#181818;stroke-width:1.0;" x1="550" x2="691" y1="305.3281" y2="305.3281"/><text fill="#000000" font-family="sans-serif" font-size="13" lengthAdjust="spacing" textLength="128" x="557" y="300.4717">Cancel Order Request</text><polygon fill="#181818" points="561,331.6797,551,335.6797,561,339.6797,557,335.6797" style="stroke:#181818;stroke-width:1.0;"/><line style="stroke:#181818;stroke-width:1.0;stroke-dasharray:2.0,2.0;" x1="555" x2="701" y1="335.6797" y2="335.6797"/><text fill="#000000" font-family="sans-serif" font-size="13" lengthAdjust="spacing" textLength="93" x="567" y="330.8232">Order Cancelled</text><polygon fill="#181818" points="419,362.0313,409,366.0313,419,370.0313,415,366.0313" style="stroke:#181818;stroke-width:1.0;"/><line style="stroke:#181818;stroke-width:1.0;stroke-dasharray:2.0,2.0;" x1="413" x2="544" y1="366.0313" y2="366.0313"/><text fill="#000000" font-family="sans-serif" font-size="13" lengthAdjust="spacing" textLength="93" x="425" y="361.1748">Order Cancelled</text><polygon fill="#181818" points="228,392.3828,218,396.3828,228,400.3828,224,396.3828" style="stroke:#181818;stroke-width:1.0;"/><line style="stroke:#181818;stroke-width:1.0;stroke-dasharray:2.0,2.0;" x1="222" x2="402" y1="396.3828" y2="396.3828"/><text fill="#000000" font-family="sans-serif" font-size="13" lengthAdjust="spacing" textLength="93" x="234" y="391.5264">Order Cancelled</text><polygon fill="#181818" points="52,422.7344,42,426.7344,52,430.7344,48,426.7344" style="stroke:#181818;stroke-width:1.0;"/><line style="stroke:#181818;stroke-width:1.0;stroke-dasharray:2.0,2.0;" x1="46" x2="211" y1="426.7344" y2="426.7344"/><text fill="#000000" font-family="sans-serif" font-size="13" lengthAdjust="spacing" textLength="93" x="58" y="421.8779">Order Cancelled</text><!--SRC=[ZP9D3e8m44RtFKKlm0LSc1ZT6eqcxeTsb2PDH-kW7jyAybSAOKMWyzvyCuKDMvHRS0gjF7hIfM93JXwyHYyAer5UYJYdZm35vEKU7Dp2KNWpBs1iF_oVCbltF1U3RxcIcv8BT6mKLF8JFafySkSO0YBYiw1ix2FNHYcyC-hP_l_vwg5YUxz-IuuzMLjrEgFJ0tGkU4UAf6xGPaywEADS2MbL9s8kg7R0aCCJ8ySuO5CeMY9B9gdnscN3DZME5QCSqwkRqKrFrzzMwXONIPFtaFYD5ib-t1S0]--></g></svg>