<?xml version="1.0" encoding="UTF-8"?><svg id="Layer_2" xmlns="http://www.w3.org/2000/svg" viewBox="0 0 153.62 94.98"><defs><style>.cls-1,.cls-2,.cls-3,.cls-4,.cls-5,.cls-6,.cls-7,.cls-8,.cls-9,.cls-10,.cls-11,.cls-12{fill-rule:evenodd;}.cls-1,.cls-13{fill:#58595b;}.cls-14,.cls-11{fill:#404041;}.cls-2{fill:#bbbdbf;}.cls-15{opacity:.33;}.cls-3,.cls-16{fill:#17854a;}.cls-4{fill:#ffdd0f;}.cls-5{fill:#6d6e70;}.cls-6{fill:#f48120;}.cls-7{fill:#020000;}.cls-8{fill:#231f20;}.cls-9{fill:#156b40;}.cls-10{fill:#eeb926;}.cls-12{fill:#00a551;}.cls-17{fill:#2b646f;}.cls-18{fill:#4eaaa7;}</style></defs><g id="Layer_1-2"><path class="cls-3" d="m22.32,40.05c-3.49.85-6.72-.13-7.23-2.19-.5-2.06,1.92-4.42,5.41-5.27,3.49-.85,6.72.13,7.23,2.19.5,2.06-1.92,4.42-5.41,5.27h0Z"/><path class="cls-6" d="m15.22,38.24c-.05-.12-.1-.25-.13-.37-.39-1.6.99-3.39,3.27-4.51-.34,2.1-1.48,3.9-3.15,4.88h0Z"/><polygon class="cls-17" points="27.09 8.38 27.09 26.76 51.9 8.38 27.09 8.38"/><path class="cls-17" d="m67.93,8.3l-1.99.08h-1.91l-36.93,27.37v3.29l40.92-30.32c-.03-.14-.05-.28-.08-.42Z"/><path class="cls-17" d="m68.96,13.81l-41.87,31.03v5.73h37.38v2.55s7.34,0,7.34,0l-.32-20.22c-.64-6.4-1.43-12.77-2.53-19.08Z"/><polygon class="cls-18" points="51.9 8.38 27.09 26.76 27.09 35.75 64.02 8.38 51.9 8.38"/><path class="cls-18" d="m68.01,8.72l-40.92,30.32v5.8l41.87-31.03c-.3-1.7-.61-3.4-.96-5.09Z"/><path class="cls-6" d="m66.28,0h0c-1.33,0-2.42,1.02-2.42,2.28v1.55c0,1.25,1.09,2.28,2.42,2.28h0c1.33,0,2.42-1.02,2.42-2.28v-1.55c0-1.25-1.09-2.28-2.42-2.28h0Z"/><path class="cls-11" d="m63.86,3.76v.07c0,1.25,1.09,2.28,2.42,2.28h0c1.33,0,2.42-1.02,2.42-2.28v-.07h-4.85Z"/><polygon class="cls-11" points="74.94 9.05 74.51 7.14 28.76 6.03 28.76 9.05 74.94 9.05 74.94 9.05"/><path class="cls-12" d="m74.51,7.14c-.18-3.03-28.11-3.57-42.83-2.6-5.19.34-6,1.87-6.31,4.54h3.78c.26-1.07.87-1.93,5.61-1.93h39.75Z"/><polygon class="cls-11" points="25.41 8.81 22.08 32.59 26.93 32.72 29.15 9.08 25.41 8.81 25.41 8.81"/><polygon class="cls-11" points="65.64 8.44 63.18 8.44 63.18 58.07 65.64 58.07 65.64 8.44 65.64 8.44"/><path class="cls-11" d="m25.66,9.6h0c-.38-1.1-1.64-1.7-2.81-1.35l-1.44.44,1.38,3.99,1.44-.44c1.17-.36,1.81-1.54,1.43-2.64h0Z"/><path class="cls-11" d="m57.52,13.24h3.08c.55,0,1,.42,1,.94v9.79c0,.52-.45.94-1,.94h-3.08c-.55,0-1-.42-1-.94v-9.79c0-.52.45-.94,1-.94h0Z"/><path class="cls-14" d="m59.29,14.82h-.82v-3.47c0-1.74,1.51-3.16,3.36-3.17l4.72-.02v.77s-4.71.02-4.71.02c-1.4,0-2.54,1.08-2.54,2.4v3.47Z"/><path class="cls-3" d="m147.56,60.33c-.1-.1-.22-.15-.36-.15h-6.47l-5.77,8.12h-2.71s.17-3.15.17-3.15l-109.13-15.04,5.02,29.41,103.64.04v-.06s4.08,0,4.08,0l5.73-14.14h5.4c.28,0,.51-.23.51-.51l.03-4.14c0-.14-.05-.26-.15-.36Z"/><polygon class="cls-9" points="72.11 39.67 120.42 39.67 120.42 67 72.11 67 72.11 39.67 72.11 39.67"/><polygon class="cls-11" points="76.8 47.85 83.35 47.85 83.35 57.1 76.8 57.1 76.8 47.85 76.8 47.85"/><path class="cls-16" d="m124.51,62.92l-14.82-2.27c-1.1-.17-2-2.11-3.5-5.54-1.2-2.74-2.84-6.5-4.02-6.5h-15.1c-.92,0-1.62.26-2.11.79-.79.85-.79,2.14-.75,2.65l-.99.08c-.05-.64-.05-2.26,1.01-3.4.68-.73,1.63-1.1,2.83-1.1h15.1c1.82,0,3.33,3.44,4.93,7.09.85,1.94,2.13,4.86,2.74,4.96l14.82,2.27-.15.98Z"/><path class="cls-12" d="m143.04,56.59h9.32c.7,0,1.27.57,1.27,1.27v9.81c0,.7-.57,1.27-1.27,1.27h-9.32c-.7,0-1.27-.57-1.27-1.27v-9.81c0-.7.57-1.27,1.27-1.27h0Z"/><path class="cls-11" d="m27.29,31.34c8.42,0,22.65.55,30.9,8.93,1.27,1.29,12.36,6.26,13.77-10.51.16-1.88.62,13.51,2.51,16.12,5.75,7.93-39.13,18.53-42.74,4.47-.46-1.81-10.58-19.33-4.44-19h0Z"/><path class="cls-12" d="m62.77,49.98c-4.11-13.38-19.95-17.88-40.81-17.62-3.2.65-3.9,16.7-3.8,18.8.38,8.62-1.06-2.35,1.5,10.57,1.85,9.32,13.63,14.18,23.48,14.18,5.88,0,5.62-.29,9.77-4.33l9.87-21.6h0Z"/><polygon class="cls-11" points="135.3 35.76 132.89 64.1 120.42 64.1 118.53 33.5 135.3 35.76 135.3 35.76"/><polygon class="cls-8" points="134.12 34.57 131.35 64.1 130.18 64.1 133.02 34.49 134.12 34.57 134.12 34.57"/><polygon class="cls-8" points="131.55 34.38 128.76 64.1 127.59 64.1 130.45 34.29 131.55 34.38 131.55 34.38"/><polygon class="cls-8" points="128.98 34.18 126.17 64.1 125 64.1 127.88 34.1 128.98 34.18 128.98 34.18"/><polygon class="cls-8" points="126.41 33.99 123.58 64.1 122.41 64.1 125.31 33.91 126.41 33.99 126.41 33.99"/><polygon class="cls-8" points="123.83 33.8 120.99 64.1 119.82 64.1 122.74 33.71 123.83 33.8 123.83 33.8"/><polygon class="cls-8" points="121.26 33.6 118.4 64.1 117.23 64.1 120.17 33.52 121.26 33.6 121.26 33.6"/><path class="cls-12" d="m133.15,67.13l.21-2.31c.03-.36-.07-.69-.32-.96-.24-.27-.55-.42-.92-.43l-2.24-.06c-1.19-.03-2.36-1.29-2.58-2.46l-3.9-21.34c-.6-2.92,2.81-4.12,5.18-3.92l6.68.57c.01-.15.03-.31.04-.46.05-.64-.38-1.14-.98-1.35-20.31-7.27-47.6-9.88-60.15-9.39l.54,28.52-.19-8.34c22.11.6,32.88,1.62,44.88,23.15l12.48-.05c.66,0,1.21-.5,1.27-1.16h0Z"/><polygon class="cls-11" points="75.08 50.88 57.08 50.88 57.08 54.83 75.08 54.83 75.08 50.88 75.08 50.88"/><path class="cls-4" d="m126.89,33.71c-8.15-3.66-29.62-5.09-52.33-6.42l.08,3.31c16.41.26,33.54,1.07,52.25,3.11h0Z"/><path class="cls-11" d="m71.02,50.88h-13.32c.74,2.23.87,3.71,1.15,5.17h12.17v-5.17h0Z"/><path class="cls-13" d="m71.13,56.16h-12.37l-.02-.09c-.07-.35-.12-.7-.18-1.05-.19-1.13-.4-2.41-.96-4.11l-.05-.14h13.58v5.39Zm-12.19-.22h11.98v-4.96h-13.06c.53,1.64.74,2.89.92,4,.05.33.11.64.17.96Z"/><path class="cls-11" d="m114.77,51.76l-1.99-11.78c-.16-.97-.62-1.85-1.35-2.62-.72-.76-1.52-1.18-2.33-1.24l-2.7-.19c-1.43-.1-2.3,1.08-2.05,2.78l1,6.57c3.44,1.66,6.51,4.05,9.45,7.52.04-.32.03-.67-.03-1.04h0Z"/><polygon class="cls-5" points="70.27 12.6 76.28 12.6 76.28 5.34 70.27 5.34 70.27 12.6 70.27 12.6"/><polygon class="cls-5" points="69.58 5.34 76.97 5.34 76.35 2.79 70.14 2.79 69.58 5.34 69.58 5.34"/><path class="cls-1" d="m11.58,53.38c-3.12-.49-5.69-4.72-4.12-6.93,6.64-5.91,29.55-14.07,39.65-7.96v17.75c-3.34.87-6.29,1.7-11.17.94l-24.37-3.81h0Z"/><polygon class="cls-5" points="71.13 12.6 75.42 12.6 75.42 41.67 71.13 41.67 71.13 12.6 71.13 12.6"/><polygon class="cls-12" points="111.96 54.29 108.36 34.97 107.32 35.34 110.89 54.53 111.96 54.29 111.96 54.29"/><path class="cls-2" d="m128.84,35.67c1.57,2.57,3.7,3.88,6.11,4.26l.32-3.71-6.43-.55h0Z"/><polygon class="cls-3" points="82.2 52.09 85.25 52.09 85.25 56.66 82.2 56.66 82.2 52.09 82.2 52.09"/><polygon class="cls-3" points="99.41 50.35 102.46 50.35 102.46 57.79 99.41 57.79 99.41 50.35 99.41 50.35"/><polygon class="cls-11" points="94.64 50.11 97.69 50.11 97.69 57.55 94.64 57.55 94.64 50.11 94.64 50.11"/><polygon class="cls-3" points="103.29 58.2 106.34 58.2 106.34 65.63 103.29 65.63 103.29 58.2 103.29 58.2"/><path class="cls-3" d="m20.92,56.83l69.95,9.19c10.94,1.61,14.73,14.09,9.73,21.89H5.48c-2.93-3.38-4.7-7.81-4.67-12.54.06-9.11,7.64-19.53,20.12-18.54h0Z"/><path class="cls-4" d="m88.4,66.52c-7.49,0-13.57,6.08-13.57,13.57s6.08,13.57,13.57,13.57,13.57-6.08,13.57-13.57-6.08-13.57-13.57-13.57h0Z"/><path class="cls-10" d="m88.4,68.88c-6.19,0-11.2,5.02-11.2,11.2s5.02,11.2,11.2,11.2,11.2-5.02,11.2-11.2-5.02-11.2-11.2-11.2h0Z"/><path class="cls-4" d="m88.4,75.42c-2.57,0-4.66,2.09-4.66,4.66s2.09,4.66,4.66,4.66,4.66-2.09,4.66-4.66-2.09-4.66-4.66-4.66h0Z"/><path class="cls-4" d="m88.4,72.78c-.4,0-.72.32-.72.72s.32.72.72.72.72-.32.72-.72-.32-.72-.72-.72h0Z"/><path class="cls-4" d="m92.69,74.17c-.32-.23-.77-.16-1.01.16-.23.32-.16.77.16,1.01.32.23.77.16,1.01-.16.23-.32.16-.77-.16-1.01h0Z"/><path class="cls-4" d="m95.35,77.83c-.12-.38-.53-.59-.91-.46-.38.12-.59.53-.46.91.12.38.53.59.91.46.38-.12.59-.53.46-.91h0Z"/><path class="cls-4" d="m95.35,82.34c.12-.38-.08-.78-.46-.91-.38-.12-.78.08-.91.46-.12.38.08.78.46.91.38.12.78-.08.91-.46h0Z"/><path class="cls-4" d="m92.69,86c.32-.23.39-.68.16-1.01-.23-.32-.68-.39-1.01-.16-.32.23-.39.68-.16,1.01.23.32.68.39,1.01.16h0Z"/><path class="cls-4" d="m88.4,87.39c.4,0,.72-.32.72-.72s-.32-.72-.72-.72-.72.32-.72.72.32.72.72.72h0Z"/><path class="cls-4" d="m84.11,86c.32.23.77.16,1.01-.16.23-.32.16-.77-.16-1.01-.32-.23-.77-.16-1.01.16-.23.32-.16.77.16,1.01h0Z"/><path class="cls-4" d="m81.45,82.34c.12.38.53.59.91.46.38-.12.59-.53.46-.91-.12-.38-.53-.59-.91-.46-.38.12-.59.53-.46.91h0Z"/><path class="cls-4" d="m81.45,77.83c-.12.38.08.78.46.91.38.12.78-.08.91-.46.12-.38-.08-.78-.46-.91-.38-.12-.78.08-.91.46h0Z"/><path class="cls-4" d="m84.1,74.18c-.32.23-.39.68-.16,1.01.23.32.68.39,1.01.16.32-.23.39-.68.16-1.01-.23-.32-.68-.39-1.01-.16h0Z"/><path class="cls-1" d="m40.16,83.89c2.53,0,4.58,2.05,4.58,4.58s-2.05,4.58-4.58,4.58-4.58-2.05-4.58-4.58,2.05-4.58,4.58-4.58h0Z"/><path class="cls-11" d="m40.16,85.7c1.53,0,2.77,1.24,2.77,2.77s-1.24,2.77-2.77,2.77-2.77-1.24-2.77-2.77,1.24-2.77,2.77-2.77h0Z"/><path class="cls-1" d="m40.16,87.07c.77,0,1.4.63,1.4,1.4s-.63,1.4-1.4,1.4-1.4-.63-1.4-1.4.63-1.4,1.4-1.4h0Z"/><path class="cls-1" d="m49.32,83.89c2.53,0,4.58,2.05,4.58,4.58s-2.05,4.58-4.58,4.58-4.58-2.05-4.58-4.58,2.05-4.58,4.58-4.58h0Z"/><path class="cls-11" d="m49.32,85.7c1.53,0,2.77,1.24,2.77,2.77s-1.24,2.77-2.77,2.77-2.77-1.24-2.77-2.77,1.24-2.77,2.77-2.77h0Z"/><path class="cls-1" d="m49.32,87.07c.77,0,1.4.63,1.4,1.4s-.63,1.4-1.4,1.4-1.4-.63-1.4-1.4.63-1.4,1.4-1.4h0Z"/><path class="cls-1" d="m61.26,83.89c2.53,0,4.58,2.05,4.58,4.58s-2.05,4.58-4.58,4.58-4.58-2.05-4.58-4.58,2.05-4.58,4.58-4.58h0Z"/><path class="cls-11" d="m61.26,85.7c1.53,0,2.77,1.24,2.77,2.77s-1.24,2.77-2.77,2.77-2.77-1.24-2.77-2.77,1.24-2.77,2.77-2.77h0Z"/><path class="cls-1" d="m61.26,87.07c.77,0,1.4.63,1.4,1.4s-.63,1.4-1.4,1.4-1.4-.63-1.4-1.4.63-1.4,1.4-1.4h0Z"/><path class="cls-1" d="m70.43,83.89c2.53,0,4.58,2.05,4.58,4.58s-2.05,4.58-4.58,4.58-4.58-2.05-4.58-4.58,2.05-4.58,4.58-4.58h0Z"/><path class="cls-11" d="m70.43,85.7c1.53,0,2.77,1.24,2.77,2.77s-1.24,2.77-2.77,2.77-2.77-1.24-2.77-2.77,1.24-2.77,2.77-2.77h0Z"/><path class="cls-1" d="m70.43,87.07c.77,0,1.4.63,1.4,1.4s-.63,1.4-1.4,1.4-1.4-.63-1.4-1.4.63-1.4,1.4-1.4h0Z"/><path class="cls-4" d="m19.79,57.24c-10.06,0-18.21,8.15-18.21,18.21s8.15,18.21,18.21,18.21,18.21-8.15,18.21-18.21-8.15-18.21-18.21-18.21h0Z"/><path class="cls-10" d="m19.79,60.41c-8.3,0-15.03,6.73-15.03,15.03s6.73,15.03,15.03,15.03,15.03-6.73,15.03-15.03-6.73-15.03-15.03-15.03h0Z"/><path class="cls-4" d="m19.79,69.19c-3.45,0-6.26,2.8-6.26,6.26s2.8,6.26,6.26,6.26,6.26-2.8,6.26-6.26-2.8-6.26-6.26-6.26h0Z"/><path class="cls-4" d="m19.79,65.64c-.53,0-.97.43-.97.97s.43.97.97.97.97-.43.97-.97-.43-.97-.97-.97h0Z"/><path class="cls-4" d="m25.55,67.51c-.43-.31-1.04-.22-1.35.21-.31.43-.22,1.04.21,1.35.43.31,1.04.22,1.35-.21.31-.43.22-1.04-.21-1.35h0Z"/><path class="cls-4" d="m29.11,72.42c-.16-.51-.71-.79-1.22-.62-.51.16-.79.71-.62,1.22.16.51.71.79,1.22.62.51-.16.78-.71.62-1.22h0Z"/><path class="cls-4" d="m29.11,78.47c.16-.51-.11-1.05-.62-1.22-.51-.16-1.05.11-1.22.62-.16.51.11,1.05.62,1.22.51.17,1.05-.11,1.22-.62h0Z"/><path class="cls-4" d="m25.55,83.38c.43-.31.53-.92.21-1.35-.31-.43-.92-.53-1.35-.21-.43.31-.53.92-.21,1.35.31.43.92.53,1.35.21h0Z"/><path class="cls-4" d="m19.79,85.25c.53,0,.97-.43.97-.97s-.43-.97-.97-.97-.97.43-.97.97.43.97.97.97h0Z"/><path class="cls-4" d="m14.03,83.38c.43.31,1.04.22,1.35-.21.31-.43.22-1.04-.21-1.35-.43-.31-1.04-.22-1.35.21-.31.43-.22,1.04.21,1.35h0Z"/><path class="cls-4" d="m10.47,78.48c.16.51.71.79,1.22.62.51-.16.79-.71.62-1.22-.16-.51-.71-.79-1.22-.62-.51.16-.79.71-.62,1.22h0Z"/><path class="cls-4" d="m10.47,72.42c-.16.51.11,1.05.62,1.22.51.17,1.05-.11,1.22-.62.17-.51-.11-1.05-.62-1.22-.51-.17-1.05.11-1.22.62h0Z"/><path class="cls-4" d="m14.03,67.52c-.43.31-.53.92-.21,1.35.31.43.92.53,1.35.21.43-.31.53-.92.21-1.35-.31-.43-.92-.53-1.35-.21h0Z"/><path class="cls-14" d="m88.67,94.98H18.88c-4.88,0-9.54-1.97-13.1-5.56C2.07,85.69-.03,80.57,0,75.37c.06-9.77,8.13-20.36,20.98-19.34l69.99,9.19c8.72,1.28,12.93,8.93,12.59,15.82-.3,6.11-4.38,13.43-14.87,13.93h-.02ZM19.3,57.57c-10.86,0-17.64,9.24-17.69,17.81-.03,4.77,1.91,9.48,5.31,12.91,3.26,3.28,7.51,5.08,11.96,5.08h69.75c9.4-.46,13.05-6.97,13.32-12.4.3-6.17-3.45-13.01-11.2-14.15l-69.93-9.19c-.49-.04-1.01-.06-1.52-.06Z"/><polygon class="cls-11" points="50 63.53 69.27 65.86 68.57 71.62 49.3 69.29 50 63.53 50 63.53"/><polygon class="cls-1" points="40.49 61.93 59.76 64.27 58.48 73.25 39.21 70.92 40.49 61.93 40.49 61.93"/><path class="cls-9" d="m64.01,76.8c1.18,0,2.14.96,2.14,2.14s-.96,2.14-2.14,2.14-2.14-.96-2.14-2.14.96-2.14,2.14-2.14h0Z"/><path class="cls-9" d="m71.28,73.2c1.89,0,3.42,1.53,3.42,3.42s-1.53,3.42-3.42,3.42-3.42-1.53-3.42-3.42,1.53-3.42,3.42-3.42h0Z"/><path class="cls-12" d="m71.28,74.77c1.03,0,1.86.83,1.86,1.86s-.83,1.86-1.86,1.86-1.86-.83-1.86-1.86.83-1.86,1.86-1.86h0Z"/><g class="cls-15"><path class="cls-7" d="m19.79,57.24v36.42c10.05,0,18.21-8.15,18.21-18.21s-8.15-18.21-18.21-18.21Z"/></g><g class="cls-15"><path class="cls-7" d="m88.4,66.52v27.14c7.49,0,13.57-6.08,13.57-13.57s-6.08-13.57-13.57-13.57Z"/></g><g class="cls-15"><path class="cls-7" d="m40.16,83.89h0v9.17h0c2.53,0,4.58-2.05,4.58-4.58s-2.05-4.58-4.58-4.58Z"/></g><g class="cls-15"><path class="cls-7" d="m49.32,83.89s-.01,0-.02,0v9.16s.01,0,.02,0c2.53,0,4.58-2.05,4.58-4.58s-2.05-4.58-4.58-4.58Z"/></g><g class="cls-15"><path class="cls-7" d="m61.26,83.89v9.17c2.53,0,4.58-2.05,4.58-4.58s-2.05-4.58-4.58-4.58Z"/></g><g class="cls-15"><path class="cls-7" d="m70.43,83.89v9.17c2.53,0,4.58-2.05,4.58-4.58s-2.05-4.58-4.58-4.58Z"/></g><path class="cls-5" d="m13.1,48.71c10.66,1.98,21.52,3.96,32.28,2.61.28-.04.57-.07.85-.09v-13.26c-8.29-5.01-31.06.06-38.77,8.47-.18.25-.3.53-.37.83,1.94.67,3.99,1.06,6.01,1.44Z"/><path class="cls-1" d="m47.11,38.49c2.87,1.83,2.94,3.54,6.63,4.11,7.59,1.19,10.44-.01,13.71,1.35,14.1,5.86,12.27,19.85.14,18.17l-12.07-1.64c-2.35-.32-7-2.83-8.41-4.24v-17.75h0Z"/><path class="cls-5" d="m47.58,51.3c.46.11.88.32,1.31.53,8.67,4.27,18.39,6.36,28.05,6.07,1.59-4.23-1.19-10.5-9.48-13.94-3.27-1.36-6.13-.16-13.71-1.35-3.69-.58-3.75-2.29-6.63-4.11v12.74c.16.01.31.03.47.07Z"/><path class="cls-1" d="m70.78,49.15c2.65,0,4.79,2.15,4.79,4.79s-2.15,4.79-4.79,4.79-4.79-2.15-4.79-4.79,2.15-4.79,4.79-4.79h0Z"/><polygon class="cls-1" points="71.13 41.68 75.42 41.68 75.42 53.53 71.13 53.53 71.13 41.68 71.13 41.68"/><polygon class="cls-5" points="70.27 44.14 76.28 44.14 76.28 37.01 70.27 37.01 70.27 44.14 70.27 44.14"/></g></svg>