<?xml version="1.0" encoding="UTF-8"?><svg id="Layer_2" xmlns="http://www.w3.org/2000/svg" viewBox="0 0 180.03 101.67"><defs><style>.cls-1,.cls-2{fill:#00a551;}.cls-3{fill:#58595b;}.cls-3,.cls-4,.cls-5,.cls-6,.cls-7,.cls-8,.cls-9,.cls-10,.cls-11,.cls-12,.cls-13,.cls-14,.cls-15,.cls-16,.cls-2{fill-rule:evenodd;}.cls-17,.cls-15{fill:#404041;}.cls-4{fill:#d0d2d3;}.cls-5{fill:#929497;}.cls-6{fill:#bbbdbf;}.cls-18{opacity:.33;}.cls-7,.cls-19{fill:#17854a;}.cls-8{fill:#ffdd0f;}.cls-9{fill:#6d6e70;}.cls-10{fill:#f48120;}.cls-11{fill:#020000;}.cls-12,.cls-20{fill:#231f20;}.cls-13{fill:#156b40;}.cls-14{fill:#eeb926;}.cls-16{fill:#a6a8ab;}.cls-21{fill:#2b646f;}.cls-22{fill:#4eaaa7;}</style></defs><g id="Layer_1-2"><polygon class="cls-15" points="64.32 16.62 65.33 16.62 65.33 25.21 64.32 25.21 64.32 16.62 64.32 16.62"/><path class="cls-10" d="m64.83,12.27h0c.94,0,1.72.77,1.72,1.72v1.17c0,.94-.77,1.72-1.72,1.72h0c-.94,0-1.72-.77-1.72-1.72v-1.17c0-.94.77-1.72,1.72-1.72h0Z"/><path class="cls-15" d="m63.11,15.1v.05c0,.94.77,1.72,1.72,1.72h0c.94,0,1.72-.77,1.72-1.72v-.05h-3.43Z"/><polygon class="cls-21" points="100.05 22.16 88.96 22.16 100.05 31.06 100.05 22.16"/><polygon class="cls-21" points="78.63 22.16 74.85 22.16 100.05 42.37 100.05 39.34 78.63 22.16"/><path class="cls-21" d="m65.07,22.16l-1.79-.07c-1.5,7.31-2.47,14.72-3.21,22.18l-.29,18.25h6.62s0-2.3,0-2.3h33.66v-12.51l-31.86-25.55h-3.12Z"/><polygon class="cls-22" points="100.05 31.06 88.96 22.16 78.63 22.16 100.05 39.34 100.05 31.06"/><polygon class="cls-22" points="68.19 22.16 100.05 47.71 100.05 42.37 74.85 22.16 68.19 22.16"/><path class="cls-2" d="m59.86,21.04c.16-2.73,24-3.32,37.44-2.45,4.74.31,6.04.61,7.49,1.84l-6.15,2.35c-.24-.97-.98-1.75-5.31-1.75h-33.47Z"/><path class="cls-15" d="m72.77,86.68l-19.6-24.1c-5.99-7.37-15.83-6.98-21.8.3l-19.35,23.61c-.61.74-1.05,1.55-1.35,2.39h63.34c-.27-.78-.68-1.52-1.23-2.2h0Z"/><path class="cls-15" d="m177.65,86.68l-19.6-24.1c-5.99-7.37-15.83-6.98-21.8.3l-19.35,23.61c-.61.74-1.05,1.55-1.35,2.39h63.34c-.27-.78-.68-1.52-1.23-2.2h0Z"/><path class="cls-3" d="m144.58,49.53h-26.27c-1.33,0-2.42,1.14-2.42,2.54v21.69c0,1.4,1.09,2.54,2.42,2.54h26.27c1.33,0,2.42-1.14,2.42-2.54v-21.69c0-1.4-1.09-2.54-2.42-2.54h0Z"/><path class="cls-9" d="m123.83,48.74h-.42c-.42,0-.76.35-.76.78v25.98c0,.43.34.78.76.78h.42c.42,0,.76-.35.76-.78v-25.98c0-.43-.34-.78-.76-.78h0Z"/><path class="cls-9" d="m130.29,48.74h-.42c-.42,0-.76.35-.76.78v25.98c0,.43.34.78.76.78h.42c.42,0,.76-.35.76-.78v-25.98c0-.43-.34-.78-.76-.78h0Z"/><path class="cls-9" d="m136.76,48.74h-.42c-.42,0-.76.35-.76.78v25.98c0,.43.34.78.76.78h.42c.42,0,.76-.35.76-.78v-25.98c0-.43-.34-.78-.76-.78h0Z"/><path class="cls-9" d="m143.22,48.74h-.42c-.42,0-.76.35-.76.78v25.98c0,.43.34.78.76.78h.42c.42,0,.76-.35.76-.78v-25.98c0-.43-.34-.78-.76-.78h0Z"/><path class="cls-10" d="m145.46,44.18h0c1.13,0,2.06.92,2.06,2.06v1.4c0,1.13-.92,2.06-2.06,2.06h0c-1.13,0-2.06-.92-2.06-2.06v-1.4c0-1.13.92-2.06,2.06-2.06h0Z"/><path class="cls-15" d="m147.52,47.56v.06c0,1.13-.92,2.06-2.06,2.06h0c-1.13,0-2.06-.92-2.06-2.06v-.06h4.11Z"/><path class="cls-15" d="m70.56,21.03h21.97c.15-.68.81-1.18,1.6-1.18h9.36c.9,0,1.63.66,1.63,1.47h0c0,.81-.73,1.47-1.63,1.47h-9.36c-.1,0-.2,0-.3-.02h-34.39c-.75,0-1.36-.53-1.36-1.19v-.54c0-.65.61-1.19,1.36-1.19h9.76c.75,0,1.36.53,1.36,1.18h0Z"/><polygon class="cls-15" points="101.48 22.55 104.3 44 100.19 44.12 98.31 22.78 101.48 22.55 101.48 22.55"/><polygon class="cls-13" points="62.27 48.85 14.68 48.85 14.68 75.79 62.27 75.79 62.27 48.85 62.27 48.85"/><path class="cls-19" d="m10.64,71.78l-.15-.98,14.6-2.24c.6-.09,1.86-2.97,2.7-4.88,1.57-3.6,3.06-6.99,4.86-6.99h14.88c1.19,0,2.13.37,2.8,1.09,1.04,1.13,1.05,2.72,1,3.36l-.99-.07c.04-.5.04-1.77-.74-2.61-.47-.51-1.17-.77-2.07-.77h-14.88c-1.15,0-2.77,3.7-3.95,6.4-1.48,3.38-2.37,5.3-3.45,5.46l-14.6,2.24Z"/><path class="cls-15" d="m100.05,35.57c-10.02-.14-17.37,5.06-26.16,14.94-1.07,1.2-10.98,8.66-12.19-6.78-.13-1.73-.19,8.81-1.81,11.21-4.92,7.3,33.47,17.06,36.56,4.12.4-1.66,8.85-23.79,3.6-23.49h0Z"/><polygon class="cls-7" points="105.44 82.21 3.31 82.25 2.85 73.97 110.39 59.15 105.44 82.21 105.44 82.21"/><polygon class="cls-15" points="0 45 2.38 72.93 14.68 72.93 16.53 42.78 0 45 0 45"/><polygon class="cls-12" points="1.17 43.83 3.9 72.93 5.05 72.93 2.25 43.75 1.17 43.83 1.17 43.83"/><polygon class="cls-12" points="3.7 43.64 6.45 72.93 7.61 72.93 4.79 43.56 3.7 43.64 3.7 43.64"/><polygon class="cls-12" points="6.24 43.45 9 72.93 10.16 72.93 7.32 43.37 6.24 43.45 6.24 43.45"/><polygon class="cls-12" points="8.77 43.26 11.56 72.93 12.71 72.93 9.85 43.18 8.77 43.26 8.77 43.26"/><polygon class="cls-12" points="11.31 43.07 14.11 72.93 15.26 72.93 12.39 42.99 11.31 43.07 11.31 43.07"/><polygon class="cls-12" points="13.84 42.88 16.66 72.93 17.82 72.93 14.92 42.8 13.84 42.88 13.84 42.88"/><path class="cls-2" d="m2.13,75.92l-.21-2.28c-.03-.36.07-.68.31-.95.24-.27.55-.41.91-.42l2.21-.06c1.17-.03,2.33-1.27,2.54-2.42l3.84-21.03c.59-2.87-2.77-4.06-5.11-3.86L.04,45.45c-.01-.15-.03-.3-.04-.46-.05-.63.36-1.19.97-1.33,23.78-5.49,47.27-4.94,59.63-4.46l-.9,23.3.19-8.22c-21.78.59-32.4,1.59-44.23,22.81l-12.3-.05c-.65,0-1.19-.5-1.25-1.14h0Z"/><path class="cls-7" d="m152.39,55.39c3.44.66,6.63-.1,7.12-1.71.5-1.61-1.89-3.45-5.33-4.11-3.44-.66-6.63.1-7.12,1.71-.5,1.61,1.89,3.45,5.33,4.11h0Z"/><path class="cls-10" d="m159.39,53.97c.05-.09.09-.19.12-.29.39-1.25-.98-2.65-3.23-3.52.33,1.64,1.46,3.04,3.1,3.81h0Z"/><polygon class="cls-15" points="67.37 22.2 69.46 22.2 69.46 66.99 67.37 66.99 67.37 22.2 67.37 22.2"/><path class="cls-15" d="m74.26,26.54h-2.61c-.46,0-.85.38-.85.85v8.84c0,.46.38.85.85.85h2.61c.46,0,.84-.38.84-.85v-8.84c0-.46-.38-.85-.84-.85h0Z"/><path class="cls-17" d="m73.46,27.96h-.71v-3.13c0-1.18-.96-2.15-2.15-2.16l-4-.02v-.71s4,.02,4,.02c1.57,0,2.85,1.3,2.85,2.87v3.13Z"/><path class="cls-8" d="m8.22,44.24c8.13-2.36,29.32-2.93,51.73-3.42l-.17,2.28c-16.17-.14-33.07.1-51.56,1.14h0Z"/><path class="cls-15" d="m20.24,60.77l1.97-11.6c.16-.95.61-1.83,1.33-2.58.71-.75,1.49-1.16,2.3-1.22l2.66-.19c1.41-.1,2.27,1.07,2.02,2.74l-.98,6.48c-3.39,1.64-6.41,3.99-9.31,7.41-.04-.31-.03-.66.03-1.03h0Z"/><polygon class="cls-2" points="23.01 63.27 26.56 44.22 27.58 44.59 24.06 63.5 23.01 63.27 23.01 63.27"/><path class="cls-6" d="m6.38,44.92c-1.55,2.54-3.65,3.82-6.02,4.19l-.31-3.66,6.33-.54h0Z"/><polygon class="cls-7" points="35.37 59.38 32.37 59.38 32.37 66.71 35.37 66.71 35.37 59.38 35.37 59.38"/><polygon class="cls-15" points="119.11 70.39 97.37 70.39 97.37 81.47 119.11 81.47 119.11 70.39 119.11 70.39"/><polygon class="cls-13" points="111.97 59.7 104.72 75.93 90.75 76.21 95.79 55.8 104.72 62.93 108.54 59.1 111.97 59.7 111.97 59.7"/><path class="cls-13" d="m130.12,74.82h-15.13c-.55,0-1.01.45-1.01,1.01v6.9c0,.55.45,1.01,1.01,1.01h15.13c.55,0,1.01-.45,1.01-1.01v-6.9c0-.55-.45-1.01-1.01-1.01h0Z"/><polygon class="cls-15" points="158.47 55.47 149.69 68.79 121.6 80.75 121.47 69.88 138.74 52.15 149.68 50.99 158.47 55.47 158.47 55.47"/><path class="cls-20" d="m123.28,101.67c-3.29,0-6.33-2.09-7.92-5.46-1.66-3.51-1.28-7.41.99-10.17l19.36-23.61c3.08-3.75,7.35-5.91,11.72-5.91s8.24,1.99,11.18,5.61l19.6,24.1c2.11,2.59,2.41,6.32.8,9.72-1.64,3.45-4.75,5.6-8.12,5.61l-47.59.11Zm24.14-43.73c-3.94,0-7.82,1.96-10.62,5.39l-19.36,23.61c-2.29,2.8-1.92,6.31-.8,8.67,1.36,2.87,3.9,4.65,6.64,4.65v.71-.71s47.59-.11,47.59-.11c2.82,0,5.44-1.84,6.84-4.8,1.38-2.91,1.14-6.06-.62-8.22l-19.6-24.1c-2.67-3.28-6.25-5.09-10.08-5.09ZM18.4,101.67c-3.29,0-6.33-2.09-7.92-5.46-1.66-3.51-1.28-7.41.99-10.17l19.36-23.61c3.08-3.75,7.35-5.91,11.72-5.91s8.24,1.99,11.18,5.61l19.6,24.1c2.11,2.59,2.41,6.32.8,9.73-1.64,3.45-4.75,5.6-8.12,5.61l-47.59.11Zm24.14-43.73c-3.94,0-7.82,1.96-10.62,5.39l-19.36,23.61c-2.29,2.8-1.92,6.31-.8,8.67,1.36,2.87,3.9,4.65,6.64,4.65v.71-.71s47.59-.11,47.59-.11c2.82,0,5.44-1.84,6.84-4.8,1.38-2.91,1.14-6.06-.62-8.22l-19.6-24.1c-2.67-3.28-6.25-5.09-10.08-5.09Z"/><path class="cls-7" d="m57.21,82.24h-28.65c-.72,0-1.43.6-1.31,1.31l1.75,10.3c.12.71.59,1.31,1.31,1.31h25.47c.72,0,1.21-.6,1.31-1.31l1.43-10.3c.1-.72-.59-1.31-1.31-1.31h0Z"/><path class="cls-7" d="m162.1,82.24h-28.65c-.72,0-1.43.6-1.31,1.31l1.75,10.3c.12.71.59,1.31,1.31,1.31h25.47c.72,0,1.21-.6,1.31-1.31l1.43-10.3c.1-.72-.59-1.31-1.31-1.31h0Z"/><path class="cls-7" d="m104.96,53.7l-22.76,2.82-3.75-8.21c7.13-6.73,14.49-12.48,23.1-11.14,2.62.41,3.65,2.49,3.59,5.94l-.18,10.58h0Z"/><path class="cls-13" d="m103.27,56.45l-21.08.07-3.75-8.21c.87-.82,1.75-1.63,2.63-2.41l8.81,4.25h15.14l-.08,4.65c-.02.91-.76,1.65-1.67,1.65h0Z"/><path class="cls-8" d="m65.37,83.31c4.74,0,8.58,3.84,8.58,8.58s-3.84,8.58-8.58,8.58-8.58-3.84-8.58-8.58,3.84-8.58,8.58-8.58h0Z"/><path class="cls-14" d="m65.37,84.81c3.91,0,7.09,3.17,7.09,7.09s-3.17,7.09-7.09,7.09-7.09-3.17-7.09-7.09,3.17-7.09,7.09-7.09h0Z"/><path class="cls-8" d="m65.37,88.95c1.63,0,2.95,1.32,2.95,2.95s-1.32,2.95-2.95,2.95-2.95-1.32-2.95-2.95,1.32-2.95,2.95-2.95h0Z"/><path class="cls-8" d="m65.37,87.28c.25,0,.46.2.46.46s-.2.45-.46.45-.46-.2-.46-.45.2-.46.46-.46h0Z"/><path class="cls-8" d="m62.65,88.16c.2-.15.49-.1.64.1.15.2.1.49-.1.64-.2.15-.49.1-.64-.1-.15-.2-.1-.49.1-.64h0Z"/><path class="cls-8" d="m60.97,90.47c.08-.24.33-.37.57-.29.24.08.37.33.29.57-.08.24-.33.37-.57.29-.24-.08-.37-.33-.29-.57h0Z"/><path class="cls-8" d="m60.97,93.32c-.08-.24.05-.5.29-.57.24-.08.5.05.57.29.08.24-.05.5-.29.57-.24.08-.5-.05-.57-.29h0Z"/><path class="cls-8" d="m62.65,95.64c-.2-.15-.25-.43-.1-.64.15-.2.43-.25.64-.1.2.15.25.43.1.64-.15.2-.43.25-.64.1h0Z"/><path class="cls-8" d="m65.37,96.52c-.25,0-.46-.2-.46-.46s.2-.46.46-.46.46.2.46.46-.2.46-.46.46h0Z"/><path class="cls-8" d="m68.09,95.64c-.2.15-.49.1-.64-.1-.15-.2-.1-.49.1-.64.2-.15.49-.1.64.1.15.2.1.49-.1.64h0Z"/><path class="cls-8" d="m69.76,93.33c-.08.24-.33.37-.57.29-.24-.08-.37-.33-.29-.57.08-.24.33-.37.57-.29.24.08.37.33.29.57h0Z"/><path class="cls-8" d="m69.76,90.47c.08.24-.05.5-.29.57-.24.08-.5-.05-.57-.29-.08-.24.05-.5.29-.57.24-.08.5.05.57.29h0Z"/><path class="cls-8" d="m68.09,88.16c.2.15.25.43.1.64-.15.2-.43.25-.64.1-.2-.15-.25-.43-.1-.64.15-.2.43-.25.64-.1h0Z"/><path class="cls-8" d="m19.31,83.31c4.74,0,8.58,3.84,8.58,8.58s-3.84,8.58-8.58,8.58-8.58-3.84-8.58-8.58,3.84-8.58,8.58-8.58h0Z"/><path class="cls-14" d="m19.31,84.81c3.91,0,7.09,3.17,7.09,7.09s-3.17,7.09-7.09,7.09-7.09-3.17-7.09-7.09,3.17-7.09,7.09-7.09h0Z"/><path class="cls-8" d="m19.31,88.95c1.63,0,2.95,1.32,2.95,2.95s-1.32,2.95-2.95,2.95-2.95-1.32-2.95-2.95,1.32-2.95,2.95-2.95h0Z"/><path class="cls-8" d="m19.31,87.28c.25,0,.46.2.46.46s-.2.45-.46.45-.46-.2-.46-.45.2-.46.46-.46h0Z"/><path class="cls-8" d="m16.59,88.16c.2-.15.49-.1.64.1.15.2.1.49-.1.64-.2.15-.49.1-.64-.1-.15-.2-.1-.49.1-.64h0Z"/><path class="cls-8" d="m14.91,90.47c.08-.24.33-.37.57-.29.24.08.37.33.29.57-.08.24-.33.37-.57.29-.24-.08-.37-.33-.29-.57h0Z"/><path class="cls-8" d="m14.91,93.32c-.08-.24.05-.5.29-.57.24-.08.5.05.57.29.08.24-.05.5-.29.57-.24.08-.5-.05-.57-.29h0Z"/><path class="cls-8" d="m16.59,95.64c-.2-.15-.25-.43-.1-.64.15-.2.43-.25.64-.1.2.15.25.43.1.64-.15.2-.43.25-.64.1h0Z"/><path class="cls-8" d="m19.31,96.52c-.25,0-.46-.2-.46-.46s.2-.46.46-.46.46.2.46.46-.2.46-.46.46h0Z"/><path class="cls-8" d="m22.02,95.64c-.2.15-.49.1-.64-.1-.15-.2-.1-.49.1-.64.2-.15.49-.1.64.1.15.2.1.49-.1.64h0Z"/><path class="cls-8" d="m23.7,93.33c-.08.24-.33.37-.57.29-.24-.08-.37-.33-.29-.57.08-.24.33-.37.57-.29.24.08.37.33.29.57h0Z"/><path class="cls-8" d="m23.7,90.47c.08.24-.05.5-.29.57-.24.08-.5-.05-.57-.29-.08-.24.05-.5.29-.57.24-.08.5.05.57.29h0Z"/><path class="cls-8" d="m22.02,88.16c.2.15.25.43.1.64-.15.2-.43.25-.64.1-.2-.15-.25-.43-.1-.64.15-.2.43-.25.64-.1h0Z"/><path class="cls-8" d="m170.26,83.31c4.74,0,8.58,3.84,8.58,8.58s-3.84,8.58-8.58,8.58-8.58-3.84-8.58-8.58,3.84-8.58,8.58-8.58h0Z"/><path class="cls-14" d="m170.26,84.81c3.91,0,7.09,3.17,7.09,7.09s-3.17,7.09-7.09,7.09-7.09-3.17-7.09-7.09,3.17-7.09,7.09-7.09h0Z"/><path class="cls-8" d="m170.26,88.95c1.63,0,2.95,1.32,2.95,2.95s-1.32,2.95-2.95,2.95-2.95-1.32-2.95-2.95,1.32-2.95,2.95-2.95h0Z"/><path class="cls-8" d="m170.26,87.28c.25,0,.46.2.46.46s-.2.45-.46.45-.46-.2-.46-.45.2-.46.46-.46h0Z"/><path class="cls-8" d="m167.54,88.16c.2-.15.49-.1.64.1.15.2.1.49-.1.64-.2.15-.49.1-.64-.1-.15-.2-.1-.49.1-.64h0Z"/><path class="cls-8" d="m165.86,90.47c.08-.24.33-.37.57-.29.24.08.37.33.29.57-.08.24-.33.37-.57.29-.24-.08-.37-.33-.29-.57h0Z"/><path class="cls-8" d="m165.86,93.32c-.08-.24.05-.5.29-.57.24-.08.5.05.57.29.08.24-.05.5-.29.57-.24.08-.5-.05-.57-.29h0Z"/><path class="cls-8" d="m167.54,95.64c-.2-.15-.25-.43-.1-.64.15-.2.43-.25.64-.1.2.15.25.43.1.64-.15.2-.43.25-.64.1h0Z"/><path class="cls-8" d="m170.25,96.52c-.25,0-.46-.2-.46-.46s.2-.46.46-.46.46.2.46.46-.2.46-.46.46h0Z"/><path class="cls-8" d="m172.97,95.64c-.2.15-.49.1-.64-.1-.15-.2-.1-.49.1-.64.2-.15.49-.1.64.1.15.2.1.49-.1.64h0Z"/><path class="cls-8" d="m174.65,93.33c-.08.24-.33.37-.57.29-.24-.08-.37-.33-.29-.57.08-.24.33-.37.57-.29.24.08.37.33.29.57h0Z"/><path class="cls-8" d="m174.65,90.47c.08.24-.05.5-.29.57-.24.08-.5-.05-.57-.29-.08-.24.05-.5.29-.57.24-.08.5.05.57.29h0Z"/><path class="cls-8" d="m172.97,88.16c.2.15.25.43.1.64-.15.2-.43.25-.64.1-.2-.15-.25-.43-.1-.64.15-.2.43-.25.64-.1h0Z"/><path class="cls-8" d="m124.19,83.31c4.74,0,8.58,3.84,8.58,8.58s-3.84,8.58-8.58,8.58-8.58-3.84-8.58-8.58,3.84-8.58,8.58-8.58h0Z"/><path class="cls-14" d="m124.19,84.81c3.91,0,7.09,3.17,7.09,7.09s-3.17,7.09-7.09,7.09-7.09-3.17-7.09-7.09,3.17-7.09,7.09-7.09h0Z"/><path class="cls-8" d="m124.19,88.95c1.63,0,2.95,1.32,2.95,2.95s-1.32,2.95-2.95,2.95-2.95-1.32-2.95-2.95,1.32-2.95,2.95-2.95h0Z"/><path class="cls-8" d="m124.19,87.28c.25,0,.46.2.46.46s-.2.45-.46.45-.46-.2-.46-.45.2-.46.46-.46h0Z"/><path class="cls-8" d="m121.48,88.16c.2-.15.49-.1.64.1.15.2.1.49-.1.64-.2.15-.49.1-.64-.1-.15-.2-.1-.49.1-.64h0Z"/><path class="cls-8" d="m119.8,90.47c.08-.24.33-.37.57-.29.24.08.37.33.29.57-.08.24-.33.37-.57.29-.24-.08-.37-.33-.29-.57h0Z"/><path class="cls-8" d="m119.8,93.32c-.08-.24.05-.5.29-.57.24-.08.5.05.57.29.08.24-.05.5-.29.57-.24.08-.5-.05-.57-.29h0Z"/><path class="cls-8" d="m121.48,95.64c-.2-.15-.25-.43-.1-.64.15-.2.43-.25.64-.1.2.15.25.43.1.64-.15.2-.43.25-.64.1h0Z"/><path class="cls-8" d="m124.19,96.52c-.25,0-.46-.2-.46-.46s.2-.46.46-.46.46.2.46.46-.2.46-.46.46h0Z"/><path class="cls-8" d="m126.91,95.64c-.2.15-.49.1-.64-.1-.15-.2-.1-.49.1-.64.2-.15.49-.1.64.1.15.2.1.49-.1.64h0Z"/><path class="cls-8" d="m128.59,93.33c-.08.24-.33.37-.57.29-.24-.08-.37-.33-.29-.57.08-.24.33-.37.57-.29.24.08.37.33.29.57h0Z"/><path class="cls-8" d="m128.59,90.47c.08.24-.05.5-.29.57-.24.08-.5-.05-.57-.29-.08-.24.05-.5.29-.57.24-.08.5.05.57.29h0Z"/><path class="cls-8" d="m126.91,88.16c.2.15.25.43.1.64-.15.2-.43.25-.64.1-.2-.15-.25-.43-.1-.64.15-.2.43-.25.64-.1h0Z"/><path class="cls-3" d="m49.54,90.75c-2.67,0-4.84,2.17-4.84,4.84s2.17,4.84,4.84,4.84,4.84-2.17,4.84-4.84-2.17-4.84-4.84-4.84h0Z"/><path class="cls-15" d="m49.54,92.67c-1.62,0-2.93,1.31-2.93,2.93s1.31,2.93,2.93,2.93,2.93-1.31,2.93-2.93-1.31-2.93-2.93-2.93h0Z"/><path class="cls-3" d="m49.54,94.12c-.81,0-1.48.66-1.48,1.48s.66,1.48,1.48,1.48,1.48-.66,1.48-1.48-.66-1.48-1.48-1.48h0Z"/><path class="cls-3" d="m35.13,90.75c-2.67,0-4.84,2.17-4.84,4.84s2.17,4.84,4.84,4.84,4.84-2.17,4.84-4.84-2.17-4.84-4.84-4.84h0Z"/><path class="cls-15" d="m35.13,92.67c-1.62,0-2.93,1.31-2.93,2.93s1.31,2.93,2.93,2.93,2.93-1.31,2.93-2.93-1.31-2.93-2.93-2.93h0Z"/><path class="cls-3" d="m35.13,94.12c-.81,0-1.48.66-1.48,1.48s.66,1.48,1.48,1.48,1.48-.66,1.48-1.48-.66-1.48-1.48-1.48h0Z"/><path class="cls-3" d="m154.43,90.75c-2.67,0-4.84,2.17-4.84,4.84s2.17,4.84,4.84,4.84,4.84-2.17,4.84-4.84-2.17-4.84-4.84-4.84h0Z"/><path class="cls-15" d="m154.43,92.67c-1.62,0-2.93,1.31-2.93,2.93s1.31,2.93,2.93,2.93,2.93-1.31,2.93-2.93-1.31-2.93-2.93-2.93h0Z"/><path class="cls-3" d="m154.43,94.12c-.81,0-1.48.66-1.48,1.48s.66,1.48,1.48,1.48,1.48-.66,1.48-1.48-.66-1.48-1.48-1.48h0Z"/><path class="cls-3" d="m140.02,90.75c-2.67,0-4.84,2.17-4.84,4.84s2.17,4.84,4.84,4.84,4.84-2.17,4.84-4.84-2.17-4.84-4.84-4.84h0Z"/><path class="cls-15" d="m140.02,92.67c-1.62,0-2.93,1.31-2.93,2.93s1.31,2.93,2.93,2.93,2.93-1.31,2.93-2.93-1.31-2.93-2.93-2.93h0Z"/><path class="cls-3" d="m140.02,94.12c-.81,0-1.48.66-1.48,1.48s.66,1.48,1.48,1.48,1.48-.66,1.48-1.48-.66-1.48-1.48-1.48h0Z"/><path class="cls-2" d="m54.09,41.2l-3.9,7.74v2.89l28.5,33.92h17.64v-20.71l4.37-7.19.08-2.74h-11.8l-1.39-3.99c-7.66-4.05-15.63-7.57-24.12-10.16l-9.37.23h0Z"/><path class="cls-15" d="m83.6,54.72l-11.1-.16c-1.59-1.92-3.64-3.38-6.15-4.38l1.17-2.19,7.89.08,7.34,3.52.86,3.13h0Z"/><path class="cls-7" d="m88.98,55.12l-11.23,10.94c2.15,5.31,2.69,12.09,2.34,19.69h16.24v-20.71l4.37-7.19.08-2.74h-11.8Z"/><path class="cls-15" d="m88.72,66.06l-7.18,2.03c1.22,4.74,1.72,9.8,1.48,15.16l6.05-.08c.73-5.54.59-11.16-.35-17.12h0Z"/><path class="cls-2" d="m91.13,55.12l-1.98,9.46c1.57,4.18,1.91,11.58,1.41,21.18h5.78v-20.71l4.37-7.19.08-2.74h-9.66Z"/><polygon class="cls-2" points="80.9 79.31 90.44 79.23 90.36 79.76 80.89 79.84 80.9 79.31 80.9 79.31"/><polygon class="cls-2" points="80.94 75.19 90.46 74.47 90.41 75 80.96 75.72 80.94 75.19 80.94 75.19"/><polygon class="cls-2" points="80.59 71.23 89.98 69.49 89.99 70.02 80.67 71.75 80.59 71.23 80.59 71.23"/><path class="cls-8" d="m42.34,57.45c7.1,0,12.85,5.76,12.85,12.85s-5.76,12.85-12.85,12.85-12.85-5.76-12.85-12.85,5.76-12.85,12.85-12.85h0Z"/><path class="cls-14" d="m42.34,59.69c5.86,0,10.61,4.75,10.61,10.61s-4.75,10.61-10.61,10.61-10.61-4.75-10.61-10.61,4.75-10.61,10.61-10.61h0Z"/><path class="cls-8" d="m42.34,65.88c2.44,0,4.42,1.98,4.42,4.42s-1.98,4.42-4.42,4.42-4.42-1.98-4.42-4.42,1.98-4.42,4.42-4.42h0Z"/><path class="cls-8" d="m42.34,63.38c.38,0,.68.31.68.68s-.31.68-.68.68-.68-.31-.68-.68.31-.68.68-.68h0Z"/><path class="cls-8" d="m38.27,64.7c.3-.22.73-.15.95.15.22.3.15.73-.15.95-.3.22-.73.15-.95-.15-.22-.31-.15-.73.15-.95h0Z"/><path class="cls-8" d="m35.76,68.16c.12-.36.5-.56.86-.44.36.12.55.5.44.86-.12.36-.5.55-.86.44-.36-.12-.55-.5-.44-.86h0Z"/><path class="cls-8" d="m35.76,72.44c-.12-.36.08-.74.44-.86.36-.12.74.08.86.44.12.36-.08.74-.44.86-.36.12-.74-.08-.86-.44h0Z"/><path class="cls-8" d="m38.27,75.9c-.31-.22-.37-.65-.15-.95.22-.3.65-.37.95-.15.3.22.37.65.15.95-.22.31-.65.37-.95.15h0Z"/><path class="cls-8" d="m42.34,77.22c-.38,0-.68-.31-.68-.68s.31-.68.68-.68.68.31.68.68-.31.68-.68.68h0Z"/><path class="cls-8" d="m46.4,75.9c-.3.22-.73.15-.95-.15-.22-.3-.15-.73.15-.95.3-.22.73-.15.95.15.22.3.15.73-.15.95h0Z"/><path class="cls-8" d="m48.92,72.44c-.12.36-.5.55-.86.44-.36-.12-.56-.5-.44-.86.12-.36.5-.55.86-.44.36.12.55.5.44.86h0Z"/><path class="cls-8" d="m48.92,68.16c.12.36-.08.74-.44.86-.36.12-.74-.08-.86-.44-.12-.36.08-.74.44-.86.36-.12.74.08.86.44h0Z"/><path class="cls-8" d="m46.41,64.7c.3.22.37.65.15.95-.22.3-.65.37-.95.15-.3-.22-.37-.65-.15-.95.22-.31.65-.37.95-.15h0Z"/><path class="cls-8" d="m147.22,57.45c7.1,0,12.85,5.76,12.85,12.85s-5.76,12.85-12.85,12.85-12.85-5.76-12.85-12.85,5.76-12.85,12.85-12.85h0Z"/><path class="cls-14" d="m147.22,59.69c5.86,0,10.61,4.75,10.61,10.61s-4.75,10.61-10.61,10.61-10.61-4.75-10.61-10.61,4.75-10.61,10.61-10.61h0Z"/><path class="cls-8" d="m147.22,65.88c2.44,0,4.42,1.98,4.42,4.42s-1.98,4.42-4.42,4.42-4.42-1.98-4.42-4.42,1.98-4.42,4.42-4.42h0Z"/><path class="cls-8" d="m147.22,63.38c.38,0,.68.31.68.68s-.31.68-.68.68-.68-.31-.68-.68.31-.68.68-.68h0Z"/><path class="cls-8" d="m143.16,64.7c.3-.22.73-.15.95.15.22.3.15.73-.15.95-.3.22-.73.15-.95-.15-.22-.31-.15-.73.15-.95h0Z"/><path class="cls-8" d="m140.64,68.16c.12-.36.5-.56.86-.44.36.12.55.5.44.86-.12.36-.5.55-.86.44-.36-.12-.55-.5-.44-.86h0Z"/><path class="cls-8" d="m140.64,72.44c-.12-.36.08-.74.44-.86.36-.12.74.08.86.44.12.36-.08.74-.44.86-.36.12-.74-.08-.86-.44h0Z"/><path class="cls-8" d="m143.16,75.9c-.31-.22-.37-.65-.15-.95.22-.3.65-.37.95-.15.3.22.37.65.15.95-.22.31-.65.37-.95.15h0Z"/><path class="cls-8" d="m147.22,77.22c-.38,0-.68-.31-.68-.68s.31-.68.68-.68.68.31.68.68-.31.68-.68.68h0Z"/><path class="cls-8" d="m151.29,75.9c-.3.22-.73.15-.95-.15-.22-.3-.15-.73.15-.95.3-.22.73-.15.95.15.22.3.15.73-.15.95h0Z"/><path class="cls-8" d="m153.8,72.44c-.12.36-.5.55-.86.44-.36-.12-.56-.5-.44-.86.12-.36.5-.55.86-.44.36.12.55.5.44.86h0Z"/><path class="cls-8" d="m153.81,68.16c.12.36-.08.74-.44.86-.36.12-.74-.08-.86-.44-.12-.36.08-.74.44-.86.36-.12.74.08.86.44h0Z"/><path class="cls-8" d="m151.29,64.7c.3.22.37.65.15.95-.22.3-.65.37-.95.15-.3-.22-.37-.65-.15-.95.22-.31.65-.37.95-.15h0Z"/><path class="cls-6" d="m56.63,83.11c-.45,0-.82.37-.82.82s.37.82.82.82.82-.37.82-.82-.37-.82-.82-.82h0Z"/><path class="cls-6" d="m161.51,83.11c-.45,0-.82.37-.82.82s.37.82.82.82.82-.37.82-.82-.37-.82-.82-.82h0Z"/><path class="cls-6" d="m29.24,83c-.45,0-.82.37-.82.82s.37.82.82.82.82-.37.82-.82-.37-.82-.82-.82h0Z"/><path class="cls-6" d="m134.13,83c-.45,0-.82.37-.82.82s.37.82.82.82.82-.37.82-.82-.37-.82-.82-.82h0Z"/><path class="cls-15" d="m54.47,85.83h-4.37c-.63,0-1.14.51-1.14,1.15h0c0,.63.52,1.14,1.14,1.14h4.37c.63,0,1.14-.51,1.14-1.14h0c0-.63-.51-1.15-1.14-1.15h0Z"/><path class="cls-15" d="m159.36,85.83h-4.37c-.63,0-1.14.51-1.14,1.15h0c0,.63.52,1.14,1.14,1.14h4.37c.63,0,1.14-.51,1.14-1.14h0c0-.63-.51-1.15-1.14-1.15h0Z"/><path class="cls-15" d="m35.16,85.83h-4.37c-.63,0-1.15.51-1.15,1.15h0c0,.63.51,1.14,1.15,1.14h4.37c.63,0,1.14-.51,1.14-1.14h0c0-.63-.52-1.15-1.14-1.15h0Z"/><path class="cls-15" d="m140.05,85.83h-4.37c-.63,0-1.15.51-1.15,1.15h0c0,.63.51,1.14,1.15,1.14h4.37c.63,0,1.14-.51,1.14-1.14h0c0-.63-.52-1.15-1.14-1.15h0Z"/><path class="cls-19" d="m77.29,66.25c-4.71-11.32-17.21-17.02-27.09-16.81l-.02-.99c10.2-.22,23.15,5.69,28.03,17.42l-.92.38Z"/><path class="cls-3" d="m58.31,44.47c-.91,0-1.64.73-1.64,1.64s.73,1.64,1.64,1.64,1.64-.73,1.64-1.64-.73-1.64-1.64-1.64h0Z"/><path class="cls-10" d="m58.31,45.04c-.59,0-1.08.48-1.08,1.08s.48,1.08,1.08,1.08,1.08-.48,1.08-1.08-.48-1.08-1.08-1.08h0Z"/><path class="cls-1" d="m121.47,71.87c-.48,0-.96-.17-1.35-.53-.8-.74-.85-2-.11-2.8l13.33-14.43c7.63-8.26,19.07-6.33,26.41-.15.84.71.95,1.96.24,2.8-.71.84-1.96.95-2.8.24-5.72-4.82-14.71-6.93-20.94-.19l-13.33,14.43c-.39.42-.92.64-1.46.64Z"/><path class="cls-13" d="m112.47,74.82h-15.13c-.55,0-1.01.45-1.01,1.01v6.9c0,.55.45,1.01,1.01,1.01h15.13c.55,0,1.01-.45,1.01-1.01v-6.9c0-.55-.45-1.01-1.01-1.01h0Z"/><polygon class="cls-7" points="108.04 82.38 96.33 82.38 96.33 85.1 108.04 85.1 108.04 82.38 108.04 82.38"/><polygon class="cls-7" points="114.28 58.5 105.72 58.5 105.72 59.7 114.28 59.7 114.28 58.5 114.28 58.5"/><polygon class="cls-9" points="58.52 26.7 46.64 26.7 46.64 51.79 50.19 51.83 50.19 48.94 54.09 41.2 58.52 41.09 58.52 26.7 58.52 26.7"/><polygon class="cls-5" points="55.43 23.58 49.94 23.58 46.64 26.7 58.52 26.7 55.43 23.58 55.43 23.58"/><polygon class="cls-5" points="54.66 18.96 50.63 18.96 49.8 20.51 55.36 20.51 54.66 18.96 54.66 18.96"/><polygon class="cls-9" points="55.36 20.56 49.94 20.56 49.94 23.58 55.36 23.58 55.36 20.56 55.36 20.56"/><path class="cls-9" d="m50.64,4.85h0v14.1h3.98V4.85c-.1-2.48-2.19-4.51-4.6-4.85v4.16c.52.08.59.29.64.7h0Z"/><path class="cls-16" d="m58.26,26.54h-11.37c-.4,0-.73.18-.73.41v.16c0,.22.33.41.73.41h11.37c.4,0,.73-.18.73-.41v-.16c0-.22-.33-.41-.73-.41h0Z"/><path class="cls-16" d="m55.35,20.08h-5.4c-.19,0-.35.16-.35.36v.14c0,.2.16.36.35.36h5.4c.19,0,.35-.16.35-.36v-.14c0-.2-.16-.36-.35-.36h0Z"/><path class="cls-16" d="m55.35,22.98h-5.4c-.19,0-.35.16-.35.36v.14c0,.2.16.36.35.36h5.4c.19,0,.35-.16.35-.36v-.14c0-.2-.16-.36-.35-.36h0Z"/><path class="cls-16" d="m54.75,18.3h-4.2c-.15,0-.27.16-.27.36v.14c0,.2.12.36.27.36h4.2c.15,0,.27-.16.27-.36v-.14c0-.2-.12-.36-.27-.36h0Z"/><path class="cls-4" d="m101.07,20.54c-1.49,0-2.7.3-2.7.66s1.21.66,2.7.66,2.7-.3,2.7-.66-1.21-.66-2.7-.66h0Z"/><path class="cls-4" d="m66.2,20.54c-1.49,0-2.7.3-2.7.66s1.21.66,2.7.66,2.7-.3,2.7-.66-1.21-.66-2.7-.66h0Z"/><path class="cls-4" d="m60.71,20.54c-1.02,0-1.85.3-1.85.66s.83.66,1.85.66,1.85-.3,1.85-.66-.83-.66-1.85-.66h0Z"/><g class="cls-18"><path class="cls-11" d="m19.31,83.31h0v17.17h0c4.74,0,8.58-3.84,8.58-8.58s-3.84-8.58-8.58-8.58Z"/></g><g class="cls-18"><path class="cls-11" d="m42.34,57.45v25.7c7.1,0,12.85-5.76,12.85-12.85s-5.76-12.85-12.85-12.85Z"/></g><g class="cls-18"><path class="cls-11" d="m35.13,90.75c-.05,0-.1.01-.15.02v9.65c.05,0,.1.02.15.02,2.67,0,4.84-2.17,4.84-4.84s-2.17-4.84-4.84-4.84Z"/></g><g class="cls-18"><path class="cls-11" d="m49.61,90.76v9.67c2.64-.04,4.78-2.18,4.78-4.83s-2.13-4.8-4.78-4.83Z"/></g><g class="cls-18"><path class="cls-11" d="m65.37,83.31v17.17c4.74,0,8.58-3.84,8.58-8.58s-3.84-8.58-8.58-8.58Z"/></g><path class="cls-13" d="m57.09,74.41h-3.35c-.4,0-.74.12-1.06.37-1.77,1.43-5.74,2.43-10.35,2.43s-8.58-1-10.35-2.43c-.31-.25-.66-.37-1.06-.37h-3.38c-.75,0-1.37.62-1.37,1.37v3.23c0,.75.64,1.19,1.37,1.37,9.6,2.38,19.46,2.24,29.53,0,.74-.16,1.37-.62,1.37-1.37v-3.23c0-.75-.62-1.37-1.37-1.37h0Z"/><path class="cls-6" d="m56.84,75.15c-.45,0-.82.37-.82.82s.37.82.82.82.82-.37.82-.82-.37-.82-.82-.82h0Z"/><path class="cls-6" d="m56.84,78.18c-.45,0-.82.37-.82.82s.37.82.82.82.82-.37.82-.82-.37-.82-.82-.82h0Z"/><path class="cls-6" d="m27.92,75.15c-.45,0-.82.37-.82.82s.37.82.82.82.82-.37.82-.82-.37-.82-.82-.82h0Z"/><path class="cls-6" d="m27.92,78.18c-.45,0-.82.37-.82.82s.37.82.82.82.82-.37.82-.82-.37-.82-.82-.82h0Z"/><path class="cls-2" d="m45.63,79.71h-6.58c-1.24,0-2.25,1.01-2.25,2.25v4.08c0,1.24,1.01,2.25,2.25,2.25h6.58c1.24,0,2.25-1.01,2.25-2.25v-4.08c0-1.24-1.01-2.25-2.25-2.25h0Z"/><path class="cls-6" d="m45.96,85.72c-.45,0-.82.37-.82.82s.37.82.82.82.82-.37.82-.82-.37-.82-.82-.82h0Z"/><path class="cls-6" d="m39.15,85.72c-.45,0-.82.37-.82.82s.37.82.82.82.82-.37.82-.82-.37-.82-.82-.82h0Z"/><g class="cls-18"><path class="cls-11" d="m124.19,83.31s0,0,0,0v17.17h0c4.74,0,8.58-3.84,8.58-8.58s-3.84-8.58-8.58-8.58Z"/></g><g class="cls-18"><path class="cls-11" d="m134.53,68.37c-.09.63-.16,1.27-.16,1.93s.06,1.3.16,1.93v-3.85Z"/></g><g class="cls-18"><path class="cls-11" d="m147.22,57.45s-.01,0-.02,0v25.7s.01,0,.02,0c7.1,0,12.85-5.76,12.85-12.85s-5.76-12.85-12.85-12.85Z"/></g><g class="cls-18"><path class="cls-11" d="m135.18,95.52s0,.05,0,.07,0,.05,0,.07v-.15Z"/></g><g class="cls-18"><path class="cls-11" d="m140.02,90.75c-.06,0-.11.02-.17.02v9.65c.06,0,.11.02.17.02,2.67,0,4.84-2.17,4.84-4.84s-2.17-4.84-4.84-4.84Z"/></g><g class="cls-18"><path class="cls-11" d="m154.43,90.75h0v9.68h0c2.67,0,4.84-2.17,4.84-4.84s-2.17-4.84-4.84-4.84Z"/></g><g class="cls-18"><path class="cls-11" d="m170.26,83.31v17.17c4.74,0,8.58-3.84,8.58-8.58s-3.84-8.58-8.58-8.58Z"/></g><path class="cls-13" d="m161.98,74.41h-3.36c-.4,0-.74.12-1.06.37-1.77,1.43-5.74,2.43-10.35,2.43s-8.58-1-10.35-2.43c-.31-.25-.66-.37-1.06-.37h-3.36c-.75,0-1.37.62-1.37,1.37v3.23c0,.75.64,1.19,1.37,1.37,9.6,2.38,19.46,2.24,29.53,0,.74-.16,1.37-.62,1.37-1.37v-3.23c0-.75-.62-1.37-1.37-1.37h0Z"/><path class="cls-2" d="m150.51,79.71h-6.58c-1.24,0-2.25,1.01-2.25,2.25v4.08c0,1.24,1.01,2.25,2.25,2.25h6.58c1.24,0,2.25-1.01,2.25-2.25v-4.08c0-1.24-1.01-2.25-2.25-2.25h0Z"/><path class="cls-6" d="m150.84,85.72c-.45,0-.82.37-.82.82s.37.82.82.82.82-.37.82-.82-.37-.82-.82-.82h0Z"/><path class="cls-6" d="m144.04,85.72c-.45,0-.82.37-.82.82s.37.82.82.82.82-.37.82-.82-.37-.82-.82-.82h0Z"/><path class="cls-6" d="m161.72,75.15c-.45,0-.82.37-.82.82s.37.82.82.82.82-.37.82-.82-.37-.82-.82-.82h0Z"/><path class="cls-6" d="m161.72,78.18c-.45,0-.82.37-.82.82s.37.82.82.82.82-.37.82-.82-.37-.82-.82-.82h0Z"/><path class="cls-6" d="m132.81,75.15c-.45,0-.82.37-.82.82s.37.82.82.82.82-.37.82-.82-.37-.82-.82-.82h0Z"/><path class="cls-6" d="m132.81,78.18c-.45,0-.82.37-.82.82s.37.82.82.82.82-.37.82-.82-.37-.82-.82-.82h0Z"/></g></svg>