<?xml version="1.0" encoding="UTF-8"?><svg id="Layer_2" xmlns="http://www.w3.org/2000/svg" viewBox="0 0 126.31 85.13"><defs><style>.cls-1{fill:#58595b;}.cls-1,.cls-2,.cls-3,.cls-4,.cls-5,.cls-6,.cls-7,.cls-8,.cls-9,.cls-10,.cls-11{fill-rule:evenodd;}.cls-12,.cls-10{fill:#404041;}.cls-2{fill:#fff;}.cls-3{fill:#17854a;}.cls-4{fill:#ffdd0f;}.cls-5{fill:#6d6e70;}.cls-6{fill:#f48120;}.cls-7{fill:#231f20;}.cls-8{fill:#a5cd39;}.cls-9{fill:#eeb926;}.cls-11{fill:#00a551;}</style></defs><g id="Layer_1-2"><path class="cls-3" d="m4.83,50.8l.23-2.45c.04-.38.24-.7.58-.88.34-.19.71-.19,1.06-.02l6.37,3.19-8.24.17h0Z"/><path class="cls-2" d="m6.4,47.99c.31,0,.56.25.56.56s-.25.56-.56.56-.56-.25-.56-.56.25-.56.56-.56h0Z"/><path class="cls-11" d="m0,51.97c0,2.09.38,10.05.9,10.61.79.85,11.04,1.4,14.87,1.4,5.27,0,4.72-14.28.48-14.28-2.54,0-16.04,1.11-16.25,2.27h0Z"/><rect class="cls-12" x="22.7" y="24.78" width="2.46" height="8.77"/><polygon class="cls-10" points="58.94 45.9 74.94 45.9 74.94 49.41 58.94 49.41 58.94 45.9 58.94 45.9"/><path class="cls-3" d="m106.23,36.2c3.19,0,5.78-1.53,5.78-3.41s-2.59-3.41-5.78-3.41-5.78,1.53-5.78,3.41,2.59,3.41,5.78,3.41h0Z"/><path class="cls-6" d="m111.97,33.14c.02-.11.03-.23.03-.35,0-1.47-1.57-2.72-3.78-3.2.73,1.74,2.1,3.05,3.74,3.55h0Z"/><polygon class="cls-10" points="37.23 60.76 93.63 60.76 93.63 69.96 37.23 69.96 37.23 60.76 37.23 60.76"/><polygon class="cls-10" points="83.84 12.42 83.84 35.43 82.01 35.43 82.01 12.42 59.07 12.42 59.4 10.86 94.36 9.95 94.36 12.42 83.84 12.42 83.84 12.42"/><polygon class="cls-10" points="96.92 12.22 99.47 31.56 95.76 31.67 94.06 12.44 96.92 12.22 96.92 12.22"/><path class="cls-10" d="m96.37,27.6c-3.38,0-12.26,1.48-14.11,2.9-3.61,2.77-10.79,14.58-9.96,22.09.86,7.89,17.86,2.45,20.64-9.22.36-1.5,8.16-16.04,3.43-15.77h0Z"/><polygon class="cls-10" points="63.84 11.92 65.72 11.92 65.72 52.29 63.84 52.29 63.84 11.92 63.84 11.92"/><path class="cls-11" d="m28.77,61.36l-2.1-13.81-1.49-6.01c-.69-2.78-2.66-3.12-4.78-3.12h-6.52c-.01-9.53,34.21-8.13,45.51-8.13l-.11,17.97h14.35c1.91-6.7,6.66-14.54,9.98-16.33,26.26-8.2,37.55,6.85,37.46,9.25-.29,7.15-14.26,1.77-16.23,12.49-1.42,7.74-7.35,13.27-14.95,13.27-4.54,0-6.55-5.27-11.18-5.3l-49.92-.27h0Z"/><polygon class="cls-10" points="13.87 38.42 15.79 55.4 31.9 55.4 26.78 37.76 13.87 38.42 13.87 38.42"/><polygon class="cls-7" points="14.85 38.37 17.17 55.4 18.16 55.4 15.77 38.33 14.85 38.37 14.85 38.37"/><polygon class="cls-7" points="17.01 38.26 19.34 55.4 20.33 55.4 17.93 38.22 17.01 38.26 17.01 38.26"/><polygon class="cls-7" points="19.16 38.15 21.52 55.4 22.5 55.4 20.08 38.1 19.16 38.15 19.16 38.15"/><polygon class="cls-7" points="21.32 38.04 23.69 55.4 24.67 55.4 22.24 37.99 21.32 38.04 21.32 38.04"/><polygon class="cls-7" points="23.48 37.93 25.86 55.4 26.84 55.4 24.39 37.88 23.48 37.93 23.48 37.93"/><polygon class="cls-7" points="25.63 37.82 28.03 55.4 29.01 55.4 26.55 37.77 25.63 37.82 25.63 37.82"/><path class="cls-11" d="m126.28,70.49c.22,1.65-.64,3.25-2.01,3.66-1.44.43-2.9-.63-3.25-2.37-.14-.7-.08-1.41.13-2.03h-5.03c-.3,0-.54-.09-.54-.19v-.73c0-.1.24-.19.54-.19h6.56c.3,0,.54.09.54.19v.73c0,.1-.24.19-.54.19h-.4c0,.23.03.47.08.71.29,1.43,1.28,2.36,2.2,2.09.66-.2,1.11-.96,1.2-1.9l.52-.16h0Z"/><polygon class="cls-10" points="58.86 31.56 60.73 31.56 60.73 48.26 58.86 48.26 58.86 31.56 58.86 31.56"/><path class="cls-11" d="m59.4,10.86c0-3.97,22.04-4.15,33.29-3.36,3.97.28,4.02,2.76,4.25,4.93h-2.89c-.2-.87-.66-1.57-4.29-1.57h-30.37Z"/><polygon class="cls-10" points="58.15 30.29 82.56 30.29 82.56 31.87 57.9 31.81 58.15 30.29 58.15 30.29"/><path class="cls-10" d="m96.63,13.3h0c.29-.89,1.26-1.39,2.15-1.1l1.1.36-1.05,3.24-1.1-.36c-.89-.29-1.39-1.26-1.1-2.15h0Z"/><path class="cls-10" d="m56.71,15.7h2.35c.42,0,.76.34.76.76v7.97c0,.42-.34.76-.76.76h-2.35c-.42,0-.76-.34-.76-.76v-7.97c0-.42.34-.76.76-.76h0Z"/><path class="cls-12" d="m58.11,16.99h-.71v-2.82c0-1.44,1.17-2.61,2.61-2.62l3.61-.02v.71s-3.6.02-3.6.02c-1.05,0-1.9.86-1.9,1.91v2.82Z"/><path class="cls-4" d="m17.01,36.66c5.33-2.13,25.69-3.69,40.39-4.12l.16,3.06c-10.61-.12-28.41.5-40.55,1.44v-.38Z"/><path class="cls-10" d="m123.34,43.1c-1.14-4.07-16.43-15.11-30.14-11.04-12.46,3.69-19.33,12.18-19.54,29.55h16.13s33.55-18.51,33.55-18.51h0Z"/><path class="cls-10" d="m99.75,37.24c13.17,0,23.85,10.68,23.85,23.85s-10.68,23.85-23.85,23.85-23.85-10.68-23.85-23.85,10.68-23.85,23.85-23.85h0Z"/><path class="cls-1" d="m99.75,40.64c11.29,0,20.45,9.16,20.45,20.45s-9.16,20.45-20.45,20.45-20.45-9.16-20.45-20.45,9.16-20.45,20.45-20.45h0Z"/><path class="cls-1" d="m98.63,37.16l-.2,4.25c.44-.03.88-.05,1.32-.05.23,0,.45,0,.67.01l-.37-4.24c-.1,0-.2,0-.3,0-.38,0-.75,0-1.12.03h0Zm5,.29c.47.08.94.17,1.4.27l-.52,4.23c-.64-.16-1.29-.28-1.95-.38l1.08-4.12h0Zm4.83,1.32c.44.17.88.36,1.31.56l-1.39,4.03c-.59-.29-1.2-.55-1.83-.78l1.91-3.8h0Zm4.45,2.3c.4.26.79.53,1.16.82l-2.2,3.65c-.52-.41-1.07-.79-1.63-1.14l2.66-3.32h0Zm3.87,3.17c.33.34.66.68.97,1.04l-2.91,3.12c-.43-.51-.88-.99-1.36-1.46l3.29-2.7h0Zm3.13,3.91c.26.4.5.81.73,1.22l-3.49,2.44c-.31-.59-.66-1.16-1.02-1.71l3.78-1.96h0Zm2.25,4.47c.17.44.32.89.46,1.34l-3.92,1.66c-.18-.64-.4-1.27-.65-1.88l4.11-1.13h0Zm1.27,4.85c.07.47.13.94.17,1.41l-4.18.81c-.05-.67-.13-1.33-.24-1.98l4.25-.25h0Zm.23,5c-.03.48-.07.95-.12,1.42l-4.26-.08c.09-.65.15-1.31.17-1.98l4.21.64h0Zm-.81,4.94c-.13.46-.26.91-.41,1.36l-4.15-.96c.23-.62.42-1.26.58-1.9l3.98,1.5h0Zm-1.82,4.67c-.22.42-.45.84-.69,1.24l-3.86-1.8c.35-.56.67-1.14.97-1.74l3.58,2.3h0Zm-2.75,4.18c-.3.37-.61.72-.93,1.07l-3.4-2.57c.46-.48.9-.98,1.31-1.5l3.03,2.99h0Zm-3.56,3.52c-.37.3-.75.58-1.13.86l-2.79-3.22c.55-.37,1.08-.77,1.59-1.2l2.34,3.56h0Zm-4.21,2.71c-.42.21-.85.41-1.29.6l-2.07-3.73c.62-.25,1.22-.53,1.8-.84l1.55,3.97h0Zm-4.69,1.77c-.46.12-.92.23-1.39.32l-1.25-4.08c.66-.12,1.31-.26,1.94-.44l.69,4.2h0Zm-4.95.75c-.37.02-.74.03-1.12.03-.1,0-.2,0-.3,0l-.37-4.24c.22,0,.45.01.67.01.44,0,.88-.02,1.32-.05l-.2,4.25h0Zm-5-.29c-.47-.08-.94-.17-1.4-.27l.52-4.23c.64.16,1.29.29,1.95.38l-1.08,4.12h0Zm-4.83-1.32c-.44-.17-.88-.36-1.31-.56l1.39-4.03c.59.29,1.2.55,1.83.78l-1.91,3.8h0Zm-4.45-2.3c-.4-.26-.79-.53-1.16-.82l2.2-3.65c.52.41,1.07.79,1.63,1.15l-2.66,3.32h0Zm-3.87-3.17c-.33-.34-.66-.68-.97-1.04l2.91-3.12c.43.51.88.99,1.36,1.46l-3.29,2.7h0Zm-3.13-3.91c-.26-.4-.5-.81-.73-1.22l3.49-2.44c.31.59.66,1.16,1.02,1.71l-3.78,1.95h0Zm-2.25-4.47c-.17-.44-.32-.89-.46-1.34l3.92-1.66c.18.64.4,1.27.65,1.88l-4.11,1.12h0Zm-1.27-4.84c-.07-.47-.13-.94-.17-1.41l4.18-.81c.05.67.13,1.33.24,1.98l-4.25.25h0Zm-.23-5c.03-.48.07-.95.12-1.42l4.26.08c-.09.65-.15,1.31-.17,1.98l-4.21-.64h0Zm.81-4.94c.13-.46.26-.91.41-1.36l4.15.96c-.23.62-.42,1.26-.58,1.9l-3.98-1.5h0Zm1.82-4.67c.22-.42.45-.84.69-1.24l3.86,1.8c-.35.56-.67,1.14-.97,1.74l-3.58-2.3h0Zm2.75-4.18c.3-.37.61-.72.93-1.07l3.4,2.56c-.46.48-.9.98-1.31,1.5l-3.03-2.99h0Zm3.56-3.52c.37-.3.75-.58,1.13-.86l2.79,3.22c-.55.37-1.08.77-1.59,1.2l-2.34-3.56h0Zm4.21-2.71c.42-.21.85-.41,1.29-.6l2.06,3.73c-.62.25-1.22.53-1.8.84l-1.55-3.97h0Zm4.69-1.77c.46-.12.92-.22,1.39-.32l1.24,4.07c-.66.12-1.31.26-1.94.44l-.69-4.2h0Z"/><path class="cls-4" d="m99.75,47.84c7.32,0,13.25,5.93,13.25,13.25s-5.93,13.25-13.25,13.25-13.25-5.93-13.25-13.25,5.93-13.25,13.25-13.25h0Z"/><path class="cls-9" d="m99.75,50.15c6.04,0,10.94,4.9,10.94,10.94s-4.9,10.94-10.94,10.94-10.94-4.9-10.94-10.94,4.9-10.94,10.94-10.94h0Z"/><path class="cls-4" d="m99.75,56.54c2.51,0,4.55,2.04,4.55,4.55s-2.04,4.55-4.55,4.55-4.55-2.04-4.55-4.55,2.04-4.55,4.55-4.55h0Z"/><path class="cls-4" d="m99.75,53.96c.39,0,.7.32.7.7s-.32.7-.7.7-.7-.32-.7-.7.31-.7.7-.7h0Z"/><path class="cls-4" d="m95.56,55.32c.31-.23.75-.16.98.16.23.31.16.75-.16.98s-.75.16-.98-.16c-.23-.31-.16-.75.16-.98h0Z"/><path class="cls-4" d="m92.97,58.89c.12-.37.52-.57.89-.45.37.12.57.52.45.89-.12.37-.52.57-.89.45-.37-.12-.57-.52-.45-.89h0Z"/><path class="cls-4" d="m92.97,63.29c-.12-.37.08-.77.45-.89.37-.12.77.08.89.45.12.37-.08.77-.45.89-.37.12-.77-.08-.89-.45h0Z"/><path class="cls-4" d="m95.56,66.86c-.31-.23-.38-.67-.16-.98.23-.31.67-.38.98-.16.31.23.38.67.16.98-.23.31-.67.38-.98.16h0Z"/><path class="cls-4" d="m99.75,68.23c-.39,0-.7-.32-.7-.7s.31-.7.7-.7.7.31.7.7-.31.7-.7.7h0Z"/><path class="cls-4" d="m103.94,66.86c-.31.23-.75.16-.98-.16-.23-.31-.16-.75.16-.98.31-.23.75-.16.98.16.23.31.16.75-.16.98h0Z"/><path class="cls-4" d="m106.53,63.3c-.12.37-.52.57-.89.45-.37-.12-.57-.52-.45-.89.12-.37.52-.57.89-.45.37.12.57.52.45.89h0Z"/><path class="cls-4" d="m106.53,58.89c.12.37-.08.77-.45.89-.37.12-.77-.08-.89-.45-.12-.37.08-.77.45-.89.37-.12.77.08.89.45h0Z"/><path class="cls-4" d="m103.94,55.32c.31.23.38.67.16.98-.23.31-.67.38-.98.16-.31-.23-.38-.67-.16-.98.23-.31.67-.38.98-.16h0Z"/><polygon class="cls-10" points="64.43 4.69 65.52 4.69 65.52 13.96 64.43 13.96 64.43 4.69 64.43 4.69"/><path class="cls-6" d="m64.98,0h0c1.02,0,1.85.83,1.85,1.85v1.26c0,1.02-.83,1.85-1.85,1.85h0c-1.02,0-1.85-.83-1.85-1.85v-1.26c0-1.02.83-1.85,1.85-1.85h0Z"/><path class="cls-10" d="m66.83,3.05v.06c0,1.02-.83,1.85-1.85,1.85h0c-1.02,0-1.85-.83-1.85-1.85v-.06h3.71Z"/><path class="cls-3" d="m26.79,37.77c7.12-.67,21.24-.93,32.07-.91v11.4h14.27l-.56,13.35-38.3-.21-5.6-17.14-1.88-6.48h0Z"/><path class="cls-1" d="m19.23,46.91h0c.01,1.13-1.31,2.07-2.94,2.07h-2s-.04-4.11-.04-4.11h2c1.62-.02,2.96.9,2.97,2.04h0Z"/><polygon class="cls-11" points="69.51 50.45 68.58 69.76 72.1 69.76 73.19 50.45 69.51 50.45 69.51 50.45"/><path class="cls-1" d="m53.84,45.94h10l-1.13,22.16h-6.06c-.59,0-1.09-.46-1.13-1.05-.51-6.81-1.33-12.97-3.14-17.07-.14-.31-.13-.63,0-.93l1.44-3.11h0Z"/><polygon class="cls-11" points="62.56 50.45 61.62 69.81 65.15 69.76 66.24 50.45 62.56 50.45 62.56 50.45"/><polygon class="cls-8" points="63.33 54.19 72.36 54.19 72.36 55.12 63.33 55.12 63.33 54.19 63.33 54.19"/><polygon class="cls-8" points="62.92 60.94 71.95 60.94 71.95 61.87 62.92 61.87 62.92 60.94 62.92 60.94"/><polygon class="cls-8" points="62.5 68.82 71.53 68.82 71.53 69.76 62.5 69.76 62.5 68.82 62.5 68.82"/><path class="cls-11" d="m31.18,49.55l-1.65-9.32c-.14-.77.09-1.47.65-2.07.57-.6,1.32-.94,2.22-.98l2.99-.15c1.58-.08,2.97.86,3.24,2.2l1.9,9.36c.16.78-.06,1.51-.64,2.12-.58.62-1.36.95-2.28.99l-3.23.12c-1.59.06-2.95-.91-3.19-2.26h0Z"/><path class="cls-10" d="m31.82,48.8l-1.21-7.95c-.1-.65.06-1.25.48-1.77.42-.51.97-.8,1.63-.84l2.19-.13c1.16-.07,2.17.73,2.37,1.87l1.39,7.98c.12.67-.04,1.28-.47,1.81-.42.53-.99.81-1.67.84l-2.36.1c-1.16.05-2.16-.78-2.34-1.92h0Z"/><polygon class="cls-11" points="30.24 41.37 38.41 40.57 38.35 41.48 30.24 42.28 30.24 41.37 30.24 41.37"/><polygon class="cls-11" points="31.13 46.7 39.03 44.47 39.13 45.38 31.29 47.6 31.13 46.7 31.13 46.7"/><path class="cls-5" d="m19.95,45.71c17.28-6.18,32.58,6,31.83,19.73-.74.25-1.49.5-2.23.74-2.63-18.08-15.2-22.82-28-19.62.25-.36-1.85-.5-1.6-.86h0Z"/><path class="cls-5" d="m53.84,45.94h10l-.18,3.47h-11.37c.01-.12.05-.24.1-.36l1.44-3.11h0Z"/><path class="cls-1" d="m54.95,43.08h1.4c.26,0,.47.21.47.47v2.49c0,.26-.21.47-.47.47h-1.4c-.26,0-.47-.21-.47-.47v-2.49c0-.26.21-.47.47-.47h0Z"/><path class="cls-10" d="m62.55,45.9h11.83c-.66,1.98-.77,3.29-1.02,4.6h-10.81v-4.6h0Z"/><path class="cls-10" d="m27.61,46.78c10.56,0,19.13,8.57,19.13,19.13s-8.57,19.13-19.13,19.13-19.13-8.57-19.13-19.13,8.57-19.13,19.13-19.13h0Z"/><path class="cls-1" d="m27.61,49.51c9.06,0,16.41,7.35,16.41,16.41s-7.35,16.41-16.41,16.41-16.41-7.35-16.41-16.41,7.35-16.41,16.41-16.41h0Z"/><path class="cls-1" d="m26.71,46.72l-.16,3.41c.35-.02.7-.04,1.06-.04.18,0,.36,0,.54.01l-.3-3.4c-.08,0-.16,0-.24,0-.3,0-.6,0-.9.02h0Zm4.01.23c.38.06.75.13,1.12.22l-.42,3.39c-.51-.13-1.04-.23-1.57-.3l.87-3.31h0Zm3.88,1.06c.36.14.7.29,1.05.45l-1.11,3.23c-.48-.23-.97-.44-1.47-.63l1.53-3.05h0Zm3.57,1.85c.32.21.63.43.93.65l-1.76,2.93c-.42-.33-.86-.63-1.31-.92l2.13-2.67h0Zm3.11,2.55c.27.27.53.55.78.83l-2.33,2.5c-.34-.41-.71-.8-1.09-1.17l2.64-2.16h0Zm2.51,3.13c.21.32.4.65.59.98l-2.8,1.96c-.25-.47-.53-.93-.82-1.37l3.04-1.57h0Zm1.81,3.59c.13.35.26.71.37,1.08l-3.15,1.34c-.15-.52-.32-1.02-.52-1.51l3.29-.9h0Zm1.02,3.89c.06.37.1.75.14,1.13l-3.36.65c-.04-.54-.1-1.07-.19-1.59l3.41-.2h0Zm.18,4.01c-.02.38-.06.76-.1,1.14l-3.42-.06c.07-.52.12-1.05.14-1.59l3.38.52h0Zm-.65,3.97c-.1.37-.21.73-.33,1.09l-3.33-.77c.18-.5.34-1.01.47-1.53l3.2,1.21h0Zm-1.46,3.74c-.18.34-.36.67-.56,1l-3.1-1.45c.28-.45.54-.92.78-1.39l2.88,1.84h0Zm-2.21,3.35c-.24.29-.49.58-.75.86l-2.73-2.06c.37-.38.72-.78,1.05-1.2l2.43,2.4h0Zm-2.86,2.82c-.3.24-.6.47-.91.69l-2.24-2.58c.44-.3.87-.62,1.28-.96l1.88,2.85h0Zm-3.38,2.17c-.34.17-.68.33-1.03.48l-1.66-2.99c.5-.2.98-.43,1.45-.67l1.24,3.18h0Zm-3.76,1.42c-.37.1-.74.18-1.11.26l-1-3.27c.53-.09,1.05-.21,1.56-.36l.55,3.37h0Zm-3.97.6c-.3.01-.6.02-.9.02-.08,0-.16,0-.24,0l-.3-3.4c.18,0,.36.01.54.01.36,0,.71-.01,1.06-.04l-.16,3.41h0Zm-4.01-.23c-.38-.06-.75-.13-1.12-.22l.42-3.39c.51.13,1.04.23,1.57.31l-.87,3.3h0Zm-3.88-1.06c-.35-.14-.7-.29-1.05-.45l1.11-3.23c.48.23.97.44,1.47.63l-1.53,3.05h0Zm-3.57-1.85c-.32-.21-.63-.43-.93-.65l1.76-2.93c.42.33.86.63,1.31.92l-2.13,2.67h0Zm-3.11-2.55c-.27-.27-.53-.55-.78-.84l2.33-2.5c.34.41.71.8,1.09,1.17l-2.64,2.16h0Zm-2.51-3.13c-.21-.32-.4-.65-.59-.98l2.8-1.96c.25.47.53.93.82,1.37l-3.04,1.57h0Zm-1.81-3.59c-.13-.35-.26-.71-.37-1.08l3.15-1.34c.15.51.32,1.02.52,1.51l-3.29.9h0Zm-1.02-3.89c-.06-.37-.1-.75-.14-1.13l3.36-.65c.04.54.1,1.07.19,1.59l-3.41.2h0Zm-.19-4.01c.02-.38.06-.76.1-1.14l3.42.06c-.07.52-.12,1.05-.14,1.59l-3.38-.52h0Zm.65-3.97c.1-.37.21-.73.33-1.09l3.33.77c-.18.5-.34,1.01-.47,1.53l-3.2-1.21h0Zm1.46-3.74c.17-.34.36-.67.55-1l3.1,1.45c-.28.45-.54.92-.78,1.4l-2.87-1.84h0Zm2.21-3.36c.24-.29.49-.58.75-.86l2.73,2.06c-.37.38-.72.79-1.05,1.2l-2.43-2.4h0Zm2.86-2.82c.3-.24.6-.47.91-.69l2.24,2.58c-.44.3-.87.62-1.28.96l-1.88-2.85h0Zm3.38-2.17c.34-.17.68-.33,1.03-.48l1.66,2.99c-.5.2-.98.43-1.45.67l-1.24-3.18h0Zm3.76-1.42c.37-.1.74-.18,1.11-.25l1,3.27c-.53.09-1.05.21-1.56.36l-.55-3.37h0Z"/><path class="cls-4" d="m27.61,55.29c5.87,0,10.63,4.76,10.63,10.63s-4.76,10.63-10.63,10.63-10.63-4.76-10.63-10.63,4.76-10.63,10.63-10.63h0Z"/><path class="cls-9" d="m27.61,57.14c4.85,0,8.77,3.93,8.77,8.78s-3.93,8.78-8.77,8.78-8.78-3.93-8.78-8.78,3.93-8.78,8.78-8.78h0Z"/><path class="cls-4" d="m27.61,62.26c2.02,0,3.65,1.64,3.65,3.65s-1.64,3.65-3.65,3.65-3.65-1.64-3.65-3.65,1.64-3.65,3.65-3.65h0Z"/><path class="cls-4" d="m27.61,60.19c.31,0,.56.25.56.56s-.25.56-.56.56-.56-.25-.56-.56.25-.56.56-.56h0Z"/><path class="cls-4" d="m24.24,61.29c.25-.18.6-.13.79.12.18.25.13.6-.12.79-.25.18-.6.13-.79-.12-.18-.25-.13-.6.12-.79h0Z"/><path class="cls-4" d="m22.16,64.15c.1-.3.41-.46.71-.36.3.1.46.41.36.71-.1.3-.41.46-.71.36-.3-.1-.46-.41-.36-.71h0Z"/><path class="cls-4" d="m22.16,67.68c-.1-.3.07-.61.36-.71.3-.1.61.07.71.36.1.3-.07.61-.36.71-.3.1-.61-.07-.71-.36h0Z"/><path class="cls-4" d="m24.24,70.54c-.25-.18-.31-.54-.12-.79.18-.25.54-.31.79-.12.25.18.31.54.12.79-.18.25-.54.31-.79.12h0Z"/><path class="cls-4" d="m27.6,71.64c-.31,0-.56-.25-.56-.56s.25-.56.56-.56.56.25.56.56-.25.56-.56.56h0Z"/><path class="cls-4" d="m30.97,70.55c-.25.18-.6.13-.79-.12-.18-.25-.13-.6.12-.79.25-.18.6-.13.79.12.18.25.13.6-.12.79h0Z"/><path class="cls-4" d="m33.05,67.68c-.1.3-.41.46-.71.36-.3-.1-.46-.41-.36-.71.1-.3.41-.46.71-.36.3.1.46.41.36.71h0Z"/><path class="cls-4" d="m33.05,64.15c.1.3-.07.61-.36.71-.3.1-.61-.07-.71-.36-.1-.3.07-.61.36-.71.3-.1.61.07.71.36h0Z"/><path class="cls-4" d="m30.97,61.29c.25.18.31.54.12.79-.18.25-.54.31-.79.12-.25-.18-.31-.54-.12-.79.18-.25.54-.31.79-.12h0Z"/></g></svg>