<?xml version="1.0" encoding="UTF-8"?><svg id="Layer_2" xmlns="http://www.w3.org/2000/svg" viewBox="0 0 93.06 78.52"><defs><style>.cls-1,.cls-2{fill:#156b40;}.cls-3{fill:#58595b;}.cls-3,.cls-4,.cls-5,.cls-6,.cls-7,.cls-8,.cls-2,.cls-9,.cls-10,.cls-11{fill-rule:evenodd;}.cls-12,.cls-10{fill:#404041;}.cls-4{fill:#bbbdbf;}.cls-13{opacity:.33;}.cls-5,.cls-14{fill:#17854a;}.cls-6{fill:#ffdd0f;}.cls-7{fill:#f48120;}.cls-8{fill:#020000;}.cls-9{fill:#eeb926;}.cls-11{fill:#00a551;}.cls-15{fill:#2b646f;}.cls-16{fill:#4eaaa7;}</style></defs><g id="Layer_1-2"><path class="cls-7" d="m14.76,0h0c-1.47,0-2.67,1.2-2.67,2.67v1.81c0,1.47,1.2,2.67,2.67,2.67h0c1.47,0,2.67-1.2,2.67-2.67v-1.81c0-1.47-1.2-2.67-2.67-2.67h0Z"/><path class="cls-10" d="m12.1,4.4v.08c0,1.47,1.2,2.67,2.67,2.67h0c1.47,0,2.67-1.2,2.67-2.67v-.08h-5.33Z"/><path class="cls-11" d="m54.67,9.43h0c0,.15.02,1.67,0,1.82l-43.7-1.38c-.02-.14-.03-.29-.03-.44h0c0-7.17,43.73-7.17,43.73,0h0Z"/><path class="cls-15" d="m12.07,10.2c-3.64,10.12-6.04,19.66-7.39,28.72L45.81,10.44c-11.35-.06-22.15-.24-33.74-.24Z"/><path class="cls-15" d="m51.93,16.82L3.51,50.37c-.07,1.34-.13,2.68-.16,4L51.94,20.71v-3.88Z"/><path class="cls-15" d="m51.92,10.46c-.25,0-.49,0-.74,0l.74.79v-.78Z"/><path class="cls-15" d="m9.99,56.62h23.44c.98-7.87,7.77-10.75,18.55-10.21l-.03-18.85L9.99,56.62Z"/><path class="cls-16" d="m51.93,11.24l-.74-.79c-1.81,0-3.6,0-5.38-.02L4.69,38.93c-.58,3.9-.97,7.71-1.18,11.44L51.93,16.82v-5.58Z"/><path class="cls-16" d="m51.94,20.71L3.35,54.36c-.02.75-.03,1.51-.03,2.26h6.67l41.96-29.07v-6.85Z"/><path class="cls-2" d="m68.41,53.75h6.08c1.32,0,2.4.64,2.4,1.43v8.15c0,.79-1.08,1.43-2.4,1.43h-6.08c-1.32,0-2.4-.65-2.4-1.43v-8.15c0-.79,1.08-1.43,2.4-1.43h0Z"/><path class="cls-2" d="m76.45,56.79h3.64c.79,0,1.43.65,1.43,1.43v8.15c0,.79-.64,1.43-1.43,1.43h-3.64c-.79,0-1.43-.65-1.43-1.43v-8.15c0-.79.65-1.43,1.43-1.43h0Z"/><path class="cls-10" d="m51.25,60.97c1.58,1.42-5.78,9.64,12.33,8.32,8.11-6.34,10.05-10.71,7.63-14.48-3.82-.87-7.65-1.74-11.47-2.61-3.07,3.84-5.42,4.93-8.49,8.78h0Z"/><path class="cls-10" d="m15.74,58.67c.76,1.98,5.24,6.67,9.09,10.9,6.1-2.7,13.82-4.96,13.39-9.42-3.01-2.52-6.02-5.03-9.02-7.55-4.48,2.02-8.97,4.05-13.45,6.07h0Z"/><path class="cls-3" d="m52.76,26.82h3.16c.35,0,.63.28.63.63v3.77c0,.35-.28.63-.63.63h-3.16c-.35,0-.63-.28-.63-.63v-3.77c0-.35.28-.63.63-.63h0Z"/><path class="cls-11" d="m0,59.57l6.31,3.61c7-7.07,26.83-5.08,30.36.05h16.39c2.8,0,4.56-3.5,5.86-5.26h16.07l.3-12.17h-31.39s-34.71,3.73-41.39,10.81c-.42.45-2.5,2.95-2.5,2.95Z"/><path class="cls-10" d="m62.6,64.08c3.98,0,7.2,3.23,7.2,7.2s-3.23,7.2-7.2,7.2-7.2-3.23-7.2-7.2,3.23-7.2,7.2-7.2h0Z"/><path class="cls-3" d="m62.6,65.11c3.41,0,6.18,2.77,6.18,6.18s-2.77,6.18-6.18,6.18-6.18-2.77-6.18-6.18,2.77-6.18,6.18-6.18h0Z"/><path class="cls-3" d="m62.26,64.06l-.06,1.29c.13,0,.26-.01.4-.01.07,0,.14,0,.2,0l-.11-1.28s-.06,0-.09,0c-.11,0-.23,0-.34,0h0Zm1.51.09c.14.02.28.05.42.08l-.16,1.28c-.19-.05-.39-.09-.59-.11l.33-1.25h0Zm1.46.4c.13.05.26.11.39.17l-.42,1.22c-.18-.09-.36-.17-.55-.24l.58-1.15h0Zm1.34.7c.12.08.24.16.35.25l-.66,1.1c-.16-.12-.32-.24-.49-.35l.8-1h0Zm1.17.96c.1.1.2.21.29.31l-.88.94c-.13-.15-.27-.3-.41-.44l.99-.82h0Zm.95,1.18c.08.12.15.24.22.37l-1.05.74c-.09-.18-.2-.35-.31-.52l1.14-.59h0Zm.68,1.35c.05.13.1.27.14.41l-1.19.5c-.05-.19-.12-.38-.19-.57l1.24-.34h0Zm.38,1.46c.02.14.04.28.05.43l-1.26.25c-.01-.2-.04-.4-.07-.6l1.28-.07h0Zm.07,1.51c0,.14-.02.29-.04.43l-1.29-.02c.03-.2.05-.4.05-.6l1.27.19h0Zm-.24,1.49c-.04.14-.08.28-.13.41l-1.25-.29c.07-.19.13-.38.18-.57l1.2.45h0Zm-.55,1.41c-.07.13-.14.25-.21.37l-1.17-.54c.11-.17.2-.34.29-.53l1.08.7h0Zm-.83,1.26c-.09.11-.18.22-.28.32l-1.03-.77c.14-.14.27-.3.4-.45l.91.9h0Zm-1.08,1.06c-.11.09-.23.18-.34.26l-.84-.97c.17-.11.33-.23.48-.36l.71,1.07h0Zm-1.27.82c-.13.06-.26.13-.39.18l-.62-1.13c.19-.08.37-.16.55-.25l.47,1.2h0Zm-1.42.53c-.14.04-.28.07-.42.1l-.38-1.23c.2-.03.4-.08.59-.13l.21,1.27h0Zm-1.5.23c-.11,0-.22,0-.34,0-.03,0-.06,0-.09,0l-.11-1.28c.07,0,.14,0,.2,0,.13,0,.27,0,.4-.01l-.06,1.29h0Zm-1.51-.09c-.14-.02-.28-.05-.42-.08l.16-1.28c.19.05.39.09.59.12l-.32,1.24h0Zm-1.46-.4c-.13-.05-.27-.11-.39-.17l.42-1.22c.18.09.36.17.55.24l-.58,1.15h0Zm-1.34-.7c-.12-.08-.24-.16-.35-.25l.66-1.1c.16.12.32.24.49.35l-.8,1h0Zm-1.17-.96c-.1-.1-.2-.21-.29-.31l.88-.94c.13.15.27.3.41.44l-.99.82h0Zm-.95-1.18c-.08-.12-.15-.24-.22-.37l1.06-.74c.09.18.2.35.31.52l-1.14.59h0Zm-.68-1.35c-.05-.13-.1-.27-.14-.41l1.19-.5c.06.19.12.38.2.57l-1.24.34h0Zm-.38-1.46c-.02-.14-.04-.28-.05-.43l1.26-.24c.01.2.04.4.07.6l-1.28.07h0Zm-.07-1.51c0-.14.02-.29.04-.43l1.29.02c-.03.2-.04.4-.05.6l-1.27-.19h0Zm.24-1.49c.04-.14.08-.28.12-.41l1.25.29c-.07.19-.13.38-.18.57l-1.2-.45h0Zm.55-1.41c.07-.13.14-.25.21-.38l1.16.54c-.11.17-.2.34-.29.53l-1.08-.69h0Zm.83-1.26c.09-.11.19-.22.28-.32l1.03.77c-.14.14-.27.3-.4.45l-.91-.9h0Zm1.08-1.06c.11-.09.23-.18.34-.26l.84.97c-.17.11-.33.23-.48.36l-.71-1.08h0Zm1.27-.82c.13-.06.26-.13.39-.18l.62,1.13c-.19.08-.37.16-.54.25l-.47-1.2h0Zm1.41-.54c.14-.04.28-.07.42-.1l.38,1.23c-.2.03-.4.08-.59.13l-.21-1.27h0Z"/><path class="cls-6" d="m62.6,67.28c2.21,0,4,1.79,4,4s-1.79,4-4,4-4-1.79-4-4,1.79-4,4-4h0Z"/><path class="cls-9" d="m62.6,67.98c1.83,0,3.3,1.48,3.3,3.3s-1.48,3.31-3.3,3.31-3.3-1.48-3.3-3.31,1.48-3.3,3.3-3.3h0Z"/><path class="cls-6" d="m62.6,69.91c.76,0,1.38.62,1.38,1.37s-.61,1.38-1.38,1.38-1.38-.62-1.38-1.38.62-1.37,1.38-1.37h0Z"/><path class="cls-6" d="m62.6,69.13c.12,0,.21.1.21.21s-.09.21-.21.21-.21-.1-.21-.21.1-.21.21-.21h0Z"/><path class="cls-6" d="m61.33,69.54c.1-.07.23-.05.3.05.07.09.05.23-.05.3-.1.07-.23.05-.3-.05-.07-.09-.05-.23.05-.3h0Z"/><path class="cls-6" d="m60.55,70.62c.04-.11.16-.17.27-.14.11.04.17.16.14.27-.04.11-.16.17-.27.14-.11-.04-.17-.16-.14-.27h0Z"/><path class="cls-6" d="m60.55,71.95c-.04-.11.02-.23.14-.27.11-.04.23.03.27.14.04.11-.02.23-.14.27-.11.04-.23-.03-.27-.14h0Z"/><path class="cls-6" d="m61.33,73.03c-.09-.07-.12-.2-.05-.3.07-.09.2-.12.3-.05.1.07.12.2.05.3-.07.09-.2.12-.3.05h0Z"/><path class="cls-6" d="m62.6,73.44c-.12,0-.21-.1-.21-.21s.1-.21.21-.21.21.1.21.21-.09.21-.21.21h0Z"/><path class="cls-6" d="m63.87,73.03c-.09.07-.23.05-.3-.05-.07-.1-.05-.23.05-.3.09-.07.23-.05.3.05.07.09.05.23-.05.3h0Z"/><path class="cls-6" d="m64.65,71.95c-.04.11-.16.17-.27.14-.11-.04-.17-.16-.14-.27.04-.11.16-.17.27-.14.11.04.17.16.14.27h0Z"/><path class="cls-6" d="m64.65,70.62c.04.11-.02.23-.14.27-.11.04-.23-.03-.27-.14-.04-.11.02-.23.14-.27.11-.04.23.02.27.14h0Z"/><path class="cls-6" d="m63.87,69.54c.09.07.12.2.05.3-.07.09-.2.12-.3.05-.09-.07-.12-.2-.05-.3.07-.09.2-.12.3-.05h0Z"/><path class="cls-10" d="m5.6,36.27h8.23c.51,0,.93.42.93.93v2.99c0,.51-.42.93-.93.93H5.6c-.51,0-.94-.42-.94-.93v-2.99c0-.51.42-.93.94-.93h0Z"/><polygon class="cls-3" points="6.07 37.81 13.36 37.81 13.36 39.59 6.07 39.59 6.07 37.81 6.07 37.81"/><path class="cls-1" d="m53.08,45.98c-.05,0-.11,0-.16,0-.81-.09-1.4-.82-1.31-1.63l1.44-13.17-.18-19.8c0-.82.65-1.48,1.46-1.49h.01c.81,0,1.47.65,1.48,1.46l.18,19.88c0,.06,0,.12,0,.18l-1.45,13.25c-.08.76-.72,1.32-1.47,1.32Z"/><path class="cls-4" d="m54.26,27.44c.26-.13.58-.02.71.24.13.26.02.58-.24.71-.26.13-.58.02-.71-.24-.13-.26-.02-.58.24-.71h0Z"/><path class="cls-4" d="m54.29,30.17c.26-.13.58-.02.71.24.13.26.02.58-.24.71-.26.13-.58.02-.71-.24-.13-.26-.02-.58.24-.71h0Z"/><path class="cls-12" d="m36.2,64.37c-.55,0-1-.42-1.05-.96-.55-6.37.49-10.89,3.16-13.8,2.7-2.95,6.96-4.26,13.8-4.26h6.82c.28,0,.55.12.75.32.2.2.31.47.31.75v11.56c-.01.21-.08.42-.2.6-.14.2-.28.42-.43.64-1.29,1.94-3.23,4.87-6.23,5.07l-16.92.09h0Zm15.95-16.92c-6.24,0-10.02,1.1-12.29,3.58-2.12,2.31-3,5.99-2.68,11.22l15.87-.09c1.89-.13,3.42-2.44,4.54-4.13.09-.14.18-.27.27-.4v-10.18s-5.71,0-5.71,0Z"/><path class="cls-11" d="m61.36,21.24l8.76-4.38c.78-.39,1.61-.39,2.4-.01,14.21,6.9,19.77,18.74,19.71,34.66-1.55,4.16-2.14,4.95-5.78,7.62-1.04.77-3.38,1.14-4.32.25l-21.15-20.14c-.27-.26-.43-.57-.45-.95l-.66-14.49c-.05-1.09.52-2.06,1.5-2.55h0Z"/><path class="cls-5" d="m86.53,26.47c3.14,3.31,5.24,8.52,6.04,11.15.68,2.23.9,3.29-1,4.89h0c-1.84-11.43-7.67-20.13-19.06-25.66-.39-.19-.79-.28-1.2-.28,3.75-.44,9.45,3.83,15.21,9.9h0Z"/><path class="cls-5" d="m67.9,17.17l1.66-.83c.26-.13.58-.02.72.24l8.02,16.08c.13.26.02.58-.24.72l-1.66.83c-.26.13-.58.02-.72-.24l-8.02-16.08c-.13-.26-.02-.58.24-.71h0Z"/><path class="cls-4" d="m75.9,31.12c.29-.15.65-.03.8.27.15.29.03.65-.27.8-.29.15-.65.03-.8-.27-.15-.29-.03-.65.27-.8h0Z"/><path class="cls-4" d="m71.39,22.08c.29-.15.65-.03.8.27.15.29.03.65-.27.8-.29.15-.65.03-.8-.27-.15-.29-.03-.65.27-.8h0Z"/><path class="cls-5" d="m64.74,18.71l1.66-.83c.26-.13.58-.02.72.24l8.02,16.08c.13.26.02.58-.24.72l-1.66.83c-.26.13-.58.02-.72-.24l-8.02-16.08c-.13-.26-.02-.58.24-.72h0Z"/><path class="cls-4" d="m72.74,32.67c.29-.15.65-.03.8.27.15.29.03.65-.27.8-.29.15-.65.03-.8-.27-.15-.29-.03-.65.27-.8h0Z"/><path class="cls-4" d="m68.23,23.62c.29-.15.65-.03.8.27.15.29.03.65-.27.8-.29.15-.65.03-.8-.27-.15-.29-.03-.65.27-.8h0Z"/><path class="cls-2" d="m58.13,23.78h1.74l.61,13.32h-2.34c-.86,0-1.57-.72-1.57-1.6v-10.12c0-.88.71-1.6,1.57-1.6h0Z"/><path class="cls-14" d="m57.97,25.93c0-.65.51-1.19,1.17-1.2.65,0,1.19.52,1.2,1.17l.15,12.29c0,.09.01.17.04.24.03.07.07.14.13.2l23.01,21.59c.43.49.39,1.24-.1,1.67-.49.43-1.24.39-1.67-.1l-23.01-21.59c-.25-.28-.44-.59-.56-.92-.13-.33-.19-.69-.2-1.06l-.15-12.29h0Z"/><path class="cls-4" d="m58.78,26.79c.29-.15.65-.03.8.27.15.29.03.65-.27.8-.29.15-.65.03-.8-.27-.15-.29-.03-.65.27-.8h0Z"/><path class="cls-4" d="m58.78,35c.29-.15.65-.03.8.27.15.29.03.65-.27.8-.29.15-.65.03-.8-.27-.15-.29-.03-.65.27-.8h0Z"/><path class="cls-14" d="m87.64,58.15c-.11,0-.21-.06-.27-.17l-19.63-39.94c-.07-.15-.01-.32.13-.4.15-.07.32-.01.4.14l19.63,39.94c.07.15.01.32-.13.4-.04.02-.09.03-.13.03Z"/><path class="cls-6" d="m37.49,58.44c3.1-1.87,11.2-2.32,19.76-2.7l-.06,1.8c-6.18-.11-12.63.08-19.69.9h0Z"/><polygon class="cls-10" points="43.58 10.44 41.93 10.44 41.93 48.97 43.58 48.97 43.58 10.44 43.58 10.44"/><path class="cls-10" d="m36.32,15.5h5.85c.34,0,.63.28.63.63v.34c0,.34-.28.63-.63.63h-5.85c-.34,0-.63-.28-.63-.63v-.34c0-.34.28-.63.63-.63h0Z"/><path class="cls-10" d="m36.32,43.51h5.85c.34,0,.63.28.63.63v.34c0,.34-.28.63-.63.63h-5.85c-.34,0-.63-.28-.63-.63v-.34c0-.34.28-.63.63-.63h0Z"/><path class="cls-3" d="m54.07,63.02c.06.22.09.46.09.7v8.44c0,1.33-.93,2.42-2.07,2.42h-13.35c-1.14,0-2.07-1.09-2.07-2.42v-8.44c0-.14,0-.27.03-.4l16.36-.09c.35-.02.69-.1,1.01-.21h0Z"/><path class="cls-10" d="m23.83,58.65c5.48,0,9.91,4.44,9.91,9.91s-4.44,9.91-9.91,9.91-9.91-4.44-9.91-9.91,4.44-9.91,9.91-9.91h0Z"/><path class="cls-3" d="m23.83,60.06c4.69,0,8.5,3.81,8.5,8.5s-3.81,8.5-8.5,8.5-8.5-3.81-8.5-8.5,3.81-8.5,8.5-8.5h0Z"/><path class="cls-3" d="m23.36,58.61l-.08,1.77c.18-.01.36-.02.55-.02.09,0,.19,0,.28,0l-.15-1.76s-.08,0-.13,0c-.16,0-.31,0-.47.01h0Zm2.08.12c.2.03.39.07.58.11l-.22,1.76c-.27-.07-.54-.12-.81-.16l.45-1.71h0Zm2.01.55c.18.07.37.15.54.23l-.58,1.67c-.25-.12-.5-.23-.76-.32l.79-1.58h0Zm1.85.96c.16.11.33.22.48.34l-.91,1.52c-.22-.17-.44-.33-.68-.48l1.11-1.38h0Zm1.61,1.32c.14.14.27.28.4.43l-1.21,1.29c-.18-.21-.37-.41-.56-.61l1.37-1.12h0Zm1.3,1.62c.11.17.21.34.3.51l-1.45,1.02c-.13-.24-.27-.48-.43-.71l1.57-.81h0Zm.94,1.86c.07.18.13.37.19.56l-1.63.69c-.08-.27-.17-.53-.27-.78l1.71-.47h0Zm.53,2.01c.03.19.05.39.07.59l-1.74.34c-.02-.28-.05-.55-.1-.82l1.77-.1h0Zm.1,2.08c-.01.2-.03.39-.05.59l-1.77-.03c.04-.27.06-.55.07-.82l1.75.27h0Zm-.34,2.06c-.05.19-.11.38-.17.57l-1.73-.4c.09-.26.17-.52.24-.79l1.66.63h0Zm-.76,1.94c-.09.18-.19.35-.29.52l-1.61-.75c.15-.23.28-.48.4-.72l1.49.96h0Zm-1.15,1.74c-.12.15-.25.3-.39.45l-1.42-1.07c.19-.2.37-.41.54-.62l1.26,1.24h0Zm-1.48,1.46c-.15.12-.31.24-.47.36l-1.16-1.34c.23-.15.45-.32.66-.5l.97,1.48h0Zm-1.75,1.13c-.17.09-.35.17-.53.25l-.86-1.55c.26-.1.51-.22.75-.35l.64,1.65h0Zm-1.95.74c-.19.05-.38.09-.58.13l-.52-1.69c.27-.05.54-.11.81-.18l.29,1.75h0Zm-2.06.31c-.15,0-.31.01-.47.01-.04,0-.08,0-.13,0l-.15-1.76c.09,0,.19,0,.28,0,.18,0,.37,0,.55-.02l-.08,1.77h0Zm-2.08-.12c-.19-.03-.39-.07-.58-.11l.22-1.76c.27.07.54.12.81.16l-.45,1.71h0Zm-2.01-.55c-.18-.07-.37-.15-.54-.23l.58-1.67c.25.12.5.23.76.33l-.79,1.58h0Zm-1.85-.96c-.17-.11-.33-.22-.48-.34l.91-1.52c.22.17.44.33.68.48l-1.11,1.38h0Zm-1.61-1.32c-.14-.14-.27-.29-.4-.43l1.21-1.3c.18.21.37.41.57.61l-1.37,1.12h0Zm-1.3-1.62c-.11-.17-.21-.33-.3-.51l1.45-1.02c.13.24.27.48.43.71l-1.57.81h0Zm-.94-1.86c-.07-.18-.13-.37-.19-.56l1.63-.69c.08.27.17.53.27.78l-1.71.47h0Zm-.53-2.01c-.03-.19-.05-.39-.07-.59l1.74-.34c.02.28.05.55.1.82l-1.77.1h0Zm-.1-2.08c.01-.2.03-.39.05-.59l1.77.03c-.04.27-.06.55-.07.82l-1.75-.27h0Zm.34-2.06c.05-.19.11-.38.17-.56l1.73.4c-.09.26-.17.52-.24.79l-1.66-.63h0Zm.76-1.94c.09-.18.19-.35.29-.52l1.6.75c-.15.23-.28.47-.4.72l-1.49-.96h0Zm1.15-1.74c.12-.15.25-.3.39-.45l1.41,1.07c-.19.2-.37.41-.54.62l-1.26-1.24h0Zm1.48-1.46c.15-.12.31-.24.47-.36l1.16,1.34c-.23.15-.45.32-.66.5l-.97-1.48h0Zm1.75-1.13c.18-.09.35-.17.54-.25l.86,1.55c-.26.1-.51.22-.75.35l-.64-1.65h0Zm1.95-.74c.19-.05.38-.09.58-.13l.52,1.69c-.27.05-.54.11-.81.18l-.29-1.75h0Z"/><path class="cls-6" d="m23.83,63.05c3.04,0,5.51,2.47,5.51,5.51s-2.47,5.51-5.51,5.51-5.51-2.47-5.51-5.51,2.47-5.51,5.51-5.51h0Z"/><path class="cls-9" d="m23.83,64.01c2.51,0,4.55,2.04,4.55,4.55s-2.04,4.55-4.55,4.55-4.55-2.04-4.55-4.55,2.04-4.55,4.55-4.55h0Z"/><path class="cls-6" d="m23.83,66.67c1.05,0,1.89.85,1.89,1.89s-.85,1.89-1.89,1.89-1.89-.85-1.89-1.89.85-1.89,1.89-1.89h0Z"/><path class="cls-6" d="m23.83,65.6c.16,0,.29.13.29.29s-.13.29-.29.29-.29-.13-.29-.29.13-.29.29-.29h0Z"/><path class="cls-6" d="m22.08,66.16c.13-.09.31-.07.41.06.09.13.07.31-.07.41-.13.09-.31.07-.41-.06-.09-.13-.07-.31.06-.41h0Z"/><path class="cls-6" d="m21.01,67.64c.05-.15.21-.24.37-.19.15.05.24.21.19.37-.05.15-.21.24-.37.19-.15-.05-.24-.22-.19-.37h0Z"/><path class="cls-6" d="m21.01,69.48c-.05-.15.03-.32.19-.37.15-.05.32.03.37.19.05.15-.03.32-.19.37-.15.05-.32-.03-.37-.19h0Z"/><path class="cls-6" d="m22.08,70.96c-.13-.1-.16-.28-.06-.41.09-.13.28-.16.41-.07.13.1.16.28.06.41-.09.13-.28.16-.41.06h0Z"/><path class="cls-6" d="m23.83,71.53c-.16,0-.29-.13-.29-.29s.13-.29.29-.29.29.13.29.29-.13.29-.29.29h0Z"/><path class="cls-6" d="m25.57,70.96c-.13.09-.31.07-.41-.06-.1-.13-.07-.31.06-.41.13-.09.31-.07.41.06.1.13.07.31-.06.41h0Z"/><path class="cls-6" d="m26.65,69.48c-.05.15-.22.24-.37.19-.15-.05-.24-.21-.19-.37.05-.15.22-.24.37-.19.15.05.24.21.19.37h0Z"/><path class="cls-6" d="m26.65,67.65c.05.15-.03.32-.19.37-.15.05-.32-.03-.37-.19-.05-.15.03-.32.19-.37.15-.05.32.03.37.19h0Z"/><path class="cls-6" d="m25.57,66.16c.13.1.16.28.06.41-.09.13-.28.16-.41.07-.13-.1-.16-.28-.06-.41.1-.13.28-.16.41-.06h0Z"/><g class="cls-13"><path class="cls-8" d="m23.83,58.65c-.1,0-.19.01-.29.01v19.8c.1,0,.19.01.29.01,5.48,0,9.91-4.44,9.91-9.91s-4.44-9.91-9.91-9.91Z"/></g><g class="cls-13"><path class="cls-8" d="m62.6,64.08v14.41c3.98,0,7.2-3.23,7.2-7.2s-3.23-7.2-7.2-7.2Z"/></g><path class="cls-12" d="m33.43,57.67H3.32c-.33,0-.64-.11-.87-.31-.23-.2-.36-.47-.36-.75.03-15.04,2.91-30.33,8.81-46.72.16-.44.64-.74,1.18-.74,6.83,0,13.5.06,19.94.13,6.44.06,13.09.13,19.91.13.68,0,1.23.47,1.23,1.05l.05,35.74c.02.07.02.14.02.21,0,.58-.55,1.06-1.23,1.06,0,0-.01,0-.02,0-.02,0-.05,0-.07,0-.81-.04-1.59-.06-2.36-.06-9.25,0-14.12,3.05-14.9,9.33-.07.54-.59.94-1.22.94Zm-28.87-2.11h27.79c1.34-7.09,7.53-10.54,18.4-10.26l-.05-33.79c-6.4,0-12.65-.07-18.71-.13-6.15-.06-12.5-.12-19-.13-5.51,15.53-8.27,30.04-8.42,44.3Z"/><path class="cls-12" d="m5.02,19.29h-1.05v-2.48c0-1.38,1.12-2.51,2.5-2.52l3.17-.02v1.06s-3.16.02-3.16.02c-.8,0-1.45.66-1.45,1.46v2.48Z"/><path class="cls-3" d="m3.15,18.34h2.92c.52,0,.95.43.95.95v9.91c0,.52-.43.95-.95.95h-2.92c-.52,0-.95-.43-.95-.95v-9.91c0-.52.43-.95.95-.95h0Z"/></g></svg>