<?xml version="1.0" encoding="UTF-8"?><svg id="Layer_2" xmlns="http://www.w3.org/2000/svg" viewBox="0 0 121.72 62.17"><defs><style>.cls-1{fill:#fff;}.cls-2,.cls-3,.cls-4,.cls-5{fill-rule:evenodd;}.cls-2,.cls-6{fill:#17854a;}.cls-3{fill:#6d6e70;}.cls-4{fill:#156b40;}.cls-5{fill:#00a551;}</style></defs><g id="Layer_1-2"><polygon class="cls-2" points="96.61 10.97 98.52 10.97 98.52 49.34 96.61 49.34 96.61 10.97 96.61 10.97"/><polygon class="cls-2" points="102.91 24.94 115.77 0 117.79 1.04 104.93 25.98 102.91 24.94 102.91 24.94"/><polygon class="cls-2" points="48.09 23.18 113.07 5.31 113.67 7.5 48.69 25.37 48.09 23.18 48.09 23.18"/><path class="cls-5" d="m47.92,22.68h1.8c.39,0,.71.4.71.89v4.03c0,.49-.32.89-.71.89h-1.8c-.39,0-.71-.4-.71-.89v-4.03c0-.49.32-.89.71-.89h0Z"/><path class="cls-5" d="m103.56,22.68h1.8c.39,0,.71.4.71.89v4.03c0,.49-.32.89-.71.89h-1.8c-.39,0-.71-.4-.71-.89v-4.03c0-.49.32-.89.71-.89h0Z"/><path class="cls-2" d="m48.86,23.28c.49,0,.88.39.88.88s-.39.88-.88.88-.88-.39-.88-.88.39-.88.88-.88h0Z"/><path class="cls-2" d="m104.51,23.28c.49,0,.88.39.88.88s-.39.88-.88.88-.88-.39-.88-.88.39-.88.88-.88h0Z"/><polygon class="cls-5" points="14.41 27.28 106.12 27.28 106.12 31.01 14.41 31.01 14.41 27.28 14.41 27.28"/><path class="cls-6" d="m108.06,30.13v-1.63s10.06-.02,10.06-.02c1.53,0,1.67-.6,1.69-1.16l1.62.05c-.03,1.02-.5,2.74-3.31,2.74l-10.06.02Z"/><path class="cls-5" d="m120.63,25.17c.6,0,1.09.49,1.09,1.09s-.49,1.09-1.09,1.09-1.09-.49-1.09-1.09.49-1.09,1.09-1.09h0Z"/><path class="cls-5" d="m106.12,27.28l4.38,1.96c.4.18.62.61.53,1.04-.09.43-.46.73-.9.73h-4s0-3.73,0-3.73h0Z"/><path class="cls-2" d="m109.26,29.15c.37,0,.67.3.67.67s-.3.67-.67.67-.67-.3-.67-.67.3-.67.67-.67h0Z"/><polygon class="cls-4" points="17.78 32.2 22.23 35.88 26.94 32.2 17.78 32.2 17.78 32.2"/><polygon class="cls-2" points="21.4 31.01 23.31 31.01 23.31 44.19 21.4 44.19 21.4 31.01 21.4 31.01"/><polygon class="cls-2" points="17.78 31.01 26.94 31.01 26.94 32.2 17.78 32.2 17.78 31.01 17.78 31.01"/><path class="cls-2" d="m24.88,26.56h0c.29,0,.53.18.53.4v5.55c0,.22-.24.4-.53.4h0c-.29,0-.53-.18-.53-.4v-5.55c0-.22.24-.4.53-.4h0Z"/><path class="cls-2" d="m19.84,26.56h0c.29,0,.53.18.53.4v5.55c0,.22-.24.4-.53.4h0c-.29,0-.53-.18-.53-.4v-5.55c0-.22.24-.4.53-.4h0Z"/><polygon class="cls-4" points="60.05 32.2 64.5 35.88 69.21 32.2 60.05 32.2 60.05 32.2"/><polygon class="cls-2" points="63.67 31.01 65.58 31.01 65.58 44.19 63.67 44.19 63.67 31.01 63.67 31.01"/><polygon class="cls-2" points="60.05 31.01 69.21 31.01 69.21 32.2 60.05 32.2 60.05 31.01 60.05 31.01"/><path class="cls-2" d="m67.15,26.56h0c.29,0,.53.18.53.4v5.55c0,.22-.24.4-.53.4h0c-.29,0-.53-.18-.53-.4v-5.55c0-.22.24-.4.53-.4h0Z"/><path class="cls-2" d="m62.11,26.56h0c.29,0,.53.18.53.4v5.55c0,.22-.24.4-.53.4h0c-.29,0-.53-.18-.53-.4v-5.55c0-.22.24-.4.53-.4h0Z"/><polygon class="cls-4" points="38.91 32.2 43.37 35.88 48.07 32.2 38.91 32.2 38.91 32.2"/><polygon class="cls-2" points="42.54 31.01 44.45 31.01 44.45 44.19 42.54 44.19 42.54 31.01 42.54 31.01"/><polygon class="cls-2" points="38.91 31.01 48.07 31.01 48.07 32.2 38.91 32.2 38.91 31.01 38.91 31.01"/><path class="cls-2" d="m46.02,26.56h0c.29,0,.53.18.53.4v5.55c0,.22-.24.4-.53.4h0c-.29,0-.53-.18-.53-.4v-5.55c0-.22.24-.4.53-.4h0Z"/><path class="cls-2" d="m40.97,26.56h0c.29,0,.53.18.53.4v5.55c0,.22-.24.4-.53.4h0c-.29,0-.53-.18-.53-.4v-5.55c0-.22.24-.4.53-.4h0Z"/><polygon class="cls-4" points="81.18 32.2 85.63 35.88 90.34 32.2 81.18 32.2 81.18 32.2"/><polygon class="cls-2" points="84.81 31.01 86.72 31.01 86.72 44.19 84.81 44.19 84.81 31.01 84.81 31.01"/><polygon class="cls-2" points="81.18 31.01 90.34 31.01 90.34 32.2 81.18 32.2 81.18 31.01 81.18 31.01"/><path class="cls-2" d="m88.28,26.56h0c.29,0,.53.18.53.4v5.55c0,.22-.24.4-.53.4h0c-.29,0-.53-.18-.53-.4v-5.55c0-.22.24-.4.53-.4h0Z"/><path class="cls-2" d="m83.24,26.56h0c.29,0,.53.18.53.4v5.55c0,.22-.24.4-.53.4h0c-.29,0-.53-.18-.53-.4v-5.55c0-.22.24-.4.53-.4h0Z"/><path class="cls-5" d="m113.52,6.01c.49,0,.88.39.88.88s-.39.88-.88.88-.88-.39-.88-.88.39-.88.88-.88h0Z"/><path class="cls-5" d="m104.9,44.78c.4.55.75,1.15,1.03,1.8.53,1.22.76,2.49.74,3.73-4.11.46-7.52,3.69-8.02,7.98-.04.31-.06.62-.06.92-2,.22-3.99-.23-5.68-1.23,1.66-3.79.56-8.36-2.9-10.93-.25-.19-.51-.36-.77-.51.78-1.78,2.12-3.31,3.9-4.3,2.45,3.33,6.96,4.66,10.92,2.96.29-.12.56-.26.83-.41h0Z"/><path class="cls-2" d="m97.44,47.61c1.24,0,2.25,1.01,2.25,2.25s-1.01,2.25-2.25,2.25-2.25-1.01-2.25-2.25,1.01-2.25,2.25-2.25h0Z"/><path class="cls-6" d="m97.44,59.43c-2.45,0-4.79-.93-6.58-2.61-3.84-3.63-4.01-9.7-.39-13.54,1.83-1.94,4.3-3,6.97-3,2.45,0,4.79.93,6.58,2.61,3.84,3.63,4.02,9.7.39,13.54-1.83,1.94-4.3,3-6.97,3Zm0-18.19c-2.39,0-4.62.96-6.26,2.7-3.26,3.45-3.1,8.91.35,12.17,1.6,1.52,3.7,2.35,5.91,2.35,2.39,0,4.62-.96,6.26-2.7,3.26-3.45,3.1-8.91-.35-12.17-1.6-1.52-3.7-2.35-5.91-2.35Z"/><path class="cls-3" d="m1.06,48.93c2.09,3.38,12.92,5.97,19.09,8.66.65,1.39,1.29,2.79,1.94,4.18,7.41-.55,14.81-1.09,22.22-1.64-9.49-3.58-15.11-8.46-15.06-15.23-8.55-8.46-33.15-2.34-28.18,4.03h0Z"/><path class="cls-1" d="m22.09,62.17c-.16,0-.3-.09-.37-.24l.37-.17-.39.12-1.85-3.99c-1.87-.81-4.13-1.59-6.51-2.42-5.46-1.9-11.1-3.87-12.62-6.33-.79-1-.94-2.12-.41-3.21,1.5-3.08,8.68-5.58,16-5.58,5.75,0,10.45,1.51,13.23,4.26.08.08.12.18.12.29-.05,6.21,4.79,11.07,14.8,14.84.18.07.29.25.26.44-.03.19-.18.33-.37.35l-22.22,1.64s-.02,0-.03,0Zm-5.78-21.01c-6.92,0-13.91,2.35-15.27,5.12-.39.81-.28,1.59.34,2.39,1.39,2.25,7.14,4.26,12.22,6.03,2.46.86,4.78,1.67,6.71,2.51.09.04.16.11.21.2l1.82,3.92,20.17-1.49c-9.15-3.78-13.63-8.63-13.67-14.78-2.64-2.52-7.08-3.9-12.53-3.9Z"/><path class="cls-3" d="m22.2,48.93c2.09,3.38,12.92,5.97,19.09,8.66.65,1.39,1.29,2.79,1.94,4.18,7.41-.55,14.81-1.09,22.22-1.64-9.49-3.58-15.11-8.46-15.06-15.23-8.55-8.46-33.15-2.34-28.18,4.03h0Z"/><path class="cls-1" d="m43.22,62.17c-.16,0-.3-.09-.37-.24l-1.87-4.04c-1.87-.81-4.12-1.59-6.51-2.42-5.46-1.9-11.1-3.87-12.62-6.33-.79-1-.94-2.12-.41-3.21,1.5-3.08,8.68-5.58,15.99-5.58,5.76,0,10.45,1.51,13.23,4.26.08.08.12.18.12.29-.05,6.21,4.79,11.07,14.8,14.84.18.07.29.25.26.44-.03.19-.18.33-.37.35l-22.22,1.64s-.02,0-.03,0Zm-5.78-21.01c-6.92,0-13.91,2.35-15.26,5.12-.39.81-.28,1.59.34,2.39,1.39,2.25,7.14,4.26,12.22,6.03,2.46.86,4.78,1.67,6.71,2.51.09.04.16.11.21.2l1.82,3.92,20.17-1.49c-9.15-3.78-13.63-8.63-13.67-14.78-2.64-2.52-7.08-3.9-12.53-3.9Z"/><path class="cls-3" d="m43.33,48.93c2.09,3.38,12.92,5.97,19.09,8.66.65,1.39,1.29,2.79,1.94,4.18,7.41-.55,14.81-1.09,22.22-1.64-9.49-3.58-15.11-8.46-15.06-15.23-8.55-8.46-33.15-2.34-28.18,4.03h0Z"/><path class="cls-1" d="m64.36,62.17c-.16,0-.3-.09-.37-.24l-1.87-4.04c-1.87-.8-4.12-1.59-6.51-2.42-5.46-1.9-11.1-3.87-12.62-6.33-.79-1-.94-2.12-.41-3.21,1.5-3.08,8.68-5.58,16-5.58,5.76,0,10.45,1.51,13.23,4.26.08.08.12.18.12.29-.05,6.21,4.79,11.07,14.8,14.84.18.07.29.25.26.44-.03.19-.18.33-.37.35l-22.22,1.64s-.02,0-.03,0Zm-5.78-21.01c-6.92,0-13.91,2.35-15.27,5.12-.39.81-.28,1.59.34,2.39,1.39,2.25,7.15,4.26,12.22,6.03,2.46.86,4.78,1.67,6.71,2.51.09.04.16.11.21.2l1.82,3.92,20.17-1.49c-9.15-3.78-13.63-8.63-13.67-14.78-2.64-2.52-7.08-3.9-12.53-3.9Z"/><path class="cls-3" d="m64.47,48.93c2.09,3.38,12.92,5.97,19.09,8.66.65,1.39,1.29,2.79,1.94,4.18,7.41-.55,14.81-1.09,22.22-1.64-9.49-3.58-15.11-8.46-15.06-15.23-8.55-8.46-33.15-2.34-28.18,4.03h0Z"/><path class="cls-1" d="m85.49,62.17c-.16,0-.3-.09-.37-.24l-1.87-4.04c-1.87-.81-4.13-1.59-6.51-2.42-5.46-1.9-11.1-3.87-12.62-6.33-.79-1-.94-2.12-.41-3.21,1.5-3.08,8.68-5.58,15.99-5.58,5.76,0,10.45,1.51,13.23,4.26.08.08.12.18.12.29-.05,6.21,4.79,11.07,14.8,14.84.18.07.29.25.26.44-.03.19-.18.33-.37.35l-22.22,1.64s-.02,0-.03,0Zm-5.78-21.01c-6.92,0-13.91,2.35-15.26,5.12-.39.81-.28,1.59.34,2.39,1.39,2.25,7.14,4.26,12.22,6.03,2.46.86,4.78,1.67,6.71,2.51.09.04.16.11.21.2l1.82,3.92,20.17-1.49c-9.15-3.78-13.63-8.63-13.67-14.78-2.64-2.52-7.08-3.9-12.53-3.9Z"/></g></svg>