<?xml version="1.0" encoding="UTF-8"?><svg id="Layer_2" xmlns="http://www.w3.org/2000/svg" viewBox="0 0 281.06 102.78"><defs><style>.cls-1,.cls-2{fill:#00a551;}.cls-3{fill:#58595b;}.cls-3,.cls-4,.cls-5,.cls-6,.cls-7,.cls-8,.cls-9,.cls-10,.cls-11,.cls-2{fill-rule:evenodd;}.cls-12,.cls-11{fill:#404041;}.cls-13{opacity:.33;}.cls-4{fill:#17854a;}.cls-5{fill:#ffdd0f;}.cls-6{fill:#f48120;}.cls-7{fill:#020000;}.cls-8{fill:#a5cd39;}.cls-9{fill:#156b40;}.cls-10{fill:#eeb926;}.cls-14{fill:#2b646f;}.cls-15{fill:#4eaaa7;}</style></defs><g id="Layer_1-2"><polygon class="cls-14" points="144.14 9.33 151.28 29.43 173.36 9.22 144.14 9.33"/><polygon class="cls-14" points="186.24 9.17 183.72 9.18 153.82 36.56 154.74 39.17 185.86 10.67 186.24 9.17"/><polygon class="cls-14" points="183.89 18.57 156.85 43.34 177.72 43.34 183.89 18.57"/><polygon class="cls-15" points="173.36 9.22 151.28 29.43 153.82 36.56 183.72 9.18 173.36 9.22"/><polygon class="cls-15" points="185.86 10.67 154.74 39.17 156.22 43.34 156.85 43.34 183.89 18.57 185.86 10.67"/><polygon class="cls-11" points="137.29 43.34 177.95 43.34 177.06 46.77 137.29 46.77 137.29 43.34 137.29 43.34"/><polygon class="cls-11" points="148.82 8.65 161.5 50.72 158.77 51.79 146.09 9.72 148.82 8.65 148.82 8.65"/><path class="cls-1" d="m166.68,51.15l-.09-19.99-14.74.08v-1.13s14.74-.08,14.74-.08l-.03-7.16c-.01-2.5-1.35-4.38-3.1-4.38h-14.38v-1.13h14.38c2.32,0,4.08,2.37,4.1,5.51l.13,28.28h-.99Z"/><polygon class="cls-11" points="55.54 76.34 96.84 76.34 96.84 86.24 55.54 86.24 55.54 76.34 55.54 76.34"/><path class="cls-11" d="m25.58,73.33l14.17.06c6.55-8.8,22.75-9.91,39.76-10.37l-9.36-10.37-45.87.44,1.3,20.23h0Z"/><path class="cls-9" d="m4.34,62.45h15.69v3.5H7.09c-.52,0-.97.29-1.25.8l-3.26,6.05H0l2.96-9.25c.22-.68.75-1.1,1.38-1.1h0Z"/><path class="cls-9" d="m8.18,64.05l4.92-16.27c.37-1.21,1.25-1.98,2.29-1.98h17.37s-1.47,18.37-1.47,18.37l-23.11-.12h0Z"/><path class="cls-4" d="m31.34,63.4l-.42,6.42c-.06.87-.52,1.58-1.28,1.99l-4.19,2.26c-.5.27-1.01.35-1.56.26l-3.57-.6c-1.25-.21-2.13-1.32-2.04-2.58l.6-8.7,12.47.95h0Z"/><polygon class="cls-4" points="100.83 2.55 143.22 2.55 143.22 6.2 100.83 6.2 100.83 2.55 100.83 2.55"/><polygon class="cls-4" points="80.1 2.55 97.79 2.55 97.79 6.2 80.1 6.2 80.1 2.55 80.1 2.55"/><polygon class="cls-11" points="145.27 8.18 186.75 8.18 185.9 11.61 145.27 11.61 145.27 8.18 145.27 8.18"/><path class="cls-4" d="m157.66,45.16h20.13c.36,0,.65.32.65.71v5.71c0,.39-.29.71-.65.71h-20.13c-.36,0-.65-.32-.65-.71v-5.71c0-.39.29-.71.65-.71h0Z"/><polygon class="cls-9" points="159.81 85.9 194.19 88.68 194.01 90.97 159.63 88.2 159.81 85.9 159.81 85.9"/><polygon class="cls-4" points="219.45 79.15 234.01 75.3 234.63 77.68 223.53 80.61 219.45 79.15 219.45 79.15"/><path class="cls-4" d="m233.55,75.27l17.06,5.82-.38,1.21c-.14.37-.25.75-.31,1.15l-17.16-5.85.79-2.33h0Z"/><polygon class="cls-4" points="157.62 53.67 211.38 79.7 212.93 96.05 193.78 93.09 153.51 67.01 154.38 58.56 157.62 53.67"/><path class="cls-9" d="m27.03,33.15l1.94-6.1c.44-.93,1.23-1.46,2.15-1.46h34.67l-2.8,7.48-33.34-.14-2.63.22Z"/><path class="cls-4" d="m17.76,63.23l62.75,3.06,3.53,16.84c1.92,3.59,2.66,4.48,6.97,4.48,19.87,0,39.26.25,59.16.25l11.11-27.53c.23-.57.24-1.12.05-1.7l-8.99-26.52H23.57c-.8,0-1.49.35-1.96.99-4.63,6.23-6.39,16.56-6.1,27.83.05,2.1,2.26,2.3,2.26,2.3Z"/><path class="cls-9" d="m80.51,66.29l3.53,16.84c1.92,3.59,2.66,4.48,6.97,4.48,13.18,0,26.14.11,39.18.18l4.59-34.09-56.83-.03,2.57,12.62h0Z"/><path class="cls-2" d="m115.25,65.35v22.51c0,4.13-8.46,4.23-8.46,0v-22.51h8.46Z"/><polygon class="cls-5" points="15.56 47.48 34.27 47.48 34.27 51.14 15.56 51.14 15.56 47.48 15.56 47.48"/><path class="cls-6" d="m33.52,21.28h0c1.1,0,2,1.03,2,2.28v1.55c0,.27-.04.52-.11.76h-3.77c-.07-.24-.11-.49-.11-.76v-1.55c0-1.25.9-2.28,2-2.28h0Z"/><polygon class="cls-11" points="31.4 24.83 35.64 24.83 35.64 25.86 31.4 25.86 31.4 24.83 31.4 24.83"/><path class="cls-3" d="m37.82,48.81l.79-9.76c.09-1.16.76-2.09,1.74-2.42l6.31-2.12c.24-.08.45-.11.69-.11h12.43l-.78,14.06-21.18.36h0Z"/><path class="cls-3" d="m49.64,30.81h1.51c.28,0,.5.26.5.57v3.07c0,.32-.23.58-.5.58h-1.51c-.28,0-.5-.26-.5-.58v-3.07c0-.32.23-.57.5-.57h0Z"/><path class="cls-2" d="m158.54,52.41c-4.7-.01-9.4.3-14.1.3-6.77,0-8.64,2.26-12.94,5.67-3.93,3.11-5.7,3.69-11.95,3.69h-34.14c-7.96,0-10.14-1.49-15.74-5.11-2.53-1.63-3.87-1.87-7.47-2.27h-11.34v-7.38l4.98-27.2c.96-5.61,5.82-15.64,17.89-15.64h70.21c1.06,0,1.96.73,2.31,1.88l13.44,44.2c.13.44.08.89-.16,1.27-.24.38-.59.59-1,.58h0Z"/><path class="cls-11" d="m94.67,7.45l-3.06,26.94h-18.81c-3.22.04-4.24-3.07-4.41-6.11-.37-6.7,1.09-19.91,10.2-20.65,4.56-.37,9.86-.22,16.07-.18h0Z"/><path class="cls-5" d="m152.48,50.95c-4.64-1.76-17.94-2.79-35.39-3.33-18.57-.58-41.85-.6-64.38-.36v3.64s99.77.05,99.77.05h0Z"/><polygon class="cls-9" points="98.4 17.51 149.65 17.51 150.51 20.32 98.4 20.32 98.4 17.51 98.4 17.51"/><polygon class="cls-9" points="98.4 4.48 99.22 4.48 99.22 62.08 98.4 62.08 98.4 4.48 98.4 4.48"/><polygon class="cls-2" points="93.12 7.24 89.78 35.31 88.06 35.31 91.52 7.17 93.12 7.24 93.12 7.24"/><polygon class="cls-2" points="89.36 7.06 85.99 35.31 84.27 35.31 87.75 6.98 89.36 7.06 89.36 7.06"/><polygon class="cls-2" points="85.59 6.88 82.2 35.31 80.48 35.31 83.98 6.8 85.59 6.88 85.59 6.88"/><polygon class="cls-2" points="81.82 6.69 78.4 35.31 76.69 35.31 80.21 6.62 81.82 6.69 81.82 6.69"/><polygon class="cls-2" points="78.05 6.51 74.61 35.31 72.9 35.31 76.44 6.43 78.05 6.51 78.05 6.51"/><polygon class="cls-2" points="74.28 6.33 70.82 35.31 69.11 35.31 72.67 6.25 74.28 6.33 74.28 6.33"/><polygon class="cls-2" points="34.2 47.35 50.87 47.35 50.87 54.7 34.2 54.7 34.2 47.35 34.2 47.35"/><path class="cls-2" d="m146.38,7.28h40.3c.28,0,.52.25.52.55v1.42c0,.3-.23.55-.52.55h-40.3c-.28,0-.52-.25-.52-.55v-1.42c0-.3.23-.55.52-.55h0Z"/><path class="cls-5" d="m149.51,74.78c.35,0,.63.28.63.63s-.28.63-.63.63-.63-.28-.63-.63.28-.63.63-.63h0Z"/><path class="cls-5" d="m145.73,76c.28-.21.68-.14.88.14.21.28.14.68-.14.88-.28.21-.68.14-.88-.14-.21-.28-.14-.68.14-.88h0Z"/><path class="cls-5" d="m153.28,76.01c.28.21.35.6.14.88-.21.28-.6.35-.88.14-.28-.21-.35-.6-.14-.88.21-.28.6-.35.88-.14h0Z"/><path class="cls-3" d="m255.23,67.66l11.47,6.62c.78.45,1.22,1.22,1.22,2.12v13.24c0,.9-.45,1.67-1.22,2.12l-11.47,6.62c-.78.45-1.67.45-2.45,0l-11.47-6.62c-.78-.45-1.22-1.22-1.22-2.12v-13.24c0-.9.45-1.67,1.22-2.12l11.47-6.62c.78-.45,1.67-.45,2.45,0h0Zm-.23,2.95l9.27,5.35c.63.36.99.99.99,1.71v10.7c0,.73-.36,1.35-.99,1.71l-9.27,5.35c-.63.36-1.35.36-1.98,0l-9.27-5.35c-.63-.36-.99-.99-.99-1.71v-10.7c0-.73.36-1.35.99-1.71l9.27-5.35c.63-.36,1.35-.36,1.98,0h0Z"/><polygon class="cls-3" points="266.28 77.04 265.43 75.55 254.87 81.64 254.87 69.45 253.15 69.45 253.15 81.64 242.59 75.55 241.73 77.04 252.29 83.12 241.73 89.21 242.59 90.7 253.15 84.61 253.15 96.8 254.87 96.8 254.87 84.61 265.43 90.7 266.28 89.21 255.73 83.13 266.28 77.04 266.28 77.04"/><path class="cls-2" d="m259.06,81.21c.23.6.35,1.24.35,1.92,0,2.98-2.42,5.4-5.4,5.4s-5.4-2.42-5.4-5.4c0-.68.13-1.32.35-1.92l2.54-8.08c.47-1.11,1.25-2.1,2.51-2.1s2.22.94,2.51,2.1l2.54,8.08h0Z"/><path class="cls-2" d="m211.4,75.61l-5.56,7.22c-.32.41-.34.95-.07,1.4l9.67,15.47c.46.74,1.21,1.15,2.07,1.15h32.43c.45,0,.84-.22,1.06-.61l4.69-8.13c.19-.32.22-.68.09-1.03-.13-.35-.38-.6-.74-.73l-42.27-15.13c-.51-.18-1.05-.02-1.38.41h0Z"/><path class="cls-2" d="m262.2,86.24l-1.56,4.16c-.14.38.05.8.42.94l18.95,7.37c.23.09.46.06.67-.07.2-.13.32-.34.33-.59l.05-1.22-17.79-10.96c-.19-.12-.41-.14-.62-.07-.21.07-.37.22-.45.44h0Z"/><polygon class="cls-11" points="172.91 10.28 174.88 10.28 174.88 45.16 172.91 45.16 172.91 10.28 172.91 10.28"/><path class="cls-9" d="m111.02,83.71c1.5,0,2.71,1.21,2.71,2.71s-1.21,2.71-2.71,2.71-2.71-1.21-2.71-2.71,1.21-2.71,2.71-2.71h0Z"/><polygon class="cls-4" points="106.79 80.24 115.25 80.24 115.25 81.2 106.79 81.2 106.79 80.24 106.79 80.24"/><path class="cls-6" d="m139.86,0h0c1.1,0,2,1.03,2,2.28v1.55c0,.26-.04.52-.11.76h-3.77c-.07-.24-.11-.49-.11-.76v-1.55c0-1.25.9-2.28,2-2.28h0Z"/><polygon class="cls-11" points="137.74 3.56 141.98 3.56 141.98 4.59 137.74 4.59 137.74 3.56 137.74 3.56"/><path class="cls-11" d="m181.6,17.71h-2.54c-.45,0-.82.42-.82.94v9.81c0,.52.37.94.82.94h2.54c.45,0,.82-.42.82-.94v-9.81c0-.52-.37-.94-.82-.94h0Z"/><path class="cls-12" d="m180.83,19.29h-.71v-3.47c0-1.31-.93-2.38-2.08-2.39l-3.89-.03v-.81s3.9.03,3.9.03c1.54.01,2.79,1.44,2.79,3.19v3.47Z"/><path class="cls-1" d="m45.16,48.11l-.97-.24,6.19-32.64c.93-4.91,2.87-7.5,5.62-7.5h8.87v1.13h-8.87c-2.81,0-4.08,3.59-4.65,6.61l-6.19,32.64Z"/><path class="cls-8" d="m156.22,43.34c-16.91-5-35.59-6.51-45.75-6.51h-35.15c-5.11.01-6.17.1-7.72-2.76l1.85-1.58c1.37,2.83,5.28,1.87,11.14,1.91l28.46.18c13.45.09,37,4.18,47.17,8.77h0Z"/><path class="cls-9" d="m69.45,32.48c-2.84-11.64-.16-21.91,9.11-25.08-12.67,2.05-13.32,14-10.96,26.66l1.85-1.58h0Z"/><path class="cls-11" d="m149.51,59.72c11.86,0,21.48,9.62,21.48,21.48s-9.62,21.48-21.48,21.48-21.48-9.62-21.48-21.48,9.62-21.48,21.48-21.48h0Z"/><path class="cls-3" d="m149.51,62.78c10.17,0,18.42,8.25,18.42,18.42s-8.25,18.42-18.42,18.42-18.42-8.25-18.42-18.42,8.25-18.42,18.42-18.42h0Z"/><path class="cls-3" d="m148.5,59.65l-.18,3.83c.39-.03.79-.04,1.19-.04.2,0,.4,0,.61.01l-.33-3.82c-.09,0-.18,0-.27,0-.34,0-.67,0-1.01.02h0Zm4.5.26c.42.07.84.15,1.26.24l-.47,3.81c-.58-.14-1.16-.26-1.76-.34l.97-3.71h0Zm4.35,1.19c.4.16.79.32,1.18.5l-1.25,3.63c-.53-.26-1.09-.5-1.65-.7l1.72-3.43h0Zm4.01,2.07c.36.23.71.48,1.05.73l-1.98,3.29c-.47-.37-.96-.71-1.47-1.03l2.4-2.99h0Zm3.49,2.86c.3.3.59.62.87.94l-2.62,2.81c-.39-.46-.79-.9-1.22-1.31l2.97-2.43h0Zm2.82,3.52c.23.36.45.72.66,1.1l-3.14,2.2c-.28-.53-.59-1.04-.92-1.54l3.41-1.76h0Zm2.03,4.03c.15.4.29.8.42,1.21l-3.53,1.5c-.17-.58-.36-1.14-.58-1.7l3.7-1.01h0Zm1.14,4.36c.06.42.11.84.15,1.27l-3.77.73c-.04-.6-.11-1.2-.21-1.78l3.83-.22h0Zm.21,4.51c-.02.43-.06.85-.11,1.28l-3.84-.07c.08-.59.13-1.18.16-1.79l3.79.58h0Zm-.73,4.45c-.11.41-.24.82-.37,1.22l-3.74-.86c.2-.56.38-1.13.53-1.71l3.59,1.35h0Zm-1.64,4.2c-.2.38-.4.75-.62,1.12l-3.48-1.62c.32-.51.61-1.03.87-1.57l3.23,2.07h0Zm-2.48,3.77c-.27.33-.55.65-.84.97l-3.06-2.31c.42-.43.81-.88,1.18-1.35l2.73,2.7h0Zm-3.21,3.17c-.33.27-.67.52-1.02.77l-2.52-2.9c.5-.34.97-.7,1.43-1.08l2.11,3.2h0Zm-3.79,2.44c-.38.19-.77.37-1.16.54l-1.86-3.36c.56-.23,1.1-.48,1.63-.76l1.39,3.57h0Zm-4.22,1.59c-.41.11-.83.2-1.25.29l-1.12-3.67c.59-.1,1.18-.24,1.75-.4l.62,3.78h0Zm-4.46.68c-.33.02-.67.02-1.01.02-.09,0-.18,0-.27,0l-.33-3.82c.2,0,.4.01.61.01.4,0,.79-.01,1.19-.04l-.18,3.83h0Zm-4.5-.26c-.42-.07-.84-.15-1.26-.24l.47-3.81c.58.14,1.16.26,1.76.34l-.97,3.71h0Zm-4.35-1.19c-.4-.16-.79-.32-1.18-.5l1.25-3.63c.54.26,1.09.5,1.65.7l-1.72,3.43h0Zm-4-2.07c-.36-.24-.71-.48-1.05-.74l1.98-3.29c.47.37.96.71,1.47,1.03l-2.4,2.99h0Zm-3.49-2.86c-.3-.3-.59-.62-.87-.94l2.62-2.81c.39.46.79.9,1.22,1.31l-2.97,2.43h0Zm-2.82-3.52c-.23-.36-.45-.72-.66-1.1l3.14-2.2c.28.53.59,1.04.92,1.54l-3.41,1.76h0Zm-2.03-4.03c-.15-.4-.29-.8-.42-1.21l3.53-1.5c.17.58.36,1.14.58,1.7l-3.7,1.01h0Zm-1.14-4.36c-.06-.42-.11-.84-.15-1.27l3.77-.73c.04.6.11,1.2.21,1.78l-3.83.22h0Zm-.21-4.51c.02-.43.06-.85.11-1.28l3.84.07c-.08.59-.13,1.18-.16,1.79l-3.79-.58h0Zm.73-4.45c.11-.41.24-.82.37-1.22l3.74.86c-.2.56-.38,1.13-.53,1.71l-3.59-1.35h0Zm1.64-4.2c.2-.38.4-.75.62-1.12l3.48,1.62c-.32.51-.61,1.03-.87,1.57l-3.23-2.07h0Zm2.48-3.77c.27-.33.55-.65.84-.97l3.06,2.31c-.41.43-.81.88-1.18,1.35l-2.73-2.7h0Zm3.21-3.17c.33-.27.67-.52,1.02-.77l2.52,2.9c-.5.34-.97.7-1.43,1.08l-2.11-3.2h0Zm3.79-2.44c.38-.19.77-.37,1.16-.54l1.86,3.36c-.56.23-1.1.48-1.63.76l-1.39-3.57h0Zm4.22-1.59c.41-.11.83-.2,1.25-.29l1.12,3.67c-.59.1-1.18.24-1.75.4l-.62-3.78h0Z"/><path class="cls-5" d="m149.51,69.27c6.59,0,11.93,5.34,11.93,11.93s-5.34,11.93-11.93,11.93-11.93-5.34-11.93-11.93,5.34-11.93,11.93-11.93h0Z"/><path class="cls-10" d="m149.51,71.35c5.44,0,9.85,4.41,9.85,9.85s-4.41,9.85-9.85,9.85-9.85-4.41-9.85-9.85,4.41-9.85,9.85-9.85h0Z"/><path class="cls-5" d="m149.51,77.1c2.26,0,4.1,1.84,4.1,4.1s-1.84,4.1-4.1,4.1-4.1-1.84-4.1-4.1,1.84-4.1,4.1-4.1h0Z"/><path class="cls-5" d="m143.4,79.22c.11-.33.47-.51.8-.41.33.11.51.47.41.8-.11.33-.47.51-.8.41s-.51-.47-.41-.8h0Z"/><path class="cls-5" d="m143.4,83.19c-.11-.33.07-.69.41-.8.33-.11.69.07.8.41.11.33-.07.69-.41.8-.33.11-.69-.07-.8-.41h0Z"/><path class="cls-5" d="m145.73,86.4c-.28-.21-.35-.6-.14-.88.21-.28.6-.35.88-.14.28.21.35.6.14.88-.21.28-.6.35-.88.14h0Z"/><path class="cls-5" d="m149.51,87.63c-.35,0-.63-.28-.63-.63s.28-.63.63-.63.63.28.63.63-.28.63-.63.63h0Z"/><path class="cls-5" d="m153.28,86.4c-.28.21-.68.14-.88-.14-.21-.28-.14-.68.14-.88.28-.21.68-.14.88.14.21.28.14.68-.14.88h0Z"/><path class="cls-5" d="m155.62,83.19c-.11.33-.47.51-.8.41-.33-.11-.51-.47-.41-.8.11-.33.47-.51.8-.41.33.11.51.47.41.8h0Z"/><path class="cls-5" d="m155.62,79.22c.11.33-.07.69-.41.8-.33.11-.69-.07-.8-.41-.11-.33.07-.69.41-.8.33-.11.69.07.8.41h0Z"/><g class="cls-13"><path class="cls-7" d="m149.51,59.72h0v42.95s0,0,0,0c11.86,0,21.48-9.62,21.48-21.48s-9.62-21.48-21.48-21.48Z"/></g><path class="cls-11" d="m58.42,68.24c9.51,0,17.23,7.72,17.23,17.23s-7.72,17.23-17.23,17.23-17.23-7.72-17.23-17.23,7.72-17.23,17.23-17.23h0Z"/><path class="cls-3" d="m58.42,70.69c8.16,0,14.77,6.62,14.77,14.77s-6.62,14.78-14.77,14.78-14.78-6.62-14.78-14.78,6.62-14.77,14.78-14.77h0Z"/><path class="cls-3" d="m57.61,68.18l-.14,3.07c.31-.02.63-.03.95-.03.16,0,.32,0,.49,0l-.27-3.07c-.07,0-.15,0-.22,0-.27,0-.54,0-.81.02h0Zm3.61.21c.34.06.68.12,1.01.19l-.38,3.06c-.46-.11-.93-.21-1.41-.27l.78-2.98h0Zm3.49.95c.32.12.63.26.94.4l-1,2.91c-.43-.21-.87-.4-1.32-.56l1.38-2.75h0Zm3.21,1.66c.29.19.57.38.84.59l-1.59,2.64c-.38-.3-.77-.57-1.18-.83l1.92-2.4h0Zm2.8,2.29c.24.24.47.49.7.75l-2.1,2.25c-.31-.37-.64-.72-.98-1.05l2.38-1.95h0Zm2.26,2.82c.18.29.36.58.53.88l-2.52,1.76c-.23-.42-.47-.84-.74-1.23l2.73-1.41h0Zm1.63,3.23c.12.32.23.64.33.97l-2.83,1.2c-.13-.46-.29-.92-.47-1.36l2.97-.81h0Zm.92,3.5c.05.34.09.68.12,1.02l-3.02.59c-.03-.48-.09-.96-.17-1.43l3.07-.18h0Zm.17,3.61c-.02.34-.05.68-.09,1.02l-3.08-.05c.07-.47.11-.95.13-1.43l3.04.46h0Zm-.58,3.57c-.09.33-.19.66-.3.98l-3-.69c.16-.45.3-.91.42-1.38l2.88,1.09h0Zm-1.32,3.37c-.16.3-.32.6-.5.9l-2.79-1.3c.25-.41.49-.82.7-1.26l2.59,1.66h0Zm-1.99,3.02c-.22.27-.44.52-.67.77l-2.46-1.85c.33-.34.65-.71.95-1.08l2.19,2.16h0Zm-2.57,2.54c-.27.21-.54.42-.82.62l-2.02-2.32c.4-.27.78-.56,1.15-.87l1.69,2.57h0Zm-3.04,1.96c-.31.15-.62.3-.93.43l-1.49-2.69c.45-.18.88-.38,1.3-.61l1.12,2.87h0Zm-3.38,1.28c-.33.09-.66.16-1,.23l-.9-2.94c.48-.08.94-.19,1.4-.32l.5,3.04h0Zm-3.58.54c-.27.01-.54.02-.81.02-.07,0-.15,0-.22,0l-.27-3.07c.16,0,.32,0,.49,0,.32,0,.64-.01.95-.03l-.14,3.07h0Zm-3.61-.21c-.34-.06-.68-.12-1.01-.2l.38-3.06c.46.11.93.21,1.41.27l-.78,2.98h0Zm-3.49-.95c-.32-.13-.63-.26-.94-.4l1-2.91c.43.21.87.4,1.32.56l-1.38,2.75h0Zm-3.21-1.66c-.29-.19-.57-.38-.84-.59l1.59-2.64c.38.29.77.57,1.18.83l-1.92,2.4h0Zm-2.8-2.29c-.24-.24-.47-.49-.7-.75l2.1-2.25c.31.37.64.72.98,1.05l-2.38,1.95h0Zm-2.26-2.82c-.19-.29-.36-.58-.53-.88l2.52-1.77c.23.42.47.84.74,1.23l-2.73,1.41h0Zm-1.63-3.23c-.12-.32-.23-.64-.34-.97l2.84-1.2c.13.46.29.92.47,1.36l-2.97.81h0Zm-.92-3.5c-.05-.34-.09-.68-.12-1.02l3.02-.59c.03.48.09.96.17,1.43l-3.07.18h0Zm-.17-3.61c.02-.34.05-.69.09-1.02l3.08.05c-.07.47-.11.95-.13,1.43l-3.04-.46h0Zm.58-3.57c.09-.33.19-.66.3-.98l3,.69c-.16.45-.3.91-.42,1.38l-2.88-1.09h0Zm1.32-3.37c.16-.3.32-.6.5-.9l2.79,1.3c-.25.41-.49.83-.7,1.26l-2.59-1.66h0Zm1.99-3.02c.22-.26.44-.52.68-.77l2.46,1.85c-.33.35-.65.71-.95,1.08l-2.19-2.16h0Zm2.57-2.54c.27-.21.54-.42.82-.62l2.02,2.32c-.4.27-.78.56-1.15.87l-1.69-2.57h0Zm3.04-1.96c.31-.15.62-.3.93-.43l1.49,2.69c-.45.18-.88.38-1.3.61l-1.12-2.87h0Zm3.38-1.28c.33-.09.66-.16,1-.23l.9,2.94c-.48.08-.94.19-1.4.32l-.5-3.04h0Z"/><path class="cls-5" d="m58.42,75.9c5.29,0,9.57,4.29,9.57,9.57s-4.29,9.57-9.57,9.57-9.57-4.29-9.57-9.57,4.29-9.57,9.57-9.57h0Z"/><path class="cls-10" d="m58.42,77.57c4.36,0,7.9,3.54,7.9,7.9s-3.54,7.9-7.9,7.9-7.9-3.54-7.9-7.9,3.54-7.9,7.9-7.9h0Z"/><path class="cls-5" d="m58.42,82.18c1.82,0,3.29,1.47,3.29,3.29s-1.47,3.29-3.29,3.29-3.29-1.47-3.29-3.29,1.47-3.29,3.29-3.29h0Z"/><path class="cls-5" d="m58.42,80.32c.28,0,.51.23.51.51s-.23.51-.51.51-.51-.23-.51-.51.23-.51.51-.51h0Z"/><path class="cls-5" d="m55.39,81.3c.23-.17.54-.11.71.11.16.23.11.54-.11.71-.23.16-.54.11-.71-.11-.16-.23-.11-.54.11-.71h0Z"/><path class="cls-5" d="m53.52,83.88c.09-.27.37-.41.64-.33.27.09.41.37.33.64-.09.27-.37.41-.64.33-.27-.09-.41-.37-.33-.64h0Z"/><path class="cls-5" d="m53.52,87.06c-.09-.27.06-.55.33-.64.27-.09.55.06.64.33.09.27-.06.55-.33.64-.27.09-.55-.06-.64-.33h0Z"/><path class="cls-5" d="m55.39,89.64c-.23-.16-.28-.48-.11-.71.16-.23.48-.28.71-.11.23.16.28.48.11.71-.16.23-.48.28-.71.11h0Z"/><path class="cls-5" d="m58.42,90.62c-.28,0-.51-.23-.51-.51s.23-.51.51-.51.51.23.51.51-.23.51-.51.51h0Z"/><path class="cls-5" d="m61.45,89.64c-.23.16-.54.11-.71-.11-.16-.23-.11-.54.11-.71.23-.16.54-.11.71.11.16.23.11.54-.11.71h0Z"/><path class="cls-5" d="m63.32,87.06c-.09.27-.37.41-.64.33-.27-.09-.41-.37-.33-.64.09-.27.37-.41.64-.33.27.09.41.37.33.64h0Z"/><path class="cls-5" d="m63.32,83.88c.09.27-.06.55-.33.64-.27.09-.55-.06-.64-.33-.09-.27.06-.55.33-.64.27-.09.55.06.64.33h0Z"/><path class="cls-5" d="m61.45,81.3c.23.17.28.48.11.71-.16.23-.48.28-.71.11-.23-.16-.28-.48-.11-.71.16-.23.48-.28.71-.11h0Z"/><g class="cls-13"><path class="cls-7" d="m58.42,68.24h0v34.46s0,0,0,0c9.51,0,17.23-7.72,17.23-17.23s-7.72-17.23-17.23-17.23Z"/></g></g></svg>