<?xml version="1.0" encoding="UTF-8"?><svg id="Layer_2" xmlns="http://www.w3.org/2000/svg" viewBox="0 0 111.69 68.84"><defs><style>.cls-1{fill:#58595b;}.cls-1,.cls-2,.cls-3,.cls-4,.cls-5,.cls-6,.cls-7,.cls-8,.cls-9,.cls-10{fill-rule:evenodd;}.cls-2{fill:#fff;}.cls-11{opacity:.33;}.cls-3{fill:#55b853;}.cls-4,.cls-12{fill:#17854a;}.cls-5{fill:#ffdd0f;}.cls-6{fill:#020000;}.cls-7{fill:#156b40;}.cls-8{fill:#eeb926;}.cls-9{fill:#404041;}.cls-10{fill:#00a551;}</style></defs><g id="Layer_1-2"><polygon class="cls-7" points="66.33 34.27 101.53 35.14 97.19 52.06 66.33 52.06 66.33 34.27 66.33 34.27"/><path class="cls-7" d="m96.69,39.78h6.19c.3,0,.54.66.54,1.47v3.98c0,.81-.24,1.47-.54,1.47h-6.19c-.3,0-.54-.66-.54-1.47v-3.98c0-.81.24-1.47.54-1.47h0Z"/><polygon class="cls-7" points="47.03 26.13 55.93 26.13 55.93 41.7 58.43 41.7 61.35 50.87 55.93 50.97 55.93 51.01 53.84 51.01 47.03 51.01 47.03 26.13 47.03 26.13"/><path class="cls-7" d="m29.51,48.92l52.47.14-2.5,4.59-6.57,4.34c-.49.32-1.09.3-1.55-.06l-3.09-1.61-35.38-1.12c-.55-.01-1-.33-1.21-.84l-2.18-5.44Z"/><path class="cls-12" d="m57.58,45.24c-.78,0-1.42-.63-1.42-1.42v-10.09l-1-3.67c-.21-.76.24-1.53.99-1.74.75-.21,1.53.24,1.74.99l1.05,3.85c.03.12.05.25.05.37v10.28c0,.78-.63,1.42-1.42,1.42Z"/><polygon class="cls-7" points="64.69 5.41 71.91 7.78 65.24 30.02 57.88 27.93 64.69 5.41 64.69 5.41"/><polygon class="cls-1" points="7 31.13 1.02 25.15 15.48 25.01 19.37 3.64 24.1 .72 24.1 31.13 7 31.13 7 31.13"/><polygon class="cls-9" points="7 31.13 1.02 25.15 15.48 25.01 15.5 24.92 19.44 31.13 7 31.13 7 31.13"/><polygon class="cls-3" points="39.8 .44 67.05 .44 59.68 31.13 39.8 31.13 39.8 4.44 39.8 .44"/><polygon class="cls-10" points="59.68 31.13 39.8 31.13 39.8 8.51 65.37 7.51 59.68 31.13"/><polygon class="cls-4" points="24.1 2.18 39.8 2.18 39.8 31.27 19.37 31.27 24.1 11.82 24.1 2.18 24.1 2.18"/><path class="cls-10" d="m46.89,31.13H7L0,48.13l.04,7.95c0,.73.6,1.32,1.33,1.32h2.9s4.25-5,4.25-5h38.37v-21.27h0Z"/><polygon class="cls-10" points="6.98 31.17 6.62 32.04 39.85 32.04 39.85 31.17 6.98 31.17 6.98 31.17"/><path class="cls-4" d="m1.62,57.4h2.65s4.25-5,4.25-5h38.37v-16.26H8.17c-.55,0-1.02.32-1.23.82l-4.62,11.23H.02v5.73h.27v2.16c.01.73.61,1.32,1.34,1.32h0Z"/><path class="cls-10" d="m68.77,1.2l-9.78,39.11,2.64,7.37,16.26.14,6.04-4.65,21.13.11c.73,0,1.03-.66,1.33-1.33l5.29-8.25-4.03-20.4c-.12-.5-.27-.96-.73-1.19L86.52.14c-.28-.14-.56-.18-.86-.12l-15.87.21c-.5.1-.88.46-1.02.95h0Z"/><path class="cls-5" d="m62.62,38.96c6.84-1.87,24.68-2.33,43.54-2.71l-1.09,1.81c-13.61-.11-26.89.08-42.46.91h0Z"/><path class="cls-9" d="m89.94,45.85c6.33,0,11.47,5.14,11.47,11.47s-5.14,11.47-11.47,11.47-11.47-5.14-11.47-11.47,5.14-11.47,11.47-11.47h0Z"/><path class="cls-1" d="m89.94,47.49c5.43,0,9.83,4.4,9.83,9.83s-4.4,9.83-9.83,9.83-9.83-4.4-9.83-9.83,4.4-9.83,9.83-9.83h0Z"/><path class="cls-1" d="m89.41,45.82l-.1,2.05c.21-.01.42-.02.63-.02.11,0,.22,0,.32,0l-.18-2.04s-.1,0-.15,0c-.18,0-.36,0-.54.01h0Zm2.4.14c.23.04.45.08.67.13l-.25,2.03c-.31-.08-.62-.14-.94-.18l.52-1.98h0Zm2.32.63c.21.08.42.17.63.27l-.67,1.94c-.29-.14-.58-.27-.88-.38l.92-1.83h0Zm2.14,1.11c.19.13.38.26.56.39l-1.06,1.76c-.25-.2-.51-.38-.78-.55l1.28-1.6h0Zm1.86,1.53c.16.16.32.33.47.5l-1.4,1.5c-.21-.24-.42-.48-.65-.7l1.58-1.3h0Zm1.51,1.88c.12.19.24.39.35.59l-1.68,1.17c-.15-.28-.31-.56-.49-.82l1.82-.94h0Zm1.08,2.15c.08.21.16.43.22.65l-1.89.8c-.09-.31-.19-.61-.31-.91l1.97-.54h0Zm.61,2.33c.03.22.06.45.08.68l-2.01.39c-.02-.32-.06-.64-.11-.95l2.04-.12h0Zm.11,2.41c-.01.23-.03.46-.06.68l-2.05-.04c.04-.31.07-.63.08-.95l2.02.31h0Zm-.39,2.38c-.06.22-.13.44-.2.65l-2-.46c.11-.3.2-.6.28-.92l1.92.72h0Zm-.88,2.24c-.1.2-.22.4-.33.6l-1.86-.87c.17-.27.32-.55.47-.84l1.72,1.11h0Zm-1.32,2.01c-.14.18-.29.35-.45.52l-1.64-1.23c.22-.23.43-.47.63-.72l1.46,1.44h0Zm-1.71,1.69c-.18.14-.36.28-.55.41l-1.34-1.55c.26-.18.52-.37.76-.58l1.12,1.71h0Zm-2.03,1.3c-.2.1-.41.2-.62.29l-.99-1.79c.3-.12.59-.26.87-.4l.74,1.91h0Zm-2.25.85c-.22.06-.44.11-.67.15l-.6-1.96c.32-.06.63-.13.93-.21l.33,2.02h0Zm-2.38.36c-.18,0-.36.01-.54.01-.05,0-.1,0-.15,0l-.18-2.04c.11,0,.22,0,.32,0,.21,0,.42,0,.63-.02l-.1,2.05h0Zm-2.4-.14c-.23-.04-.45-.08-.67-.13l.25-2.03c.31.08.62.14.94.18l-.52,1.98h0Zm-2.32-.64c-.21-.08-.42-.17-.63-.27l.67-1.94c.29.14.58.27.88.38l-.92,1.83h0Zm-2.14-1.11c-.19-.13-.38-.26-.56-.39l1.06-1.76c.25.2.51.38.78.55l-1.28,1.6h0Zm-1.86-1.53c-.16-.16-.32-.33-.47-.5l1.4-1.5c.21.24.42.48.65.7l-1.58,1.3h0Zm-1.51-1.88c-.12-.19-.24-.39-.35-.59l1.68-1.17c.15.28.32.56.49.82l-1.82.94h0Zm-1.08-2.15c-.08-.21-.16-.43-.22-.65l1.89-.8c.09.31.19.61.31.91l-1.97.54h0Zm-.61-2.33c-.03-.22-.06-.45-.08-.68l2.01-.39c.02.32.06.64.11.95l-2.04.12h0Zm-.11-2.41c.01-.23.03-.46.06-.68l2.05.04c-.04.31-.07.63-.08.95l-2.02-.31h0Zm.39-2.38c.06-.22.13-.44.2-.65l2,.46c-.11.3-.2.6-.28.92l-1.92-.72h0Zm.88-2.24c.1-.2.22-.4.33-.6l1.86.87c-.17.27-.32.55-.47.84l-1.72-1.11h0Zm1.32-2.01c.14-.18.29-.35.45-.52l1.64,1.23c-.22.23-.43.47-.63.72l-1.46-1.44h0Zm1.71-1.69c.18-.14.36-.28.55-.41l1.34,1.55c-.27.18-.52.37-.76.58l-1.12-1.71h0Zm2.03-1.3c.2-.1.41-.2.62-.29l.99,1.79c-.3.12-.59.26-.87.4l-.74-1.91h0Zm2.25-.85c.22-.06.44-.11.67-.15l.6,1.96c-.32.06-.63.13-.93.21l-.33-2.02h0Z"/><path class="cls-5" d="m89.94,50.95c3.52,0,6.37,2.85,6.37,6.37s-2.85,6.37-6.37,6.37-6.37-2.85-6.37-6.37,2.85-6.37,6.37-6.37h0Z"/><path class="cls-8" d="m89.94,52.06c2.9,0,5.26,2.36,5.26,5.26s-2.36,5.26-5.26,5.26-5.26-2.36-5.26-5.26,2.36-5.26,5.26-5.26h0Z"/><path class="cls-5" d="m89.94,55.13c1.21,0,2.19.98,2.19,2.19s-.98,2.19-2.19,2.19-2.19-.98-2.19-2.19.98-2.19,2.19-2.19h0Z"/><path class="cls-5" d="m89.94,53.89c.19,0,.34.15.34.34s-.15.34-.34.34-.34-.15-.34-.34.15-.34.34-.34h0Z"/><path class="cls-5" d="m87.93,54.55c.15-.11.36-.08.47.07.11.15.08.36-.07.47-.15.11-.36.08-.47-.07-.11-.15-.08-.36.07-.47h0Z"/><path class="cls-5" d="m86.68,56.26c.06-.18.25-.27.43-.22.18.06.27.25.22.43-.06.18-.25.27-.43.22-.18-.06-.27-.25-.22-.43h0Z"/><path class="cls-5" d="m86.68,58.38c-.06-.18.04-.37.22-.43.18-.06.37.04.43.22.06.18-.04.37-.22.43-.18.06-.37-.04-.43-.22h0Z"/><path class="cls-5" d="m87.93,60.1c-.15-.11-.18-.32-.07-.47.11-.15.32-.18.47-.07.15.11.18.32.07.47-.11.15-.32.18-.47.07h0Z"/><path class="cls-5" d="m89.94,60.75c-.19,0-.34-.15-.34-.34s.15-.34.34-.34.34.15.34.34-.15.34-.34.34h0Z"/><path class="cls-5" d="m91.96,60.1c-.15.11-.36.08-.47-.07s-.08-.36.07-.47c.15-.11.36-.08.47.07.11.15.08.36-.07.47h0Z"/><path class="cls-5" d="m93.21,58.38c-.06.18-.25.27-.43.22-.18-.06-.27-.25-.22-.43.06-.18.25-.27.43-.22.18.06.27.25.22.43h0Z"/><path class="cls-5" d="m93.21,56.26c.06.18-.04.37-.22.43-.18.06-.37-.04-.43-.22-.06-.18.04-.37.22-.43.18-.06.37.04.43.22h0Z"/><path class="cls-5" d="m91.96,54.55c.15.11.18.32.07.47-.11.15-.32.18-.47.07-.15-.11-.18-.32-.07-.47.11-.15.32-.18.47-.07h0Z"/><path class="cls-10" d="m39.25,31.13h14.6v19.94c0,.73-.6,1.33-1.33,1.33h-11.93c-.73,0-1.33-.6-1.33-1.33v-6.43c0-.73-.6-1.33-1.33-1.33h-4.57c-.73,0-1.33-.6-1.33-1.33v-10.84h7.23Z"/><path class="cls-10" d="m29.8,44.37h7.03c.61,0,1.1.5,1.1,1.1v2.92c0,.61-.5,1.1-1.1,1.1h-7.03c-.61,0-1.1-.5-1.1-1.1v-2.92c0-.61.5-1.1,1.1-1.1h0Z"/><polygon class="cls-7" points="27.71 52.4 33.72 59.14 36.57 58.04 29.8 50.06 27.71 52.4 27.71 52.4"/><path class="cls-1" d="m36.57,52.29c4.57,0,8.27,3.7,8.27,8.27s-3.71,8.27-8.27,8.27-8.27-3.71-8.27-8.27,3.7-8.27,8.27-8.27h0Z"/><path class="cls-9" d="m36.57,55.56c2.76,0,5.01,2.24,5.01,5.01s-2.24,5.01-5.01,5.01-5.01-2.24-5.01-5.01,2.24-5.01,5.01-5.01h0Z"/><path class="cls-1" d="m36.57,58.04c1.39,0,2.52,1.13,2.52,2.52s-1.13,2.52-2.52,2.52-2.52-1.13-2.52-2.52,1.13-2.52,2.52-2.52h0Z"/><path class="cls-10" d="m28.4,48.66c1.35,0,2.44,1.09,2.44,2.44s-1.09,2.44-2.44,2.44-2.44-1.09-2.44-2.44,1.09-2.44,2.44-2.44h0Z"/><rect class="cls-12" x="71.88" y="26.11" width="34.22" height="1.42" transform="translate(37.06 103.9) rotate(-72.8)"/><path class="cls-2" d="m2.43,53.57c.71,0,1.28.57,1.28,1.28s-.57,1.28-1.28,1.28-1.28-.57-1.28-1.28.57-1.28,1.28-1.28h0Z"/><polygon class="cls-10" points="24.1 2.18 25.71 2.18 25.71 31.12 24.1 31.12 24.1 2.18 24.1 2.18"/><polygon class="cls-4" points="7 31.17 53.92 31.17 53.92 32.98 6.24 32.98 7 31.17 7 31.17"/><polygon class="cls-4" points="6.98 31.17 46.89 31.17 46.89 32.98 6.24 32.98 6.98 31.17 6.98 31.17"/><polygon class="cls-10" points="24.1 .72 39.8 .72 39.8 2.18 24.1 2.18 24.1 .72 24.1 .72"/><polygon class="cls-10" points="6.98 31.17 39.85 31.17 39.85 32.04 6.62 32.04 6.98 31.17 6.98 31.17"/><g class="cls-11"><path class="cls-6" d="m36.57,52.29c-.06,0-.11,0-.17,0v16.53c.06,0,.11,0,.17,0,4.57,0,8.27-3.71,8.27-8.27s-3.71-8.27-8.27-8.27Z"/></g><g class="cls-11"><path class="cls-6" d="m89.94,45.85v22.94c6.33,0,11.47-5.14,11.47-11.47s-5.14-11.47-11.47-11.47Z"/></g></g></svg>