<?xml version="1.0" encoding="UTF-8"?><svg id="Layer_2" xmlns="http://www.w3.org/2000/svg" viewBox="0 0 77.06 48.73"><defs><style>.cls-1{fill:#58595b;}.cls-1,.cls-2,.cls-3,.cls-4,.cls-5,.cls-6,.cls-7,.cls-8{fill-rule:evenodd;}.cls-9,.cls-7{fill:#404041;}.cls-2{fill:#bbbdbf;}.cls-10{opacity:.33;}.cls-3{fill:#17854a;}.cls-4{fill:#ffdd0f;}.cls-5{fill:#020000;}.cls-6{fill:#eeb926;}.cls-8{fill:#00a551;}</style></defs><g id="Layer_1-2"><path class="cls-1" d="m47.78,8.01c-2.35,1.38-4.88,1.66-6.86.52-1.98-1.14-3-3.47-2.99-6.19l1.66.96c.29,1.28,1.16,2.49,2.47,3.25,1.31.76,2.79.9,4.05.51l1.66.96h0Z"/><path class="cls-1" d="m37.7.17l12.07,6.96c.43.25.58.8.33,1.23h0c-.25.43-.8.58-1.23.33l-12.07-6.96c-.43-.25-.58-.8-.33-1.23h0c.25-.43.8-.58,1.23-.33h0Z"/><path class="cls-7" d="m43.62,9.26c-.9.01-1.84-.22-2.7-.72s-1.54-1.19-1.98-1.98c1.22-.22,2.33-.84,3.12-1.81l1.57.9c-.44,1.17-.42,2.44,0,3.61h0Z"/><polygon class="cls-7" points="39.74 7.58 42.33 9.08 40.47 12.31 37.88 10.82 39.74 7.58 39.74 7.58"/><path class="cls-1" d="m2.83,33.43c.21.66,2.72,1.56,6.83,1.8,6.2.35,15.52.16,17.41.22,4.93.16,3.26-.68,8.18-7.81,1.01-1.47,8.27-13.54,6.58-15.31-.48-.5-8.63-9.27-9.62-9.18-5.33.48-20.32,4.78-30.75,8.51-1.78,2.21.27,19.02,1.37,21.78h0Z"/><path class="cls-7" d="m3.92,14.79c7.43,1.5,16.39,12.26,5.81,16.33-1.52.58-4.53,1.08-7.3,1.01C1.32,27.89-.12,17.61,1.46,15.65c.79-.29,1.62-.57,2.46-.86h0Z"/><path class="cls-9" d="m10.16,39.21c-.39,0-.7-.31-.71-.7,0-.39.31-.71.7-.72l6.8-.1c.4-.2.8-.45,1.22-.72,1.02-.65,2.07-1.32,3.35-1.32h15.49s0,0,0,0c.39,0,.71.32.71.71,0,.39-.32.71-.71.71h-15.49c-.87,0-1.71.54-2.59,1.11-.48.31-.99.63-1.52.88-.09.04-.19.06-.29.07l-6.96.1h-.01Z"/><polygon class="cls-7" points="68.91 27.3 51.32 27.3 51.25 34.72 67.6 34.72 68.91 27.3 68.91 27.3"/><path class="cls-7" d="m1.94,33.43c.22.66,2.78,1.56,6.98,1.8,6.34.35,15.87.16,17.8.22,5.04.16,3.33-.68,8.37-7.81.96-1.36,7.45-11.91,6.96-14.8-1.14,2.07-5.11,2.55-7.44,4.2-5.76,4.08-15.64,9.63-22.96,10.45-1.74.19-7.02,1.68-10.49,3.13.27,1.24.55,2.24.78,2.81h0Z"/><path class="cls-8" d="m.75,10.65c4.87-2.42,18.16-5.49,28.64-7.09,1.35-.21,9.86,10.62,9.58,11.83-.61,2.62-1.42,4.65-2.33,5.75-2.51,3.03-5.61,2.17-12.08,4.72-3.82,1.51-4.2,6.33-8.6,6.33-2.61,0-12.08.98-14.33,0-2.1-.91,3.74-9.47,5.56-11.23.64-.87-3.8-3.59-4.22-3.71-.74-.22-1.31-.33-2.32-.33-1.11,0-.63-5.91.1-6.26h0Z"/><path class="cls-7" d="m62.1,30.73c4.96,0,8.98,4.02,8.98,8.98s-4.02,8.98-8.98,8.98-8.98-4.02-8.98-8.98,4.02-8.98,8.98-8.98h0Z"/><path class="cls-1" d="m62.1,32.01c4.25,0,7.7,3.45,7.7,7.7s-3.45,7.7-7.7,7.7-7.7-3.45-7.7-7.7,3.45-7.7,7.7-7.7h0Z"/><path class="cls-1" d="m61.68,30.7l-.07,1.6c.16-.01.33-.02.5-.02.08,0,.17,0,.25,0l-.14-1.6s-.08,0-.11,0c-.14,0-.28,0-.42.01h0Zm1.88.11c.18.03.35.06.53.1l-.2,1.59c-.24-.06-.49-.11-.74-.14l.41-1.55h0Zm1.82.5c.17.07.33.14.49.21l-.52,1.52c-.22-.11-.45-.21-.69-.29l.72-1.43h0Zm1.67.87c.15.1.3.2.44.31l-.83,1.38c-.2-.15-.4-.3-.61-.43l1-1.25h0Zm1.46,1.2c.13.13.25.26.37.39l-1.09,1.17c-.16-.19-.33-.37-.51-.55l1.24-1.02h0Zm1.18,1.47c.1.15.19.3.28.46l-1.31.92c-.12-.22-.25-.44-.39-.64l1.43-.74h0Zm.85,1.69c.06.17.12.34.17.51l-1.48.63c-.07-.24-.15-.48-.24-.71l1.55-.42h0Zm.48,1.83c.03.18.05.35.06.53l-1.58.31c-.02-.25-.05-.5-.09-.74l1.6-.09h0Zm.09,1.88c-.01.18-.03.36-.05.53l-1.6-.03c.03-.25.06-.49.07-.75l1.59.24h0Zm-.3,1.86c-.05.17-.1.34-.16.51l-1.56-.36c.08-.23.16-.47.22-.72l1.5.57h0Zm-.69,1.76c-.08.16-.17.31-.26.47l-1.45-.68c.13-.21.25-.43.36-.65l1.35.87h0Zm-1.04,1.58c-.11.14-.23.27-.35.4l-1.28-.97c.17-.18.34-.37.49-.57l1.14,1.13h0Zm-1.34,1.33c-.14.11-.28.22-.43.32l-1.05-1.21c.21-.14.41-.29.6-.45l.88,1.34h0Zm-1.59,1.02c-.16.08-.32.16-.49.23l-.78-1.4c.23-.09.46-.2.68-.32l.58,1.49h0Zm-1.76.67c-.17.04-.35.08-.52.12l-.47-1.53c.25-.04.49-.1.73-.17l.26,1.58h0Zm-1.86.28c-.14,0-.28.01-.42.01-.04,0-.08,0-.11,0l-.14-1.6c.08,0,.17,0,.25,0,.17,0,.33,0,.5-.02l-.07,1.6h0Zm-1.88-.11c-.18-.03-.35-.06-.53-.1l.2-1.59c.24.06.49.11.74.14l-.41,1.55h0Zm-1.82-.5c-.17-.07-.33-.14-.49-.21l.52-1.52c.22.11.45.21.69.29l-.72,1.43h0Zm-1.67-.87c-.15-.1-.3-.2-.44-.31l.83-1.38c.2.15.4.3.61.43l-1,1.25h0Zm-1.46-1.2c-.13-.13-.25-.26-.37-.39l1.09-1.17c.16.19.33.37.51.55l-1.24,1.02h0Zm-1.18-1.47c-.1-.15-.19-.3-.28-.46l1.31-.92c.12.22.25.44.39.64l-1.42.74h0Zm-.85-1.69c-.06-.17-.12-.34-.17-.51l1.48-.63c.07.24.15.48.24.71l-1.55.42h0Zm-.48-1.83c-.03-.18-.05-.35-.06-.53l1.58-.31c.02.25.05.5.09.74l-1.6.09h0Zm-.09-1.88c.01-.18.03-.36.05-.53l1.6.03c-.03.25-.06.49-.07.75l-1.59-.24h0Zm.3-1.86c.05-.17.1-.34.16-.51l1.56.36c-.08.23-.16.47-.22.72l-1.5-.57h0Zm.69-1.76c.08-.16.17-.31.26-.47l1.45.68c-.13.21-.25.43-.36.66l-1.35-.87h0Zm1.04-1.58c.11-.14.23-.27.35-.4l1.28.97c-.17.18-.34.37-.49.57l-1.14-1.13h0Zm1.34-1.33c.14-.11.28-.22.43-.32l1.05,1.21c-.21.14-.41.29-.6.45l-.88-1.34h0Zm1.59-1.02c.16-.08.32-.16.49-.23l.78,1.4c-.23.09-.46.2-.68.32l-.58-1.49h0Zm1.76-.67c.17-.05.35-.08.52-.12l.47,1.53c-.25.04-.49.1-.73.17l-.26-1.58h0Z"/><path class="cls-4" d="m62.1,34.72c2.76,0,4.99,2.23,4.99,4.99s-2.23,4.99-4.99,4.99-4.99-2.23-4.99-4.99,2.23-4.99,4.99-4.99h0Z"/><path class="cls-6" d="m62.1,35.59c2.28,0,4.12,1.84,4.12,4.12s-1.84,4.12-4.12,4.12-4.12-1.84-4.12-4.12,1.84-4.12,4.12-4.12h0Z"/><path class="cls-4" d="m62.1,37.99c.95,0,1.71.77,1.71,1.71s-.77,1.71-1.71,1.71-1.71-.77-1.71-1.71.77-1.71,1.71-1.71h0Z"/><path class="cls-4" d="m62.1,37.02c.15,0,.26.12.26.27s-.12.26-.26.26-.26-.12-.26-.26.12-.27.26-.27h0Z"/><path class="cls-4" d="m60.52,37.53c.12-.09.28-.06.37.06.09.12.06.28-.06.37-.12.09-.28.06-.37-.06-.09-.12-.06-.28.06-.37h0Z"/><path class="cls-4" d="m59.55,38.88c.05-.14.19-.21.33-.17.14.05.22.19.17.33-.05.14-.19.22-.33.17-.14-.05-.22-.19-.17-.33h0Z"/><path class="cls-4" d="m59.55,40.54c-.05-.14.03-.29.17-.33.14-.05.29.03.33.17.05.14-.03.29-.17.33-.14.05-.29-.03-.33-.17h0Z"/><path class="cls-4" d="m60.52,41.88c-.12-.09-.14-.25-.06-.37.09-.12.25-.14.37-.06s.14.25.06.37c-.09.12-.25.14-.37.06h0Z"/><path class="cls-4" d="m62.1,42.4c-.15,0-.26-.12-.26-.26s.12-.26.26-.26.26.12.26.26-.12.26-.26.26h0Z"/><path class="cls-4" d="m63.68,41.88c-.12.09-.28.06-.37-.06-.09-.12-.06-.28.06-.37.12-.09.28-.06.37.06.09.12.06.28-.06.37h0Z"/><path class="cls-4" d="m64.66,40.54c-.05.14-.19.22-.33.17-.14-.05-.22-.19-.17-.33.05-.14.19-.22.33-.17.14.05.22.19.17.33h0Z"/><path class="cls-4" d="m64.66,38.88c.05.14-.03.29-.17.33-.14.05-.29-.03-.33-.17-.05-.14.03-.29.17-.33.14-.05.29.03.33.17h0Z"/><path class="cls-4" d="m63.68,37.54c.12.09.14.25.06.37-.09.12-.25.14-.37.06-.12-.09-.14-.25-.06-.37.09-.12.25-.14.37-.06h0Z"/><path class="cls-7" d="m11.38,34.39c3.95,0,7.15,3.2,7.15,7.15s-3.2,7.15-7.15,7.15-7.15-3.2-7.15-7.15,3.2-7.15,7.15-7.15h0Z"/><path class="cls-1" d="m11.38,35.41c3.39,0,6.13,2.75,6.13,6.13s-2.75,6.13-6.13,6.13-6.13-2.75-6.13-6.13,2.75-6.13,6.13-6.13h0Z"/><path class="cls-1" d="m11.04,34.37l-.06,1.28c.13,0,.26-.01.4-.01.07,0,.13,0,.2,0l-.11-1.27s-.06,0-.09,0c-.11,0-.22,0-.34,0h0Zm1.5.09c.14.02.28.05.42.08l-.16,1.27c-.19-.05-.39-.09-.59-.11l.32-1.24h0Zm1.45.4c.13.05.26.11.39.17l-.42,1.21c-.18-.09-.36-.17-.55-.23l.57-1.14h0Zm1.33.69c.12.08.24.16.35.24l-.66,1.1c-.16-.12-.32-.24-.49-.34l.8-1h0Zm1.16.95c.1.1.2.2.29.31l-.87.93c-.13-.15-.26-.3-.41-.44l.99-.81h0Zm.94,1.17c.08.12.15.24.22.37l-1.05.73c-.09-.18-.2-.35-.31-.51l1.13-.59h0Zm.68,1.34c.05.13.1.27.14.4l-1.18.5c-.06-.19-.12-.38-.19-.56l1.23-.34h0Zm.38,1.45c.02.14.04.28.05.42l-1.25.24c-.01-.2-.04-.4-.07-.59l1.28-.07h0Zm.07,1.5c0,.14-.02.28-.04.42l-1.28-.02c.03-.2.04-.39.05-.59l1.26.19h0Zm-.24,1.48c-.04.14-.08.27-.12.41l-1.25-.29c.07-.19.13-.38.17-.57l1.19.45h0Zm-.55,1.4c-.07.13-.13.25-.21.37l-1.16-.54c.11-.17.2-.34.29-.52l1.07.69h0Zm-.83,1.25c-.09.11-.18.22-.28.32l-1.02-.77c.14-.14.27-.29.39-.45l.91.9h0Zm-1.07,1.06c-.11.09-.22.17-.34.26l-.84-.96c.17-.11.32-.23.48-.36l.7,1.07h0Zm-1.26.81c-.13.06-.26.12-.39.18l-.62-1.12c.19-.08.37-.16.54-.25l.46,1.19h0Zm-1.41.53c-.14.04-.28.07-.42.1l-.37-1.22c.2-.03.39-.08.58-.13l.21,1.26h0Zm-1.48.23c-.11,0-.22,0-.34,0-.03,0-.06,0-.09,0l-.11-1.27c.07,0,.13,0,.2,0,.13,0,.26,0,.4-.01l-.06,1.28h0Zm-1.5-.09c-.14-.02-.28-.05-.42-.08l.16-1.27c.19.05.39.09.59.11l-.32,1.24h0Zm-1.45-.4c-.13-.05-.26-.11-.39-.17l.42-1.21c.18.09.36.17.55.23l-.57,1.14h0Zm-1.33-.69c-.12-.08-.24-.16-.35-.24l.66-1.1c.16.12.32.24.49.34l-.8,1h0Zm-1.16-.95c-.1-.1-.2-.21-.29-.31l.87-.93c.13.15.26.3.41.44l-.99.81h0Zm-.94-1.17c-.08-.12-.15-.24-.22-.37l1.05-.73c.09.18.2.35.31.51l-1.13.59h0Zm-.68-1.34c-.05-.13-.1-.27-.14-.4l1.18-.5c.06.19.12.38.19.56l-1.23.34h0Zm-.38-1.45c-.02-.14-.04-.28-.05-.42l1.25-.24c.01.2.04.4.07.59l-1.28.07h0Zm-.07-1.5c0-.14.02-.28.04-.42l1.28.02c-.03.2-.04.39-.05.59l-1.26-.19h0Zm.24-1.48c.04-.14.08-.27.12-.41l1.25.29c-.07.19-.13.38-.17.57l-1.19-.45h0Zm.55-1.4c.07-.13.13-.25.21-.37l1.16.54c-.11.17-.2.34-.29.52l-1.08-.69h0Zm.83-1.25c.09-.11.18-.22.28-.32l1.02.77c-.14.14-.27.29-.39.45l-.91-.9h0Zm1.07-1.06c.11-.09.22-.17.34-.26l.84.96c-.17.11-.32.23-.48.36l-.7-1.07h0Zm1.26-.81c.13-.06.26-.12.39-.18l.62,1.12c-.19.08-.37.16-.54.25l-.46-1.19h0Zm1.41-.53c.14-.04.28-.07.42-.1l.37,1.22c-.2.03-.39.08-.58.13l-.21-1.26h0Z"/><path class="cls-4" d="m11.38,37.57c2.19,0,3.97,1.78,3.97,3.97s-1.78,3.97-3.97,3.97-3.97-1.78-3.97-3.97,1.78-3.97,3.97-3.97h0Z"/><path class="cls-6" d="m11.38,38.27c1.81,0,3.28,1.47,3.28,3.28s-1.47,3.28-3.28,3.28-3.28-1.47-3.28-3.28,1.47-3.28,3.28-3.28h0Z"/><path class="cls-4" d="m11.38,40.18c.75,0,1.37.61,1.37,1.37s-.61,1.37-1.37,1.37-1.37-.61-1.37-1.37.61-1.37,1.37-1.37h0Z"/><path class="cls-4" d="m11.38,39.41c.12,0,.21.09.21.21s-.09.21-.21.21-.21-.09-.21-.21.09-.21.21-.21h0Z"/><path class="cls-4" d="m10.12,39.82c.09-.07.23-.05.29.05.07.09.05.23-.05.29-.09.07-.23.05-.29-.05-.07-.09-.05-.23.05-.29h0Z"/><path class="cls-4" d="m9.34,40.89c.04-.11.16-.17.27-.14.11.04.17.16.14.27-.04.11-.16.17-.27.14-.11-.04-.17-.15-.14-.27h0Z"/><path class="cls-4" d="m9.34,42.21c-.04-.11.02-.23.14-.27.11-.04.23.02.27.14.04.11-.02.23-.14.27-.11.04-.23-.02-.27-.14h0Z"/><path class="cls-4" d="m10.12,43.28c-.09-.07-.11-.2-.05-.29.07-.09.2-.12.29-.05.09.07.12.2.05.29-.07.09-.2.12-.29.05h0Z"/><path class="cls-4" d="m11.38,43.69c-.12,0-.21-.09-.21-.21s.09-.21.21-.21.21.09.21.21-.09.21-.21.21h0Z"/><path class="cls-4" d="m12.63,43.28c-.09.07-.23.05-.29-.05-.07-.09-.05-.23.05-.29.09-.07.23-.05.29.05.07.09.05.23-.05.29h0Z"/><path class="cls-4" d="m13.41,42.21c-.04.11-.16.17-.27.14-.11-.04-.17-.16-.14-.27.04-.11.16-.17.27-.14.11.04.17.16.14.27h0Z"/><path class="cls-4" d="m13.41,40.89c.04.11-.02.23-.14.27-.11.04-.23-.02-.27-.14-.04-.11.02-.23.14-.27.11-.04.23.02.27.14h0Z"/><path class="cls-4" d="m12.63,39.82c.09.07.11.2.05.29-.07.09-.2.12-.29.05-.09-.07-.11-.2-.05-.29.07-.09.2-.12.29-.05h0Z"/><polygon class="cls-7" points="28.64 31 37.01 31 37.01 40.52 28.64 40.52 28.64 31 28.64 31"/><path class="cls-6" d="m23.08,40.52h19.49c.82,0,1.5.67,1.5,1.5v4.49h-22.48v-.04s0-4.44,0-4.44c0-.82.67-1.5,1.5-1.5h0Z"/><path class="cls-3" d="m73.02,28.54h-11.26c-3.57,0-4.1.71-5.54,2.01-3.63,3.27-4.18,8.26-10.7,8.34l-5.83.07c-4.97.06-12.28-5.2-14.81-7.33-1.33-1.12-.87-4.74,1.02-4.48l20.59,2.89c6.15.86,10.5-11.26,26.31-4.09.53.24.47,1.11.21,2.59h0Z"/><path class="cls-8" d="m24.48,28.19c.26-1.26,1.31-.46,2.23-.45l20.32.24c6.21.07,3.44-4.73,13.73-7.09,9.44-2.17,7.45,3.21,12.05,5.05-1.65.19-6.62.22-10.42.24-9.96.07-8.16,10.41-17.65,10.51l-5.15.05c-4.78.05-12.74-5.61-15.11-8.55h0Z"/><path class="cls-3" d="m26.71,27.74c1.85,2.67,10.37,5.19,12.39,5.19h8.56c2.86,0,4.2-6.72,8.74-9.68,1.01-.66.6-.65-1.87-.02-2.45,1.93-3.1,4.42-7.25,4.43l-13.66.05c-.4.16-6.93-.18-6.92.02h0Z"/><path class="cls-1" d="m60.8,23.65c-4.05.04-4.96,1.49-7.49,2.7-1.99.95.38-1.97.75-3.86.15-.74-1.33-1.43-1.29-1.79.44-3.36,9.13.02,8.03,2.95h0Z"/><polygon class="cls-7" points="37.81 23.36 35.19 27.73 23.28 27.71 25.96 26.04 37.81 23.36 37.81 23.36"/><path class="cls-1" d="m1.04,23.34l4.38-.2c-2.27-.39-3.14-.54-4.54-.98.05.39.1.78.16,1.18h0Z"/><path class="cls-2" d="m7.24,20.64l-6.45.3c-.1-1.76-.23-3.48,0-4.58.83.02,1.53.69,2.19.89.37.11,3.98,2.31,4.26,3.39h0Z"/><path class="cls-1" d="m65.77,23.02h3.27c.22,0,.4.18.4.4v1.73c0,.22-.18.4-.4.4h-3.27c-.22,0-.4-.18-.4-.4v-1.73c0-.22.18-.4.4-.4h0Z"/><path class="cls-3" d="m.82,14.6l31.79-1.02,2.03,1.94-31.36,1.88c-.15-.08-.26-.13-.31-.15-.74-.22-1.31-.33-2.32-.33-1.11,0-.57-1.8.1-2.26l.07-.05h0Z"/><path class="cls-3" d="m38.92,15.07l-4.27.45c-.55,2.02-4.02,2.93-6.2,3.29l-19.96,2.82c-2.94,3.86-5.1,7.29-6.51,10.69,2.74.78,11.5-.12,13.99-.12,4.4,0,4.78-4.82,8.6-6.33,6.47-2.55,9.57-1.69,12.08-4.72.91-1.09,1.72-3.12,2.33-5.75.01-.05,0-.1,0-.16l-.05-.15h0Z"/><path class="cls-7" d="m33.25,15.66c-1.4,1.09-2.29,1.79-7.71,2.57l-18.3,2.41c-.94-1.72-3.95-3.3-4.26-3.39-.29-.09-.56-.16-.84-.21l-.02-.05,31.13-1.32h0Z"/><path class="cls-4" d="m33.25,15.66c-1.4,1.09-4.66,1.84-10.1,2.23l-17.2,1.24c-1.22-1.02-2.67-1.79-2.98-1.88-.29-.09-.56-.16-.84-.21l-.02-.05,31.13-1.32h0Z"/><path class="cls-1" d="m72.44.02c5.03-.26,4.61,2.33,4.61,7.77,0,7.44-2.73,15.72-9.52,15.78l-13.18.13c-3.11.03-2.5-1-2.5-3.44,0-2.22,5.98-.91,9.57-1.65,3.6-.73,11.2,1.25,11.97-5.45.24-2.09-2.54-12.86-.96-13.14h0Z"/><path class="cls-4" d="m71.69.39h1c.68,0,1.24.75,1.24,1.67v10.1c0,.92-.56,1.67-1.24,1.67h-2.01c-4.75,0-2.15-13.43,1-13.43h0Z"/><path class="cls-4" d="m69.66,17v.89c0,1.32-1.08,2.39-2.4,2.39h-16.35c-1.32,0-2.4-1.08-2.4-2.39,0-5.9,21.14-2.46,21.14-.89h0Z"/><path class="cls-7" d="m65.37,22.03h4.71c.32,0,.58.11.58.24v1.06c0,.13-.26.24-.58.24h-4.71c-.32,0-.58-.11-.58-.24v-1.06c0-.13.26-.24.58-.24h0Z"/><path class="cls-6" d="m51.85,20.28c-.05-.19-.08-.39-.08-.6,0-4.44,11.96-3.59,17.89-2.23v.43c0,1.32-1.08,2.39-2.4,2.39h-15.41Z"/><path class="cls-6" d="m73.14,2.26h.78v9.9c0,.92-.56,1.67-1.24,1.67h-2.01c-.3,0-.57-.05-.81-.15-1.18-3.75.89-11.41,3.27-11.41h0Z"/><path class="cls-4" d="m21.73,41.37h18.62c.82,0,1.5.77,1.5,1.72v2.17h2.22v1.21h-2.22v.04h-20.26v-.04s0-4.44,0-4.44c0-.23.05-.45.15-.64h0Z"/><path class="cls-4" d="m21.36,42.37c.05.24.19.1-.17.47-.5.5-1.6.6-1.6,1.5,0,1.32,2.72,1.46,3.83,1.04,1.68-.65-.79-2.74-2.05-3h0Z"/><path class="cls-1" d="m20.54,43.97c1.31,0,2.38,1.07,2.38,2.38s-1.07,2.38-2.38,2.38-2.38-1.07-2.38-2.38,1.07-2.38,2.38-2.38h0Z"/><path class="cls-7" d="m20.54,44.91c.8,0,1.44.64,1.44,1.44s-.64,1.44-1.44,1.44-1.44-.65-1.44-1.44.64-1.44,1.44-1.44h0Z"/><path class="cls-1" d="m20.54,45.62c.4,0,.73.32.73.73s-.33.73-.73.73-.73-.33-.73-.73.33-.73.73-.73h0Z"/><path class="cls-1" d="m1.16,25.01l3.21-.2c-1.66-.39-2.3-.54-3.33-.98.04.39.08.78.12,1.18h0Z"/><path class="cls-1" d="m1.46,26.71l1.85-.2c-1.01-.39-1.4-.54-2.04-.98.06.39.13.78.2,1.18h0Z"/><g class="cls-10"><path class="cls-5" d="m11.38,34.39c-.07,0-.14,0-.22.01v14.28c.07,0,.14.01.22.01,3.95,0,7.15-3.2,7.15-7.15s-3.2-7.15-7.15-7.15Z"/></g><g class="cls-10"><path class="cls-5" d="m62.1,30.73h0v17.96h0c4.96,0,8.98-4.02,8.98-8.98s-4.02-8.98-8.98-8.98Z"/></g><g class="cls-10"><path class="cls-5" d="m20.54,43.97v4.76c1.31,0,2.38-1.07,2.38-2.38s-1.07-2.38-2.38-2.38Z"/></g></g></svg>