<?xml version="1.0" encoding="UTF-8"?><svg id="Layer_2" xmlns="http://www.w3.org/2000/svg" viewBox="0 0 123.67 107.05"><defs><style>.cls-1,.cls-2{fill:#00a551;}.cls-3{fill:#58595b;}.cls-3,.cls-4,.cls-5,.cls-6,.cls-7,.cls-8,.cls-9,.cls-10,.cls-11,.cls-12,.cls-13,.cls-2{fill-rule:evenodd;}.cls-14,.cls-12{fill:#404041;}.cls-15{fill:#808184;}.cls-4{fill:#929497;}.cls-5{fill:#bbbdbf;}.cls-6{fill:#e6e7e8;}.cls-7{fill:#17854a;}.cls-8,.cls-16{fill:#6d6e70;}.cls-9,.cls-17{fill:#f48120;}.cls-10{fill:#156b40;}.cls-11{fill:#eeb926;}.cls-13{fill:#a6a8ab;}.cls-18{fill:#2b646f;}.cls-19{fill:#4eaaa7;}</style></defs><g id="Layer_1-2"><path class="cls-18" d="m71.25,20.22l-29.14,23.41c-.05,1.13-.08,2.25-.11,3.37l33.34-26.78h-4.09Z"/><path class="cls-18" d="m44.26,20.22c-.66,4.74-1.18,9.39-1.56,13.96l17.37-13.96h-15.81Z"/><path class="cls-18" d="m79.37,22.77l-32.46,26.08h34.42c-.11-8.35-.8-17.07-1.96-26.08Z"/><path class="cls-19" d="m60.07,20.22l-17.37,13.96c-.27,3.2-.46,6.35-.59,9.45l29.14-23.41h-11.18Z"/><path class="cls-19" d="m79.04,20.22h-3.7l-33.34,26.78c-.01.62-.03,1.23-.04,1.84h4.95l32.46-26.08c-.11-.85-.22-1.7-.34-2.55Z"/><path class="cls-14" d="m81.34,50.38h-39.38c-.41,0-.8-.16-1.09-.46-.29-.29-.45-.69-.44-1.1.11-8.87.89-18.57,2.31-28.82.11-.76.75-1.32,1.52-1.32h34.78c.77,0,1.42.57,1.52,1.32,1.42,10.24,2.2,19.94,2.31,28.82,0,.41-.15.81-.44,1.1-.29.29-.68.46-1.09.46Zm-37.81-3.07h36.25c-.17-7.94-.87-16.52-2.08-25.55h-32.1c-1.21,9.04-1.91,17.62-2.08,25.55Z"/><path class="cls-12" d="m97.52,54.21h-31.38c-1.02,0-1.85.83-1.85,1.85v31.87c0,1.02.83,1.85,1.85,1.85h25.11c1.02,0,4.18-.84,4.3-1.85l3.82-31.87c.12-1.01-.83-1.85-1.85-1.85h0Z"/><path class="cls-16" d="m119.16,46.99c.57-.18.89-.79.71-1.37-.18-.57-.79-.89-1.37-.71-3.9,1.24-7.6,2.74-11.04,4.56-3.45,1.82-6.63,3.97-9.51,6.49-.45.39-.5,1.08-.1,1.53.39.45,1.08.5,1.53.1,2.74-2.41,5.79-4.46,9.09-6.21,3.31-1.75,6.89-3.2,10.68-4.4h0Z"/><path class="cls-2" d="m96.4,44.64l-12.81-.47c-1.21-.04-2.19,1.07-2.19,2.38v1.82c0,.39-4.93-.4-5.36.47-1.03,2.07,1.97,6.35,2.81,6.35h21.17c1.79,0-.48-6.66-1.43-8.17-.7-1.11-.99-2.34-2.19-2.38h0Z"/><path class="cls-16" d="m86.26,52.51c-.01-1.54-.03-3.09-.05-4.64-.04-3.01-.08-6.03-.08-9.04,0-1.2.24-2.4.73-3.55l1.93-4.6c.97-2.32,1.98-2.54,2.93-2.43.06,0,.12.01.16.01h2.47v1.08h-2.47c-.09,0-.18,0-.28-.02-.43-.05-1.03-.11-1.81,1.78l-1.93,4.6c-.43,1.02-.65,2.08-.64,3.14,0,3.01.04,6.02.08,9.03.02,1.55.04,3.09.05,4.64h-1.07Z"/><path class="cls-15" d="m84.28,53.47l-.03-10.04c0-.81.3-1.55.89-2.14.69-.69,1.73-1.11,2.78-1.11h2.47v2.15h-2.47c-.48,0-.97.19-1.26.48-.18.18-.26.38-.26.61l.03,10.04h-2.15Z"/><path class="cls-12" d="m25.67,54.21h31.38c1.02,0,1.85.83,1.85,1.85v31.87c0,1.02-.83,1.85-1.85,1.85h-25.11c-1.02,0-4.18-.84-4.3-1.85l-3.82-31.87c-.12-1.01.83-1.85,1.85-1.85h0Z"/><path class="cls-16" d="m3.89,46.99c-.57-.18-.89-.79-.71-1.37.18-.57.79-.89,1.37-.71,3.9,1.24,7.6,2.74,11.04,4.56,3.45,1.82,6.63,3.97,9.51,6.49.45.39.5,1.08.1,1.53-.39.45-1.08.5-1.53.1-2.74-2.41-5.79-4.46-9.09-6.21-3.31-1.75-6.89-3.2-10.68-4.4h0Z"/><path class="cls-17" d="m8.33,49.57c-.53-.17-.82-.73-.66-1.26.17-.53.73-.82,1.26-.66,1.35.43,2.68.89,3.97,1.39l-.72,1.88c-1.26-.48-2.54-.93-3.86-1.35h0Z"/><path class="cls-17" d="m114.72,49.57c.53-.17.82-.73.66-1.26-.17-.53-.73-.82-1.26-.66-1.35.43-2.68.89-3.97,1.39l.72,1.88c1.26-.48,2.54-.93,3.86-1.35h0Z"/><path class="cls-2" d="m26.79,44.64l12.81-.47c1.21-.04,2.19,1.07,2.19,2.38v1.82c0,.39,4.93-.4,5.36.47,1.03,2.07-1.97,6.35-2.81,6.35h-21.17c-1.79,0,.48-6.66,1.43-8.17.7-1.11.99-2.34,2.19-2.38h0Z"/><polygon class="cls-12" points="36.27 20.44 44.25 20.44 44.25 24.76 36.27 24.76 36.27 20.44 36.27 20.44"/><polygon class="cls-12" points="87.27 20.44 79.28 20.44 79.28 24.76 87.27 24.76 87.27 20.44 87.27 20.44"/><polygon class="cls-12" points="36.84 48.85 51.89 48.85 51.89 54.25 36.84 54.25 36.84 48.85 36.84 48.85"/><path class="cls-12" d="m29.63,20.44h8.85c.35,0,.64.29.64.64v1.13c0,.35-.29.64-.64.64h-8.85c-.35,0-.64-.29-.64-.64v-1.13c0-.35.29-.64.64-.64h0Z"/><path class="cls-12" d="m93.9,20.44h-8.85c-.35,0-.64.29-.64.64v1.13c0,.35.29.64.64.64h8.85c.35,0,.64-.29.64-.64v-1.13c0-.35-.29-.64-.64-.64h0Z"/><path class="cls-2" d="m40.24,17.83h42.8c.73,0,1.33-.6,1.33-1.33h0c0-.73-.6-1.33-1.33-1.33h-42.8c-.73,0-1.33.6-1.33,1.33h0c0,.73.6,1.33,1.33,1.33h0Z"/><path class="cls-3" d="m44.82,46.85h33.59c1.42,10.22,1.42,21.04,0,31.27h-33.59c-1.25-9.74-1.42-20.5,0-31.27h0Z"/><path class="cls-1" d="m78.42,79.19h-33.59c-.54,0-1-.4-1.07-.94-1.34-10.45-1.34-21.35,0-31.54.07-.53.53-.93,1.07-.93h33.59c.54,0,.99.4,1.06.93,1.43,10.32,1.43,21.24,0,31.56-.07.53-.53.93-1.06.93Zm-32.64-2.15h31.7c1.24-9.54,1.24-19.57,0-29.12h-31.7c-1.16,9.43-1.16,19.46,0,29.12Z"/><path class="cls-2" d="m79.08,47.45c0-.18.01-.35.01-.53h0c0-4.17-4.96-7.59-8.16-7.59h-18.64c-3.2,0-7.93,3.41-7.93,7.59h0c0,.18,0,.36.01.53h34.7Z"/><polygon class="cls-10" points="72.35 88.45 50.93 88.45 50.93 91.36 72.35 91.36 72.35 88.45 72.35 88.45"/><polygon class="cls-7" points="74.9 88.45 72.35 88.45 72.35 92.93 74.9 92.93 74.9 88.45 74.9 88.45"/><polygon class="cls-7" points="50.88 88.45 48.32 88.45 48.32 92.93 50.88 92.93 50.88 88.45 50.88 88.45"/><polygon class="cls-8" points="28.67 24.19 39.68 24.19 39.68 54.36 28.67 54.36 28.67 24.19 28.67 24.19"/><polygon class="cls-4" points="31.53 21.3 36.62 21.3 39.68 24.19 28.67 24.19 31.53 21.3 31.53 21.3"/><polygon class="cls-4" points="32.25 17.01 35.98 17.01 36.76 18.45 31.59 18.45 32.25 17.01 32.25 17.01"/><polygon class="cls-8" points="31.59 18.5 36.62 18.5 36.62 21.3 31.59 21.3 31.59 18.5 31.59 18.5"/><polygon class="cls-8" points="32.29 3.92 35.98 3.92 35.98 17.01 32.29 17.01 32.29 3.92 32.29 3.92"/><path class="cls-12" d="m34.13,0c1.21,0,2.18,1.19,2.18,2.65s-.98,2.65-2.18,2.65-2.18-1.19-2.18-2.65.98-2.65,2.18-2.65h0Z"/><path class="cls-3" d="m84.39,16.14c0,.06,0,.12,0,.18v1.52c0,1.05-.53,1.9-1.18,1.9h-43.14c-.65,0-1.18-.86-1.18-1.9v-1.52c0-.06,0-.12,0-.18h13.01v.86h19.45v-.86h13.01Z"/><path class="cls-6" d="m48.53,17.41c1.21,0,2.2.44,2.2.98s-.98.98-2.2.98-2.2-.44-2.2-.98.98-.98,2.2-.98h0Z"/><path class="cls-6" d="m80.76,17.41c1.21,0,2.2.44,2.2.98s-.98.98-2.2.98-2.2-.44-2.2-.98.98-.98,2.2-.98h0Z"/><path class="cls-6" d="m43.19,17.41c1.21,0,2.2.44,2.2.98s-.98.98-2.2.98-2.2-.44-2.2-.98.98-.98,2.2-.98h0Z"/><path class="cls-6" d="m75.43,17.41c1.21,0,2.2.44,2.2.98s-.98.98-2.2.98-2.2-.44-2.2-.98.98-.98,2.2-.98h0Z"/><path class="cls-12" d="m22.29,23.48h3.3c.59,0,1.07.29,1.07.66v6.85c0,.36-.48.65-1.07.65h-3.3c-.59,0-1.07-.29-1.07-.65v-6.85c0-.36.48-.66,1.07-.66h0Z"/><path class="cls-12" d="m101.25,23.48h-3.3c-.59,0-1.07.29-1.07.65v6.85c0,.36.48.65,1.07.65h3.3c.59,0,1.07-.29,1.07-.65v-6.85c0-.36-.48-.65-1.07-.65h0Z"/><path class="cls-14" d="m24.66,25.95h-1.54v-2.43c0-1.49,1.33-2.71,2.97-2.72l3.54-.02v1.54s-3.53.02-3.53.02c-.79,0-1.44.53-1.44,1.18v2.43Z"/><path class="cls-14" d="m100.41,25.95h-1.54v-2.43c0-.65-.65-1.18-1.44-1.18l-3.53-.02v-1.54s3.54.02,3.54.02c1.64,0,2.97,1.23,2.97,2.72v2.43Z"/><polygon class="cls-8" points="91.34 20.42 95.71 20.42 95.71 33.5 91.34 33.5 91.34 20.42 91.34 20.42"/><polygon class="cls-8" points="89.85 36.85 97.04 36.85 97.04 42.22 89.85 42.22 89.85 36.85 89.85 36.85"/><path class="cls-8" d="m89.82,42.22h7.25c.87,0,1.58.24,1.58.52v10.22c0,.29-.71.52-1.58.52h-7.25c-.87,0-1.58-.24-1.58-.52v-10.22c0-.29.71-.52,1.58-.52h0Z"/><polygon class="cls-4" points="90.48 15.45 96.57 15.45 96.57 20.42 90.48 20.42 90.48 15.45 90.48 15.45"/><polygon class="cls-13" points="90.48 13.84 96.57 13.84 97.36 15.45 89.67 15.45 90.48 13.84 90.48 13.84"/><polygon class="cls-4" points="91.09 31.5 95.82 31.5 97.06 36.85 89.84 36.85 91.09 31.5 91.09 31.5"/><polygon class="cls-12" points="37.48 13.86 38.42 13.86 38.42 21.84 37.48 21.84 37.48 13.86 37.48 13.86"/><polygon class="cls-12" points="86.06 13.86 85.12 13.86 85.12 21.84 86.06 21.84 86.06 13.86 86.06 13.86"/><path class="cls-9" d="m37.95,9.83h0c.88,0,1.59.72,1.59,1.59v1.08c0,.88-.72,1.59-1.59,1.59h0c-.88,0-1.59-.72-1.59-1.59v-1.08c0-.88.72-1.59,1.59-1.59h0Z"/><path class="cls-9" d="m85.59,9.83h0c-.88,0-1.59.72-1.59,1.59v1.08c0,.88.72,1.59,1.59,1.59h0c.88,0,1.59-.72,1.59-1.59v-1.08c0-.88-.72-1.59-1.59-1.59h0Z"/><path class="cls-12" d="m39.54,12.46v.05c0,.88-.72,1.59-1.59,1.59h0c-.88,0-1.59-.72-1.59-1.59v-.05h3.19Z"/><path class="cls-9" d="m61.9,10.6h0c1.41,0,2.57.72,2.57,1.59v1.08c0,.88-1.15,1.59-2.57,1.59h0c-1.41,0-2.57-.72-2.57-1.59v-1.08c0-.88,1.15-1.59,2.57-1.59h0Z"/><polygon class="cls-2" points="59.33 12.74 64.47 12.74 64.47 15.16 59.33 15.16 59.33 12.74 59.33 12.74"/><path class="cls-13" d="m81.76,50.09v.02c-.63.39-1.06,1.1-1.06,1.9,0,1.23,1,2.22,2.22,2.22.33,0,.64-.07.92-.2v.03s10.51-3.03,10.51-3.03h0c4.29-1.2,2.15-8.17-2.64-5.89l-9.95,4.96h0Z"/><path class="cls-14" d="m58.29,75.73c-.37,0-.7-.27-.76-.65-1.29-8.35-1.29-17.06,0-25.2.07-.42.46-.7.88-.64.42.07.7.46.64.88-1.27,7.99-1.27,16.54,0,24.73.07.42-.22.81-.64.88-.04,0-.08,0-.12,0Zm-5.79,0c-.37,0-.7-.27-.76-.65-1.29-8.34-1.29-17.06,0-25.2.07-.42.46-.7.88-.64.42.07.7.46.64.88-1.27,7.99-1.27,16.54,0,24.73.07.42-.22.81-.64.88-.04,0-.08,0-.12,0Zm-1.93,0c-.37,0-.7-.27-.76-.65-1.29-8.35-1.29-17.06,0-25.2.07-.42.46-.7.88-.64.42.07.7.46.64.88-1.27,7.99-1.27,16.54,0,24.73.07.42-.22.81-.64.88-.04,0-.08,0-.12,0Zm5.79,0c-.37,0-.7-.27-.76-.65-1.29-8.35-1.29-17.06,0-25.2.07-.42.46-.7.88-.64.42.07.7.46.64.88-1.27,7.99-1.27,16.54,0,24.73.06.42-.22.81-.64.88-.04,0-.08,0-.12,0Zm-1.93,0c-.37,0-.7-.27-.76-.65-1.29-8.35-1.29-17.06,0-25.2.07-.42.46-.7.88-.64.42.07.7.46.64.88-1.27,7.99-1.27,16.54,0,24.73.06.42-.22.81-.64.88-.04,0-.08,0-.12,0Zm-5.79,0c-.37,0-.7-.27-.76-.65-1.29-8.35-1.29-17.06,0-25.2.07-.42.46-.7.88-.64.42.07.7.46.64.88-1.27,7.99-1.27,16.54,0,24.73.06.42-.22.81-.64.88-.04,0-.08,0-.12,0Zm-1.93,0c-.37,0-.7-.27-.76-.65-1.29-8.35-1.29-17.06,0-25.2.07-.42.46-.7.88-.64.42.07.7.46.64.88-1.27,7.99-1.27,16.54,0,24.73.06.42-.22.81-.64.88-.04,0-.08,0-.12,0Z"/><path class="cls-14" d="m76.7,75.73s-.08,0-.12,0c-.42-.06-.71-.46-.64-.88,1.27-8.19,1.27-16.74,0-24.73-.07-.42.22-.81.64-.88.42-.07.81.22.88.64,1.29,8.15,1.29,16.86,0,25.2-.06.38-.39.65-.76.65Zm-5.79,0s-.08,0-.12,0c-.42-.06-.71-.46-.64-.88,1.27-8.19,1.27-16.74,0-24.73-.07-.42.22-.81.64-.88.42-.07.81.22.88.64,1.29,8.14,1.29,16.86,0,25.2-.06.38-.39.65-.76.65Zm-1.93,0s-.08,0-.12,0c-.42-.06-.71-.46-.64-.88,1.27-8.19,1.27-16.74,0-24.73-.07-.42.22-.81.64-.88.42-.07.81.22.88.64,1.29,8.15,1.29,16.86,0,25.2-.06.38-.39.65-.76.65Zm5.79,0s-.08,0-.12,0c-.42-.06-.71-.46-.64-.88,1.27-8.19,1.27-16.74,0-24.73-.07-.42.22-.81.64-.88.42-.07.81.22.88.64,1.29,8.14,1.29,16.86,0,25.2-.06.38-.39.65-.76.65Zm-1.93,0s-.08,0-.12,0c-.42-.06-.71-.46-.64-.88,1.27-8.19,1.27-16.74,0-24.73-.07-.42.22-.81.64-.88.42-.07.81.22.88.64,1.29,8.14,1.29,16.86,0,25.2-.06.38-.39.65-.76.65Zm-5.79,0s-.08,0-.12,0c-.42-.06-.71-.46-.64-.88,1.27-8.19,1.27-16.74,0-24.73-.07-.42.22-.81.64-.88.42-.07.81.22.88.64,1.29,8.14,1.29,16.86,0,25.2-.06.38-.39.65-.76.65Zm-1.93,0s-.08,0-.12,0c-.42-.06-.71-.46-.64-.88,1.27-8.19,1.27-16.74,0-24.73-.07-.42.22-.81.64-.88.42-.07.81.22.88.64,1.29,8.14,1.29,16.86,0,25.2-.06.38-.39.65-.76.65Z"/><polygon class="cls-11" points="9.94 80.32 28.16 80.32 28.16 87.49 9.94 87.49 9.94 80.32 9.94 80.32"/><path class="cls-3" d="m4.01,60.76h11.41c2.21,0,4.01,1.83,4.01,4.06v38.15c0,2.24-1.8,4.06-4.01,4.06H4.01c-2.21,0-4.01-1.83-4.01-4.06v-38.15c0-2.24,1.8-4.06,4.01-4.06h0Z"/><path class="cls-3" d="m26.18,60.76h11.41c2.21,0,4.01,1.83,4.01,4.06v38.15c0,2.24-1.8,4.06-4.01,4.06h-11.41c-2.21,0-4.01-1.83-4.01-4.06v-38.15c0-2.24,1.8-4.06,4.01-4.06h0Z"/><path class="cls-13" d="m5.03,60.76l3.92,1.16c.57.17.89.76.72,1.32h0c-.17.56-.77.88-1.34.71l-7.07-2.09c.72-.68,1.69-1.09,2.75-1.09h1.02Z"/><path class="cls-13" d="m0,64.95l8.95,2.65c.57.17.89.76.72,1.32h0c-.17.56-.77.88-1.34.71l-8.33-2.46v-2.21h0Z"/><path class="cls-13" d="m0,70.62l8.95,2.65c.57.17.89.76.72,1.32h0c-.17.56-.77.88-1.34.71l-8.33-2.46v-2.21h0Z"/><path class="cls-13" d="m0,76.3l8.95,2.65c.57.17.89.76.72,1.32h0c-.17.56-.77.88-1.34.71l-8.33-2.46v-2.21h0Z"/><path class="cls-13" d="m0,81.98l8.95,2.65c.57.17.89.76.72,1.32h0c-.17.56-.77.88-1.34.71l-8.33-2.46v-2.21h0Z"/><path class="cls-13" d="m0,87.65l8.95,2.65c.57.17.89.76.72,1.32h0c-.17.56-.77.88-1.34.71l-8.33-2.46v-2.21h0Z"/><path class="cls-13" d="m0,93.33l8.95,2.65c.57.17.89.76.72,1.32h0c-.17.56-.77.88-1.34.71l-8.33-2.46v-2.21h0Z"/><path class="cls-13" d="m0,99l8.95,2.65c.57.17.89.76.72,1.32h0c-.17.56-.77.88-1.34.71l-8.33-2.46v-2.21h0Z"/><path class="cls-13" d="m1.01,104.98l4.56,1.35h-1.57c-1.19,0-2.26-.52-3-1.35h0Z"/><path class="cls-13" d="m9.81,60.76c.22.47.77.72,1.28.57l1.91-.57h-3.19Z"/><path class="cls-13" d="m18.74,62.53l-8.26,2.44c-.57.17-.89.76-.72,1.32h0c.17.56.77.88,1.34.71l8.32-2.46c-.04-.74-.29-1.43-.68-2.01h0Z"/><path class="cls-13" d="m19.42,68l-8.95,2.65c-.57.17-.89.76-.72,1.32h0c.17.56.77.88,1.34.71l8.33-2.46v-2.21h0Z"/><path class="cls-13" d="m19.42,73.68l-8.95,2.65c-.57.17-.89.76-.72,1.32h0c.17.56.77.88,1.34.71l8.33-2.46v-2.21h0Z"/><path class="cls-13" d="m19.42,79.35l-8.95,2.65c-.57.17-.89.76-.72,1.32h0c.17.56.77.88,1.34.71l8.33-2.46v-2.21h0Z"/><path class="cls-13" d="m19.42,85.03l-8.95,2.65c-.57.17-.89.76-.72,1.32h0c.17.56.77.88,1.34.71l8.33-2.46v-2.21h0Z"/><path class="cls-13" d="m19.42,90.7l-8.95,2.65c-.57.17-.89.76-.72,1.32h0c.17.56.77.88,1.34.71l8.33-2.46v-2.21h0Z"/><path class="cls-13" d="m19.42,96.38l-8.95,2.65c-.57.17-.89.76-.72,1.32h0c.17.56.77.88,1.34.71l8.33-2.46v-2.21h0Z"/><path class="cls-13" d="m19.42,102.06l-8.95,2.65c-.57.17-.89.76-.72,1.32h0c.03.11.09.21.15.31h2.55l6.35-1.88c.39-.62.62-1.34.62-2.12v-.27h0Z"/><path class="cls-13" d="m27.2,60.76l3.92,1.17c.57.17.89.77.72,1.33h0c-.17.56-.77.88-1.34.71l-7.07-2.1c.72-.68,1.69-1.1,2.75-1.1h1.02Z"/><path class="cls-13" d="m22.17,64.98l8.95,2.67c.57.17.89.77.72,1.33h0c-.17.56-.77.88-1.34.71l-8.33-2.48v-2.23h0Z"/><path class="cls-13" d="m22.17,70.69l8.95,2.67c.57.17.89.77.72,1.33h0c-.17.56-.77.88-1.34.71l-8.33-2.48v-2.23h0Z"/><path class="cls-13" d="m22.17,76.4l8.95,2.67c.57.17.89.77.72,1.33h0c-.17.56-.77.88-1.34.71l-8.33-2.48v-2.23h0Z"/><path class="cls-13" d="m22.17,82.12l8.95,2.67c.57.17.89.77.72,1.33h0c-.17.56-.77.88-1.34.71l-8.33-2.48v-2.23h0Z"/><path class="cls-13" d="m22.17,87.83l8.95,2.67c.57.17.89.77.72,1.33h0c-.17.56-.77.88-1.34.71l-8.33-2.48v-2.23h0Z"/><path class="cls-13" d="m22.17,93.55l8.95,2.67c.57.17.89.77.72,1.33h0c-.17.56-.77.88-1.34.71l-8.33-2.48v-2.23h0Z"/><path class="cls-13" d="m22.17,99.26l8.95,2.67c.57.17.89.77.72,1.33h0c-.17.56-.77.88-1.34.71l-8.33-2.48v-2.23h0Z"/><path class="cls-13" d="m23.19,105.27l4.56,1.36h-1.57c-1.19,0-2.26-.53-3-1.36h0Z"/><path class="cls-13" d="m31.99,60.76c.22.47.77.72,1.28.57l1.91-.57h-3.19Z"/><path class="cls-13" d="m40.91,62.54l-8.26,2.46c-.57.17-.89.77-.72,1.33h0c.17.56.77.88,1.34.71l8.32-2.48c-.04-.75-.29-1.44-.68-2.02h0Z"/><path class="cls-13" d="m41.6,68.05l-8.95,2.67c-.57.17-.89.77-.72,1.33h0c.17.56.77.88,1.34.71l8.33-2.48v-2.23h0Z"/><path class="cls-13" d="m41.6,73.77l-8.95,2.67c-.57.17-.89.77-.72,1.33h0c.17.56.77.88,1.34.71l8.33-2.48v-2.23h0Z"/><path class="cls-13" d="m41.6,79.48l-8.95,2.67c-.57.17-.89.77-.72,1.33h0c.17.56.77.88,1.34.71l8.33-2.48v-2.23h0Z"/><path class="cls-13" d="m41.6,85.19l-8.95,2.67c-.57.17-.89.77-.72,1.33h0c.17.56.77.88,1.34.71l8.33-2.48v-2.23h0Z"/><path class="cls-13" d="m41.6,90.91l-8.95,2.67c-.57.17-.89.77-.72,1.33h0c.17.56.77.88,1.34.71l8.33-2.48v-2.23h0Z"/><path class="cls-13" d="m41.6,96.62l-8.95,2.67c-.57.17-.89.77-.72,1.33h0c.17.56.77.88,1.34.71l8.33-2.48v-2.23h0Z"/><path class="cls-13" d="m41.6,102.33l-8.95,2.67c-.57.17-.89.77-.72,1.33h0c.03.11.09.22.15.31h2.55l6.35-1.89c.39-.62.62-1.35.62-2.14v-.27h0Z"/><path class="cls-8" d="m5.03,61.17l3.92,1.16c.57.17.89.76.72,1.32h0c-.17.56-.77.88-1.34.71l-7.07-2.09c.72-.68,1.69-1.09,2.75-1.09h1.02Z"/><path class="cls-8" d="m0,65.36l8.95,2.65c.57.17.89.76.72,1.32h0c-.17.56-.77.88-1.34.71l-8.33-2.46v-2.21h0Z"/><path class="cls-8" d="m0,71.03l8.95,2.65c.57.17.89.76.72,1.32h0c-.17.56-.77.88-1.34.71l-8.33-2.46v-2.21h0Z"/><path class="cls-8" d="m0,76.71l8.95,2.65c.57.17.89.76.72,1.32h0c-.17.56-.77.88-1.34.71l-8.33-2.46v-2.21h0Z"/><path class="cls-8" d="m0,82.38l8.95,2.65c.57.17.89.76.72,1.32h0c-.17.56-.77.88-1.34.71l-8.33-2.46v-2.21h0Z"/><path class="cls-8" d="m0,88.06l8.95,2.65c.57.17.89.76.72,1.32h0c-.17.56-.77.88-1.34.71l-8.33-2.46v-2.21h0Z"/><path class="cls-8" d="m0,93.74l8.95,2.65c.57.17.89.76.72,1.32h0c-.17.56-.77.88-1.34.71l-8.33-2.46v-2.21h0Z"/><path class="cls-8" d="m0,99.41l8.95,2.65c.57.17.89.76.72,1.32h0c-.17.56-.77.88-1.34.71l-8.33-2.46v-2.21h0Z"/><path class="cls-8" d="m1.01,105.39l4.56,1.35h-1.57c-1.19,0-2.26-.52-3-1.35h0Z"/><path class="cls-8" d="m9.81,61.17c.22.47.77.72,1.28.57l1.91-.57h-3.19Z"/><path class="cls-8" d="m18.74,62.94l-8.26,2.44c-.57.17-.89.76-.72,1.32h0c.17.56.77.88,1.34.71l8.32-2.46c-.04-.74-.29-1.43-.68-2.01h0Z"/><path class="cls-8" d="m19.42,68.41l-8.95,2.65c-.57.17-.89.76-.72,1.32h0c.17.56.77.88,1.34.71l8.33-2.46v-2.21h0Z"/><path class="cls-8" d="m19.42,74.09l-8.95,2.65c-.57.17-.89.76-.72,1.32h0c.17.56.77.88,1.34.71l8.33-2.46v-2.21h0Z"/><path class="cls-8" d="m19.42,79.76l-8.95,2.65c-.57.17-.89.76-.72,1.32h0c.17.56.77.88,1.34.71l8.33-2.46v-2.21h0Z"/><path class="cls-8" d="m19.42,85.44l-8.95,2.65c-.57.17-.89.76-.72,1.32h0c.17.56.77.88,1.34.71l8.33-2.46v-2.21h0Z"/><path class="cls-8" d="m19.42,91.11l-8.95,2.65c-.57.17-.89.76-.72,1.32h0c.17.56.77.88,1.34.71l8.33-2.46v-2.21h0Z"/><path class="cls-8" d="m19.42,96.79l-8.95,2.65c-.57.17-.89.76-.72,1.32h0c.17.56.77.88,1.34.71l8.33-2.46v-2.21h0Z"/><path class="cls-8" d="m19.42,102.46l-8.95,2.65c-.57.17-.89.76-.72,1.32h0c.03.11.09.21.15.31h2.55l6.35-1.88c.39-.62.62-1.34.62-2.12v-.27h0Z"/><path class="cls-8" d="m27.2,61.18l3.92,1.17c.57.17.89.77.72,1.33h0c-.17.56-.77.88-1.34.71l-7.07-2.11c.72-.68,1.69-1.1,2.75-1.1h1.02Z"/><path class="cls-8" d="m22.17,65.39l8.95,2.67c.57.17.89.77.72,1.33h0c-.17.56-.77.88-1.34.71l-8.33-2.48v-2.23h0Z"/><path class="cls-8" d="m22.17,71.1l8.95,2.67c.57.17.89.77.72,1.33h0c-.17.56-.77.88-1.34.71l-8.33-2.48v-2.23h0Z"/><path class="cls-8" d="m22.17,76.82l8.95,2.67c.57.17.89.77.72,1.33h0c-.17.56-.77.88-1.34.71l-8.33-2.48v-2.23h0Z"/><path class="cls-8" d="m22.17,82.53l8.95,2.67c.57.17.89.77.72,1.33h0c-.17.56-.77.88-1.34.71l-8.33-2.48v-2.23h0Z"/><path class="cls-8" d="m22.17,88.24l8.95,2.67c.57.17.89.77.72,1.33h0c-.17.56-.77.88-1.34.71l-8.33-2.48v-2.23h0Z"/><path class="cls-8" d="m22.17,93.96l8.95,2.67c.57.17.89.77.72,1.33h0c-.17.56-.77.88-1.34.71l-8.33-2.48v-2.23h0Z"/><path class="cls-8" d="m22.17,99.67l8.95,2.67c.57.17.89.77.72,1.33h0c-.17.56-.77.88-1.34.71l-8.33-2.48v-2.23h0Z"/><path class="cls-8" d="m23.19,105.69l4.56,1.36h-1.57c-1.19,0-2.26-.53-3-1.36h0Z"/><path class="cls-8" d="m31.99,61.18c.22.47.77.72,1.28.57l1.91-.57h-3.19Z"/><path class="cls-8" d="m40.91,62.96l-8.26,2.46c-.57.17-.89.77-.72,1.33h0c.17.56.77.88,1.34.71l8.32-2.48c-.04-.75-.29-1.44-.68-2.02h0Z"/><path class="cls-8" d="m41.6,68.47l-8.95,2.67c-.57.17-.89.77-.72,1.33h0c.17.56.77.88,1.34.71l8.33-2.48v-2.23h0Z"/><path class="cls-8" d="m41.6,74.18l-8.95,2.67c-.57.17-.89.77-.72,1.33h0c.17.56.77.88,1.34.71l8.33-2.48v-2.23h0Z"/><path class="cls-8" d="m41.6,79.89l-8.95,2.67c-.57.17-.89.77-.72,1.33h0c.17.56.77.88,1.34.71l8.33-2.48v-2.23h0Z"/><path class="cls-8" d="m41.6,85.61l-8.95,2.67c-.57.17-.89.77-.72,1.33h0c.17.56.77.88,1.34.71l8.33-2.48v-2.23h0Z"/><path class="cls-8" d="m41.6,91.32l-8.95,2.67c-.57.17-.89.77-.72,1.33h0c.17.56.77.88,1.34.71l8.33-2.48v-2.23h0Z"/><path class="cls-8" d="m41.6,97.03l-8.95,2.67c-.57.17-.89.77-.72,1.33h0c.17.56.77.88,1.34.71l8.33-2.48v-2.23h0Z"/><path class="cls-8" d="m41.6,102.75l-8.95,2.67c-.57.17-.89.77-.72,1.33h0c.03.11.09.22.15.31h2.55l6.35-1.89c.39-.62.62-1.35.62-2.14v-.27h0Z"/><polygon class="cls-11" points="93.96 80.32 112.18 80.32 112.18 87.49 93.96 87.49 93.96 80.32 93.96 80.32"/><path class="cls-3" d="m86.08,60.76h11.41c2.21,0,4.01,1.83,4.01,4.06v38.15c0,2.24-1.8,4.06-4.01,4.06h-11.41c-2.21,0-4.01-1.83-4.01-4.06v-38.15c0-2.24,1.8-4.06,4.01-4.06h0Z"/><path class="cls-3" d="m108.25,60.76h11.41c2.21,0,4.01,1.83,4.01,4.06v38.15c0,2.24-1.8,4.06-4.01,4.06h-11.41c-2.21,0-4.01-1.83-4.01-4.06v-38.15c0-2.24,1.8-4.06,4.01-4.06h0Z"/><path class="cls-13" d="m87.1,60.76l3.92,1.16c.57.17.89.76.72,1.32h0c-.17.56-.77.88-1.34.71l-7.07-2.09c.72-.68,1.69-1.1,2.75-1.1h1.02Z"/><path class="cls-13" d="m82.07,64.95l8.95,2.65c.57.17.89.76.72,1.32h0c-.17.56-.77.88-1.34.71l-8.33-2.47v-2.21h0Z"/><path class="cls-13" d="m82.07,70.63l8.95,2.65c.57.17.89.76.72,1.32h0c-.17.56-.77.88-1.34.71l-8.33-2.47v-2.21h0Z"/><path class="cls-13" d="m82.07,76.31l8.95,2.65c.57.17.89.76.72,1.32h0c-.17.56-.77.88-1.34.71l-8.33-2.47v-2.21h0Z"/><path class="cls-13" d="m82.07,81.99l8.95,2.65c.57.17.89.76.72,1.32h0c-.17.56-.77.88-1.34.71l-8.33-2.47v-2.21h0Z"/><path class="cls-13" d="m82.07,87.67l8.95,2.65c.57.17.89.76.72,1.32h0c-.17.56-.77.88-1.34.71l-8.33-2.47v-2.21h0Z"/><path class="cls-13" d="m82.07,93.35l8.95,2.65c.57.17.89.76.72,1.32h0c-.17.56-.77.88-1.34.71l-8.33-2.47v-2.21h0Z"/><path class="cls-13" d="m82.07,99.02l8.95,2.65c.57.17.89.76.72,1.32h0c-.17.56-.77.88-1.34.71l-8.33-2.47v-2.21h0Z"/><path class="cls-13" d="m83.08,105l4.56,1.35h-1.57c-1.19,0-2.26-.52-3-1.35h0Z"/><path class="cls-13" d="m91.88,60.76c.22.47.77.72,1.28.57l1.91-.57h-3.19Z"/><path class="cls-13" d="m100.81,62.53l-8.26,2.45c-.57.17-.89.76-.72,1.32h0c.17.56.77.88,1.34.71l8.32-2.46c-.04-.74-.29-1.43-.68-2.01h0Z"/><path class="cls-13" d="m101.49,68.01l-8.95,2.65c-.57.17-.89.76-.72,1.32h0c.17.56.77.88,1.34.71l8.33-2.47v-2.21h0Z"/><path class="cls-13" d="m101.49,73.69l-8.95,2.65c-.57.17-.89.76-.72,1.32h0c.17.56.77.88,1.34.71l8.33-2.47v-2.21h0Z"/><path class="cls-13" d="m101.49,79.37l-8.95,2.65c-.57.17-.89.76-.72,1.32h0c.17.56.77.88,1.34.71l8.33-2.47v-2.21h0Z"/><path class="cls-13" d="m101.49,85.04l-8.95,2.65c-.57.17-.89.76-.72,1.32h0c.17.56.77.88,1.34.71l8.33-2.47v-2.21h0Z"/><path class="cls-13" d="m101.49,90.72l-8.95,2.65c-.57.17-.89.76-.72,1.32h0c.17.56.77.88,1.34.71l8.33-2.47v-2.21h0Z"/><path class="cls-13" d="m101.49,96.4l-8.95,2.65c-.57.17-.89.76-.72,1.32h0c.17.56.77.88,1.34.71l8.33-2.47v-2.21h0Z"/><path class="cls-13" d="m101.49,102.08l-8.95,2.65c-.57.17-.89.76-.72,1.32h0c.03.11.09.21.15.31h2.55l6.35-1.88c.39-.62.62-1.35.62-2.12v-.27h0Z"/><path class="cls-13" d="m109.27,60.76l3.92,1.16c.57.17.89.76.72,1.32h0c-.17.56-.77.88-1.34.71l-7.07-2.09c.72-.68,1.69-1.1,2.75-1.1h1.02Z"/><path class="cls-13" d="m104.24,64.95l8.95,2.65c.57.17.89.76.72,1.32h0c-.17.56-.77.88-1.34.71l-8.33-2.47v-2.21h0Z"/><path class="cls-13" d="m104.24,70.63l8.95,2.65c.57.17.89.76.72,1.32h0c-.17.56-.77.88-1.34.71l-8.33-2.47v-2.21h0Z"/><path class="cls-13" d="m104.24,76.31l8.95,2.65c.57.17.89.76.72,1.32h0c-.17.56-.77.88-1.34.71l-8.33-2.47v-2.21h0Z"/><path class="cls-13" d="m104.24,81.99l8.95,2.65c.57.17.89.76.72,1.32h0c-.17.56-.77.88-1.34.71l-8.33-2.47v-2.21h0Z"/><path class="cls-13" d="m104.24,87.67l8.95,2.65c.57.17.89.76.72,1.32h0c-.17.56-.77.88-1.34.71l-8.33-2.47v-2.21h0Z"/><path class="cls-13" d="m104.24,93.35l8.95,2.65c.57.17.89.76.72,1.32h0c-.17.56-.77.88-1.34.71l-8.33-2.47v-2.21h0Z"/><path class="cls-13" d="m104.24,99.02l8.95,2.65c.57.17.89.76.72,1.32h0c-.17.56-.77.88-1.34.71l-8.33-2.47v-2.21h0Z"/><path class="cls-13" d="m105.26,105l4.56,1.35h-1.57c-1.19,0-2.26-.52-3-1.35h0Z"/><path class="cls-13" d="m114.06,60.76c.22.47.77.72,1.28.57l1.91-.57h-3.19Z"/><path class="cls-13" d="m122.98,62.53l-8.26,2.45c-.57.17-.89.76-.72,1.32h0c.17.56.77.88,1.34.71l8.32-2.46c-.04-.74-.29-1.43-.68-2.01h0Z"/><path class="cls-13" d="m123.67,68.01l-8.95,2.65c-.57.17-.89.76-.72,1.32h0c.17.56.77.88,1.34.71l8.33-2.47v-2.21h0Z"/><path class="cls-13" d="m123.67,73.69l-8.95,2.65c-.57.17-.89.76-.72,1.32h0c.17.56.77.88,1.34.71l8.33-2.47v-2.21h0Z"/><path class="cls-13" d="m123.67,79.37l-8.95,2.65c-.57.17-.89.76-.72,1.32h0c.17.56.77.88,1.34.71l8.33-2.47v-2.21h0Z"/><path class="cls-13" d="m123.67,85.04l-8.95,2.65c-.57.17-.89.76-.72,1.32h0c.17.56.77.88,1.34.71l8.33-2.47v-2.21h0Z"/><path class="cls-13" d="m123.67,90.72l-8.95,2.65c-.57.17-.89.76-.72,1.32h0c.17.56.77.88,1.34.71l8.33-2.47v-2.21h0Z"/><path class="cls-13" d="m123.67,96.4l-8.95,2.65c-.57.17-.89.76-.72,1.32h0c.17.56.77.88,1.34.71l8.33-2.47v-2.21h0Z"/><path class="cls-13" d="m123.67,102.08l-8.95,2.65c-.57.17-.89.76-.72,1.32h0c.03.11.09.21.15.31h2.55l6.35-1.88c.39-.62.62-1.35.62-2.12v-.27h0Z"/><path class="cls-8" d="m87.1,61.17l3.92,1.16c.57.17.89.76.72,1.32h0c-.17.56-.77.88-1.34.71l-7.07-2.09c.72-.68,1.69-1.1,2.75-1.1h1.02Z"/><path class="cls-8" d="m82.07,65.36l8.95,2.65c.57.17.89.76.72,1.32h0c-.17.56-.77.88-1.34.71l-8.33-2.47v-2.21h0Z"/><path class="cls-8" d="m82.07,71.04l8.95,2.65c.57.17.89.76.72,1.32h0c-.17.56-.77.88-1.34.71l-8.33-2.47v-2.21h0Z"/><path class="cls-8" d="m82.07,76.72l8.95,2.65c.57.17.89.76.72,1.32h0c-.17.56-.77.88-1.34.71l-8.33-2.47v-2.21h0Z"/><path class="cls-8" d="m82.07,82.4l8.95,2.65c.57.17.89.76.72,1.32h0c-.17.56-.77.88-1.34.71l-8.33-2.47v-2.21h0Z"/><path class="cls-8" d="m82.07,88.08l8.95,2.65c.57.17.89.76.72,1.32h0c-.17.56-.77.88-1.34.71l-8.33-2.47v-2.21h0Z"/><path class="cls-8" d="m82.07,93.76l8.95,2.65c.57.17.89.76.72,1.32h0c-.17.56-.77.88-1.34.71l-8.33-2.47v-2.21h0Z"/><path class="cls-8" d="m82.07,99.43l8.95,2.65c.57.17.89.76.72,1.32h0c-.17.56-.77.88-1.34.71l-8.33-2.47v-2.21h0Z"/><path class="cls-8" d="m83.08,105.41l4.56,1.35h-1.57c-1.19,0-2.26-.52-3-1.35h0Z"/><path class="cls-8" d="m91.88,61.17c.22.47.77.72,1.28.57l1.91-.57h-3.19Z"/><path class="cls-8" d="m100.81,62.94l-8.26,2.45c-.57.17-.89.76-.72,1.32h0c.17.56.77.88,1.34.71l8.32-2.46c-.04-.74-.29-1.43-.68-2.01h0Z"/><path class="cls-8" d="m101.49,68.42l-8.95,2.65c-.57.17-.89.76-.72,1.32h0c.17.56.77.88,1.34.71l8.33-2.47v-2.21h0Z"/><path class="cls-8" d="m101.49,74.1l-8.95,2.65c-.57.17-.89.76-.72,1.32h0c.17.56.77.88,1.34.71l8.33-2.47v-2.21h0Z"/><path class="cls-8" d="m101.49,79.78l-8.95,2.65c-.57.17-.89.76-.72,1.32h0c.17.56.77.88,1.34.71l8.33-2.47v-2.21h0Z"/><path class="cls-8" d="m101.49,85.45l-8.95,2.65c-.57.17-.89.76-.72,1.32h0c.17.56.77.88,1.34.71l8.33-2.47v-2.21h0Z"/><path class="cls-8" d="m101.49,91.13l-8.95,2.65c-.57.17-.89.76-.72,1.32h0c.17.56.77.88,1.34.71l8.33-2.47v-2.21h0Z"/><path class="cls-8" d="m101.49,96.81l-8.95,2.65c-.57.17-.89.76-.72,1.32h0c.17.56.77.88,1.34.71l8.33-2.47v-2.21h0Z"/><path class="cls-8" d="m101.49,102.49l-8.95,2.65c-.57.17-.89.76-.72,1.32h0c.03.11.09.21.15.31h2.55l6.35-1.88c.39-.62.62-1.35.62-2.12v-.27h0Z"/><path class="cls-8" d="m109.27,61.17l3.92,1.16c.57.17.89.76.72,1.32h0c-.17.56-.77.88-1.34.71l-7.07-2.09c.72-.68,1.69-1.1,2.75-1.1h1.02Z"/><path class="cls-8" d="m104.24,65.36l8.95,2.65c.57.17.89.76.72,1.32h0c-.17.56-.77.88-1.34.71l-8.33-2.47v-2.21h0Z"/><path class="cls-8" d="m104.24,71.04l8.95,2.65c.57.17.89.76.72,1.32h0c-.17.56-.77.88-1.34.71l-8.33-2.47v-2.21h0Z"/><path class="cls-8" d="m104.24,76.72l8.95,2.65c.57.17.89.76.72,1.32h0c-.17.56-.77.88-1.34.71l-8.33-2.47v-2.21h0Z"/><path class="cls-8" d="m104.24,82.4l8.95,2.65c.57.17.89.76.72,1.32h0c-.17.56-.77.88-1.34.71l-8.33-2.47v-2.21h0Z"/><path class="cls-8" d="m104.24,88.08l8.95,2.65c.57.17.89.76.72,1.32h0c-.17.56-.77.88-1.34.71l-8.33-2.47v-2.21h0Z"/><path class="cls-8" d="m104.24,93.76l8.95,2.65c.57.17.89.76.72,1.32h0c-.17.56-.77.88-1.34.71l-8.33-2.47v-2.21h0Z"/><path class="cls-8" d="m104.24,99.43l8.95,2.65c.57.17.89.76.72,1.32h0c-.17.56-.77.88-1.34.71l-8.33-2.47v-2.21h0Z"/><path class="cls-8" d="m105.26,105.41l4.56,1.35h-1.57c-1.19,0-2.26-.52-3-1.35h0Z"/><path class="cls-8" d="m114.06,61.17c.22.47.77.72,1.28.57l1.91-.57h-3.19Z"/><path class="cls-8" d="m122.98,62.94l-8.26,2.45c-.57.17-.89.76-.72,1.32h0c.17.56.77.88,1.34.71l8.32-2.46c-.04-.74-.29-1.43-.68-2.01h0Z"/><path class="cls-8" d="m123.67,68.42l-8.95,2.65c-.57.17-.89.76-.72,1.32h0c.17.56.77.88,1.34.71l8.33-2.47v-2.21h0Z"/><path class="cls-8" d="m123.67,74.1l-8.95,2.65c-.57.17-.89.76-.72,1.32h0c.17.56.77.88,1.34.71l8.33-2.47v-2.21h0Z"/><path class="cls-8" d="m123.67,79.78l-8.95,2.65c-.57.17-.89.76-.72,1.32h0c.17.56.77.88,1.34.71l8.33-2.47v-2.21h0Z"/><path class="cls-8" d="m123.67,85.45l-8.95,2.65c-.57.17-.89.76-.72,1.32h0c.17.56.77.88,1.34.71l8.33-2.47v-2.21h0Z"/><path class="cls-8" d="m123.67,91.13l-8.95,2.65c-.57.17-.89.76-.72,1.32h0c.17.56.77.88,1.34.71l8.33-2.47v-2.21h0Z"/><path class="cls-8" d="m123.67,96.81l-8.95,2.65c-.57.17-.89.76-.72,1.32h0c.17.56.77.88,1.34.71l8.33-2.47v-2.21h0Z"/><path class="cls-8" d="m123.67,102.49l-8.95,2.65c-.57.17-.89.76-.72,1.32h0c.03.11.09.21.15.31h2.55l6.35-1.88c.39-.62.62-1.35.62-2.12v-.27h0Z"/><polygon class="cls-2" points="81.68 84.7 41.6 84.7 41.6 88.45 81.68 88.45 81.68 84.7 81.68 84.7"/><polygon class="cls-7" points="81.68 75.38 41.6 75.38 41.6 84.7 81.68 84.7 81.68 75.38 81.68 75.38"/><polygon class="cls-2" points="81.68 75.38 41.6 75.38 41.6 76.71 81.68 76.71 81.68 75.38 81.68 75.38"/><path class="cls-6" d="m45.27,47.45h14.16c-.35,1.56-.63,3.48-.84,5.65-5.03-.12-9.72-.53-13.81-1.15.13-1.49.3-2.98.49-4.49h0Zm18.56,0h14.13c.2,1.5.38,3,.52,4.5-4.09.63-8.78,1.03-13.81,1.15-.21-2.17-.49-4.09-.84-5.65h0Z"/><path class="cls-5" d="m47.69,48.77c.69,0,1.25.56,1.25,1.25s-.56,1.25-1.25,1.25-1.25-.56-1.25-1.25.56-1.25,1.25-1.25h0Z"/><path class="cls-5" d="m75.88,48.77c-.69,0-1.25.56-1.25,1.25s.56,1.25,1.25,1.25,1.25-.56,1.25-1.25-.56-1.25-1.25-1.25h0Z"/><path class="cls-5" d="m51.64,48.85c.77,0,1.4.63,1.4,1.4s-.63,1.4-1.4,1.4-1.4-.63-1.4-1.4.63-1.4,1.4-1.4h0Z"/><path class="cls-5" d="m71.92,48.85c-.77,0-1.4.63-1.4,1.4s.63,1.4,1.4,1.4,1.4-.63,1.4-1.4-.63-1.4-1.4-1.4h0Z"/><path class="cls-5" d="m56.12,48.7c.97,0,1.75.78,1.75,1.75s-.78,1.75-1.75,1.75-1.75-.78-1.75-1.75.78-1.75,1.75-1.75h0Z"/><path class="cls-5" d="m67.44,48.7c-.97,0-1.75.78-1.75,1.75s.78,1.75,1.75,1.75,1.75-.78,1.75-1.75-.78-1.75-1.75-1.75h0Z"/><path class="cls-2" d="m60.49,55.42h2.31c.35,0,.64.29.64.64v2.31c0,.35-.29.64-.64.64h-2.31c-.35,0-.64-.29-.64-.64v-2.31c0-.35.29-.64.64-.64h0Z"/><path class="cls-13" d="m89.9,36.85h7.08c.25,0,.46.17.46.38v.14c0,.21-.21.38-.46.38h-7.08c-.25,0-.46-.17-.46-.38v-.14c0-.21.21-.38.46-.38h0Z"/><path class="cls-13" d="m88.84,42.16h9.21c.33,0,.59.17.59.38v.15c0,.21-.27.38-.59.38h-9.21c-.33,0-.59-.17-.59-.38v-.15c0-.21.27-.38.59-.38h0Z"/><path class="cls-13" d="m91.06,31.05h4.77c.17,0,.31.17.31.38v.15c0,.21-.14.38-.31.38h-4.77c-.17,0-.31-.17-.31-.38v-.15c0-.21.14-.38.31-.38h0Z"/><path class="cls-13" d="m28.91,24.04h10.55c.37,0,.68.17.68.38v.14c0,.21-.31.38-.68.38h-10.55c-.37,0-.68-.17-.68-.38v-.14c0-.21.31-.38.68-.38h0Z"/><path class="cls-13" d="m31.6,18.05h5.01c.18,0,.32.15.32.33v.13c0,.18-.15.33-.32.33h-5.01c-.18,0-.32-.15-.32-.33v-.13c0-.18.15-.33.32-.33h0Z"/><path class="cls-13" d="m31.6,20.74h5.01c.18,0,.32.15.32.33v.13c0,.18-.15.33-.32.33h-5.01c-.18,0-.32-.15-.32-.33v-.13c0-.18.15-.33.32-.33h0Z"/><path class="cls-13" d="m32.16,16.39h3.9c.14,0,.25.15.25.33v.13c0,.18-.11.33-.25.33h-3.9c-.14,0-.25-.15-.25-.33v-.13c0-.18.11-.33.25-.33h0Z"/><path class="cls-12" d="m61.95,19.86h0c.09-.12.26-.14.38-.04l14.37,11.43c.12.09.14.26.04.38h0c-.09.12-.27.14-.38.04l-14.37-11.43c-.12-.09-.14-.26-.04-.38h0Z"/></g></svg>